{
.appVersion = "1141";
DisplayStrings = (
"HOj/si_Ba/si_MatraU/tml_Pa/tml_Ma/tml_Tta/tml_Ya/tml_Ra/si_Sha/si_Pa",
"/tml_A"
);
copyright = "Copyright (c) 2015 mooniak (http://mooniak.com)";
customParameters = (
{
name = glyphOrder;
value = (
HKD,
uni00B9,
uni00B2,
uni00B3,
quotedbl.alt,
uni00AD,
uni00C6,
uni00D0,
uni0152,
uni00DE,
uni0041,
uni0042,
uni0043,
uni0044,
uni0045,
uni0046,
uni0047,
uni0048,
uni0049,
uni004A,
uni004B,
uni004C,
uni004D,
uni004E,
uni004F,
uni0050,
uni0051,
uni0052,
uni0053,
uni0054,
uni0055,
uni0056,
uni0057,
uni0058,
uni0059,
uni005A,
uni00C0,
uni00C1,
uni00C2,
uni00C3,
uni00C4,
uni00C5,
uni00C7,
uni00C8,
uni00C9,
uni00CA,
uni00CB,
uni00CC,
uni00CD,
uni00CE,
uni00CF,
uni00D1,
uni00D2,
uni00D3,
uni00D4,
uni00D5,
uni00D6,
uni00D8,
uni00D9,
uni00DA,
uni00DB,
uni00DC,
uni00DD,
uni0100,
uni0102,
uni0104,
uni0106,
uni010C,
uni010E,
uni0110,
uni0112,
uni0116,
uni0118,
uni011A,
uni011E,
uni0122,
uni012A,
uni012E,
uni0130,
uni0136,
uni0139,
uni013B,
uni013D,
uni0141,
uni0143,
uni0145,
uni0147,
uni014C,
uni0150,
uni0154,
uni0156,
uni0158,
uni015A,
uni015E,
uni0160,
uni0162,
uni0164,
uni016A,
uni016E,
uni0170,
uni0172,
uni0178,
uni0179,
uni017B,
uni017D,
uni0218,
uni021A,
uni00E6,
uni00F0,
uni0131,
uni0153,
uni00FE,
uni00DF,
uni0061,
uni0062,
uni0063,
uni0064,
uni0065,
uni0066,
uni0067,
uni0068,
uni0069,
uni006A,
uni006B,
uni006C,
uni006D,
uni006E,
uni006F,
uni0070,
uni0071,
uni0072,
uni0073,
uni0074,
uni0075,
uni0076,
uni0077,
uni0078,
uni0079,
uni007A,
uni00E0,
uni00E1,
uni00E2,
uni00E3,
uni00E4,
uni00E5,
uni00E7,
uni00E8,
uni00E9,
uni00EA,
uni00EB,
uni00EC,
uni00ED,
uni00EE,
uni00EF,
uni00F1,
uni00F2,
uni00F3,
uni00F4,
uni00F5,
uni00F6,
uni00F8,
uni00F9,
uni00FA,
uni00FB,
uni00FC,
uni00FD,
uni00FF,
uni0101,
uni0103,
uni0105,
uni0107,
uni010D,
uni010F,
uni0111,
uni0113,
uni0117,
uni0119,
uni011B,
uni011F,
uni0123,
uni012B,
uni012F,
uni0137,
uni013A,
uni013C,
uni013E,
uni0142,
uni0144,
uni0146,
uni0148,
uni014D,
uni0151,
uni0155,
uni0157,
uni0159,

glyphs = (
{
glyphname = quotedbl.alt;
lastChange = "2017-01-29 15:49:53 +0000";
layers = (
{
layerId = "DC4431BF-9234-4C16-9154-22D387E42D10";
paths = (
{
closed = 1;
nodes = (
"30 700 LINE",
"157 700 LINE",
"157 476 LINE",
"30 476 LINE"
);
},
{
closed = 1;
nodes = (
"210 700 LINE",
"337 700 LINE",
"337 476 LINE",
"210 476 LINE"
);
}
);
width = 367;
}
);
},
{
glyphname = uni00B5;
lastChange = "2017-01-29 15:49:53 +0000";
layers = (
{
layerId = "DC4431BF-9234-4C16-9154-22D387E42D10";
paths = (
{
closed = 1;
nodes = (
"48 698 LINE",
"172 698 LINE",
"172 326 LINE SMOOTH",
"172 313 OFFCURVE",
"181 300 OFFCURVE",
"214 300 CURVE",
"214 179 LINE",
"199 179 OFFCURVE",
"186 180 OFFCURVE",
"172 183 CURVE",
"172 0 LINE",
"48 0 LINE"
);
},
{
closed = 1;
nodes = (
"256 300 LINE",
"289 300 OFFCURVE",
"298 313 OFFCURVE",
"298 326 CURVE SMOOTH",
"298 698 LINE",
"298 700 LINE",
"422 700 LINE",
"422 698 LINE",
"422 328 LINE SMOOTH",
"422 319 OFFCURVE",
"428 302 OFFCURVE",
"464 302 CURVE",
"464 181 LINE",
"421 181 OFFCURVE",
"388 193 OFFCURVE",
"361 213 CURVE",
"333 192 OFFCURVE",
"300 179 OFFCURVE",
"256 179 CURVE"
);
}
);
width = 503;
}
);
unicode = 00B5;
},
{
glyphname = uni2126;
lastChange = "2017-01-29 15:49:53 +0000";
layers = (
{
layerId = "DC4431BF-9234-4C16-9154-22D387E42D10";
paths = (
{
closed = 1;
nodes = (
"30 65 LINE",
"77 65 LINE",
"55 93 OFFCURVE",
"45 124 OFFCURVE",
"45 144 CURVE SMOOTH",
"45 379 LINE SMOOTH",
"45 429 OFFCURVE",
"96 519 OFFCURVE",
"209 519 CURVE",
"209 401 LINE",
"173 401 OFFCURVE",
"165 381 OFFCURVE",
"165 366 CURVE SMOOTH",
"165 157 LINE SMOOTH",
"165 134 OFFCURVE",
"174 120 OFFCURVE",
"209 120 CURVE",
"209 0 LINE",
"30 0 LINE"
);
},
{
closed = 1;
nodes = (
"264 120 LINE",
"299 120 OFFCURVE",
"308 134 OFFCURVE",
"308 157 CURVE SMOOTH",
"308 366 LINE SMOOTH",
"308 381 OFFCURVE",
"300 401 OFFCURVE",
"264 401 CURVE",
"264 519 LINE",
"377 519 OFFCURVE",
"428 429 OFFCURVE",
"428 379 CURVE SMOOTH",
"428 144 LINE SMOOTH",
"428 124 OFFCURVE",
"418 93 OFFCURVE",
"396 65 CURVE",
"443 65 LINE",
"443 0 LINE",
"264 0 LINE"
);
}
);
width = 473;
}
);
unicode = 2126;
},
{
glyphname = uni2206;
lastChange = "2017-01-29 15:49:53 +0000";
layers = (
{
layerId = "DC4431BF-9234-4C16-9154-22D387E42D10";
paths = (
{
closed = 1;
nodes = (
"230 576 LINE",
"240 576 LINE",
"295 370 LINE",
"233 125 LINE",
"413 125 LINE",
"263 700 LINE",
"385 700 LINE",
"566 0 LINE",
"80 0 LINE"
);
}
);
width = 646;
}
);
unicode = 2206;
},
{
glyphname = uni2113;
lastChange = "2017-01-29 15:49:53 +0000";
layers = (
{
layerId = "DC4431BF-9234-4C16-9154-22D387E42D10";
paths = (
{
closed = 1;
nodes = (
"39 698 LINE",
"170 698 LINE",
"170 191 LINE",
"171 145 OFFCURVE",
"221 135 OFFCURVE",
"226 135 CURVE",
"226 -7 LINE",
"166 -7 OFFCURVE",
"39 47 OFFCURVE",
"39 191 CURVE SMOOTH"
);
}
);
width = 196;
}
);
unicode = 2113;
},
{
glyphname = uni02C9;
lastChange = "2017-01-29 15:49:53 +0000";
layers = (
{
layerId = "DC4431BF-9234-4C16-9154-22D387E42D10";
paths = (
{
closed = 1;
nodes = (
"50 596 LINE",
"366 596 LINE",
"366 514 LINE",
"50 514 LINE"
);
}
);
width = 416;
}
);
unicode = 02C9;
},
{
glyphname = si_A;
lastChange = "2017-01-29 15:47:48 +0000";
layers = (
{
layerId = "DC4431BF-9234-4C16-9154-22D387E42D10";
paths = (
{
closed = 1;
nodes = (
"312 380 LINE SMOOTH",
"312 466 OFFCURVE",
"338 529 OFFCURVE",
"484 579 CURVE",
"514 434 LINE",
"446 416 OFFCURVE",
"442 395 OFFCURVE",
"442 362 CURVE SMOOTH",
"442 357 OFFCURVE",
"442 353 OFFCURVE",
"442 140 CURVE",
"494 140 LINE",
"494 0 LINE",
"442 0 LINE",
"442 -169 LINE",
"312 -169 LINE"
);
},
{
closed = 1;
nodes = (
"30 337 OFFCURVE",
"125 402 OFFCURVE",
"256 402 CURVE SMOOTH",
"313 402 LINE",
"313 439 OFFCURVE",
"278 457 OFFCURVE",
"243 457 CURVE SMOOTH",
"214 457 OFFCURVE",
"185 444 OFFCURVE",
"176 420 CURVE",
"58 459 LINE",
"79 539 OFFCURVE",
"158 578 OFFCURVE",
"238 578 CURVE SMOOTH",
"338 578 OFFCURVE",
"442 518 OFFCURVE",
"442 402 CURVE SMOOTH",
"442 263 LINE",
"256 263 LINE SMOOTH",
"217 263 OFFCURVE",
"173 257 OFFCURVE",
"173 198 CURVE",
"173 146 OFFCURVE",
"220 136 OFFCURVE",
"257 136 CURVE SMOOTH",
"257 136 OFFCURVE",
"257 136 OFFCURVE",
"257 136 CURVE SMOOTH",
"257 0 LINE SMOOTH",
"257 0 OFFCURVE",
"257 0 OFFCURVE",
"257 0 CURVE SMOOTH",
"137 0 OFFCURVE",
"30 59 OFFCURVE",
"30 198 CURVE SMOOTH"
);
}
);
width = 544;
}
);
unicode = 0D85;
},
{
glyphname = si_Da;
lastChange = "2017-01-29 15:47:48 +0000";
layers = (
{
layerId = "DC4431BF-9234-4C16-9154-22D387E42D10";
paths = (
{
closed = 1;
nodes = (
"250 -204 OFFCURVE",
"183 -136 OFFCURVE",
"183 -45 CURVE",
"320 -45 LINE",
"320 -61 OFFCURVE",
"340 -78 OFFCURVE",
"369 -78 CURVE SMOOTH",
"390 -78 OFFCURVE",
"414 -67 OFFCURVE",
"419 -47 CURVE",
"552 -81 LINE",
"530 -148 OFFCURVE",
"475 -204 OFFCURVE",
"369 -204 CURVE SMOOTH"
);
},
{
closed = 1;
nodes = (
"30 334 OFFCURVE",
"123 402 OFFCURVE",
"256 402 CURVE SMOOTH",
"313 402 LINE",
"313 440 OFFCURVE",
"279 457 OFFCURVE",
"244 457 CURVE SMOOTH",
"214 457 OFFCURVE",
"183 444 OFFCURVE",
"176 420 CURVE",
"58 459 LINE",
"79 539 OFFCURVE",
"158 578 OFFCURVE",
"239 578 CURVE SMOOTH",
"339 578 OFFCURVE",
"442 518 OFFCURVE",
"442 399 CURVE SMOOTH",
"442 263 LINE",
"256 263 LINE SMOOTH",
"217 263 OFFCURVE",
"173 257 OFFCURVE",
"173 198 CURVE SMOOTH",
"173 146 OFFCURVE",
"220 136 OFFCURVE",
"257 136 CURVE SMOOTH",
"294 136 LINE SMOOTH",
"327 136 OFFCURVE",
"356 140 OFFCURVE",
"369 172 CURVE",
"497 138 LINE",
"472 52 OFFCURVE",
"387 0 OFFCURVE",
"294 0 CURVE SMOOTH",
"257 0 LINE SMOOTH",
"137 0 OFFCURVE",
"30 59 OFFCURVE",
"30 198 CURVE SMOOTH"
);
}
);
width = 552;
}
);
unicode = 0DAF;
userData = {
com.fontlab.hintData = {
hhints = (
{
position = -204;
width = 126;
},
{
position = 0;
width = 136;
},
{
position = 263;
width = 135;
},
{
position = 454;
width = 121;
}
);
vhints = (
{
position = 32;
width = 143;
}
);
};
};
},
{
glyphname = si_Ba;
lastChange = "2017-01-29 15:47:48 +0000";
layers = (
{
layerId = "DC4431BF-9234-4C16-9154-22D387E42D10";
paths = (
{
closed = 1;
nodes = (
"30 283 LINE SMOOTH",
"30 391 OFFCURVE",
"122 452 OFFCURVE",
"212 452 CURVE SMOOTH",
"298 452 OFFCURVE",
"382 396 OFFCURVE",
"382 272 CURVE SMOOTH",
"382 174 LINE SMOOTH",
"382 150 OFFCURVE",
"396 138 OFFCURVE",
"410 138 CURVE SMOOTH",
"425 138 OFFCURVE",
"439 150 OFFCURVE",
"439 174 CURVE",
"439 214 LINE",
"579 214 LINE",
"579 174 LINE",
"579 52 OFFCURVE",
"488 -8 OFFCURVE",
"401 -8 CURVE SMOOTH",
"322 -8 OFFCURVE",
"247 41 OFFCURVE",
"247 138 CURVE SMOOTH",
"247 267 LINE SMOOTH",
"247 298 OFFCURVE",
"226 313 OFFCURVE",
"204 313 CURVE SMOOTH",
"183 313 OFFCURVE",
"162 298 OFFCURVE",
"162 267 CURVE SMOOTH",
"162 193 LINE SMOOTH",
"162 151 OFFCURVE",
"180 140 OFFCURVE",
"211 140 CURVE",
"211 0 LINE",
"91 0 OFFCURVE",
"30 55 OFFCURVE",
"30 187 CURVE SMOOTH"
);
},
{
closed = 1;
nodes = (
"439 478 LINE SMOOTH",
"439 557 OFFCURVE",
"422 616 OFFCURVE",
"345 616 CURVE",
"324 616 LINE",
"324 755 LINE",
"345 755 LINE",
"479 755 OFFCURVE",
"579 680 OFFCURVE",
"579 500 CURVE SMOOTH",
"579 214 LINE",
"439 214 LINE"
);
},
{
closed = 1;
nodes = (
"41 678 OFFCURVE",
"155 755 OFFCURVE",
"268 755 CURVE",
"268 617 LINE",
"220 617 OFFCURVE",
"178 602 OFFCURVE",
"178 530 CURVE",
"41 566 LINE"
);
}
);
width = 609;
}
);
unicode = 0DB6;
},
{
glyphname = si_Ka;
lastChange = "2017-01-29 15:47:48 +0000";
layers = (
{
layerId = "DC4431BF-9234-4C16-9154-22D387E42D10";
paths = (
{
closed = 1;
nodes = (
"44 537 OFFCURVE",
"137 567 OFFCURVE",
"198 567 CURVE SMOOTH",
"271 567 OFFCURVE",
"320 533 OFFCURVE",
"337 502 CURVE",
"245 402 LINE",
"245 437 OFFCURVE",
"214 446 OFFCURVE",
"198 446 CURVE SMOOTH",
"164 446 OFFCURVE",
"147 423 OFFCURVE",
"147 402 CURVE",
"30 439 LINE"
);
},
{
closed = 1;
nodes = (
"147 255 LINE",
"166 239 OFFCURVE",
"181 221 OFFCURVE",
"181 202 CURVE",
"181 160 LINE SMOOTH",
"181 141 OFFCURVE",
"196 132 OFFCURVE",
"211 132 CURVE SMOOTH",
"225 132 OFFCURVE",
"240 141 OFFCURVE",
"240 160 CURVE SMOOTH",
"240 202 LINE",
"340 202 LINE",
"340 162 LINE SMOOTH",
"340 142 OFFCURVE",
"355 132 OFFCURVE",
"370 132 CURVE SMOOTH",
"385 132 OFFCURVE",
"400 142 OFFCURVE",
"400 162 CURVE SMOOTH",
"400 202 LINE SMOOTH",
"400 233 OFFCURVE",
"394 259 OFFCURVE",
"351 276 CURVE",
"448 354 LINE",
"512 327 OFFCURVE",
"529 280 OFFCURVE",
"529 218 CURVE SMOOTH",
"529 136 LINE SMOOTH",
"529 47 OFFCURVE",
"455 -7 OFFCURVE",
"385 -7 CURVE SMOOTH",
"349 -7 OFFCURVE",
"314 6 OFFCURVE",
"290 36 CURVE",
"270 6 OFFCURVE",
"237 -7 OFFCURVE",
"203 -7 CURVE SMOOTH",
"137 -7 OFFCURVE",
"65 42 OFFCURVE",
"65 106 CURVE SMOOTH",
"65 122 LINE SMOOTH",
"65 142 OFFCURVE",
"64 162 OFFCURVE",
"41 162 CURVE SMOOTH",
"38 162 OFFCURVE",
"34 161 OFFCURVE",
"30 160 CURVE"
);
},
{
closed = 1;
nodes = (
"30 259 LINE",
"301 480 LINE",
"361 542 OFFCURVE",
"445 574 OFFCURVE",
"525 574 CURVE SMOOTH",
"652 574 OFFCURVE",
"770 493 OFFCURVE",
"770 321 CURVE SMOOTH",
"770 205 LINE SMOOTH",
"770 89 OFFCURVE",
"713 -1 OFFCURVE",
"574 -1 CURVE",
"574 142 LINE",
"626 142 OFFCURVE",
"630 181 OFFCURVE",
"630 205 CURVE SMOOTH",
"630 307 LINE SMOOTH",
"630 382 OFFCURVE",
"572 434 OFFCURVE",
"509 434 CURVE SMOOTH",
"481 434 OFFCURVE",
"451 423 OFFCURVE",
"425 400 CURVE",
"155 181 LINE",
"30 160 LINE"
);
}
);
width = 800;
}
);
unicode = 0D9A;
},
{
glyphname = si_Ga;
lastChange = "2017-01-29 15:47:48 +0000";
layers = (
{
layerId = "DC4431BF-9234-4C16-9154-22D387E42D10";
paths = (
{
closed = 1;
nodes = (
"271 347 LINE",
"371 347 LINE",
"407 347 OFFCURVE",
"461 325 OFFCURVE",
"461 216 CURVE SMOOTH",
"461 166 LINE SMOOTH",
"461 45 OFFCURVE",
"400 -8 OFFCURVE",
"283 -8 CURVE",
"283 135 LINE SMOOTH",
"336 135 OFFCURVE",
"337 171 OFFCURVE",
"337 188 CURVE SMOOTH",
"337 205 OFFCURVE",
"336 241 OFFCURVE",
"283 241 CURVE SMOOTH",
"271 241 LINE"
);
},
{
closed = 1;
nodes = (
"88 -8 OFFCURVE",
"30 82 OFFCURVE",
"30 198 CURVE SMOOTH",
"30 358 LINE SMOOTH",
"30 474 OFFCURVE",
"88 564 OFFCURVE",
"227 564 CURVE",
"227 421 LINE",
"175 421 OFFCURVE",
"171 376 OFFCURVE",
"171 348 CURVE SMOOTH",
"171 198 LINE SMOOTH",
"171 174 OFFCURVE",
"175 135 OFFCURVE",
"227 135 CURVE",
"227 -8 LINE"
);
},
{
closed = 1;
nodes = (
"490 135 LINE",
"542 135 OFFCURVE",
"546 174 OFFCURVE",
"546 198 CURVE SMOOTH",
"546 348 LINE SMOOTH",
"546 376 OFFCURVE",
"542 421 OFFCURVE",
"490 421 CURVE",
"490 564 LINE",
"629 564 OFFCURVE",
"687 474 OFFCURVE",
"687 358 CURVE SMOOTH",
"687 198 LINE SMOOTH",
"687 82 OFFCURVE",
"629 -8 OFFCURVE",
"490 -8 CURVE"
);
},
{
closed = 1;
nodes = (
"254 350 LINE SMOOTH",
"254 468 OFFCURVE",
"290 564 OFFCURVE",
"434 564 CURVE",
"434 421 LINE",
"388 421 OFFCURVE",
"393 376 OFFCURVE",
"393 350 CURVE SMOOTH",
"393 241 LINE",
"254 241 LINE SMOOTH"
);
}
);
width = 717;
}
);
unicode = 0D9C;
userData = {
com.fontlab.hintData = {
hhints = (
{
position = -8;
width = 143;
},
{
position = 421;
width = 143;
}
);
vhints = (
{
position = 30;
width = 141;
},
{
position = 254;
width = 139;
},
{
position = 337;
width = 124;
},
{
position = 546;
width = 141;
}
);
};
};
},
{
glyphname = si_Lla;
lastChange = "2017-01-29 15:47:48 +0000";
layers = (
{
layerId = "DC4431BF-9234-4C16-9154-22D387E42D10";
paths = (
{
closed = 1;
nodes = (
"115 446 LINE",
"115 525 OFFCURVE",
"169 575 OFFCURVE",
"254 575 CURVE SMOOTH",
"285 575 OFFCURVE",
"311 565 OFFCURVE",
"330 548 CURVE",
"350 570 OFFCURVE",
"379 575 OFFCURVE",
"401 575 CURVE SMOOTH",
"490 575 OFFCURVE",
"540 517 OFFCURVE",
"540 437 CURVE",
"424 437 LINE",
"424 454 OFFCURVE",
"413 464 OFFCURVE",
"397 464 CURVE SMOOTH",
"379 464 OFFCURVE",
"371 450 OFFCURVE",
"371 437 CURVE",
"286 437 LINE",
"285 451 OFFCURVE",
"281 465 OFFCURVE",
"259 465 CURVE SMOOTH",
"237 465 OFFCURVE",
"231 449 OFFCURVE",
"231 435 CURVE",
"115 421 LINE"
);
},
{
closed = 1;
nodes = (
"30 194 LINE SMOOTH",
"30 322 OFFCURVE",
"133 387 OFFCURVE",
"216 387 CURVE SMOOTH",
"541 388 LINE",
"541 256 LINE",
"248 256 LINE SMOOTH",
"203 256 OFFCURVE",
"169 228 OFFCURVE",
"169 146 CURVE SMOOTH",
"169 75 LINE SMOOTH",
"169 3 OFFCURVE",
"210 -30 OFFCURVE",
"283 -30 CURVE SMOOTH",
"283 -170 LINE SMOOTH",
"132 -170 OFFCURVE",
"30 -90 OFFCURVE",
"30 77 CURVE SMOOTH"
);
},
{
closed = 1;
nodes = (
"235 301 LINE",
"235 196 OFFCURVE",
"309 185 OFFCURVE",
"334 185 CURVE SMOOTH",
"354 185 LINE SMOOTH",
"390 185 OFFCURVE",
"419 201 OFFCURVE",
"429 222 CURVE",
"542 193 LINE",
"499 82 OFFCURVE",
"407 67 OFFCURVE",
"358 67 CURVE SMOOTH",
"325 67 LINE SMOOTH",
"217 67 OFFCURVE",
"144 142 OFFCURVE",
"144 216 CURVE"
);
},
{
closed = 1;
nodes = (
"344 -170 LINE",
"443 -170 OFFCURVE",
"560 -137 OFFCURVE",
"589 2 CURVE",
"454 40 LINE",
"441 -10 OFFCURVE",
"398 -30 OFFCURVE",
"344 -30 CURVE"
);
}
);
width = 609;
}
);
unicode = 0DC5;
},
{
glyphname = si_La;
lastChange = "2017-01-29 15:47:48 +0000";
layers = (
{
layerId = "DC4431BF-9234-4C16-9154-22D387E42D10";
paths = (
{
closed = 1;
nodes = (
"248 215 OFFCURVE",
"248 311 OFFCURVE",
"248 323 CURVE",
"376 323 LINE",
"376 235 LINE SMOOTH",
"376 216 OFFCURVE",
"383 194 OFFCURVE",
"417 194 CURVE SMOOTH",
"454 194 OFFCURVE",
"458 223 OFFCURVE",
"458 240 CURVE SMOOTH",
"458 322 LINE SMOOTH",
"458 397 OFFCURVE",
"409 426 OFFCURVE",
"344 426 CURVE",
"344 566 LINE",
"458 566 OFFCURVE",
"596 522 OFFCURVE",
"596 322 CURVE SMOOTH",
"596 240 LINE SMOOTH",
"596 122 OFFCURVE",
"530 54 OFFCURVE",
"417 54 CURVE SMOOTH",
"277 54 OFFCURVE",
"248 138 OFFCURVE",
"248 215 CURVE SMOOTH"
);
},
{
closed = 1;
nodes = (
"173 -171 OFFCURVE",
"30 -123 OFFCURVE",
"30 74 CURVE SMOOTH",
"30 322 LINE SMOOTH",
"30 522 OFFCURVE",
"168 566 OFFCURVE",
"283 566 CURVE",
"283 426 LINE",
"218 426 OFFCURVE",
"169 397 OFFCURVE",
"169 322 CURVE SMOOTH",
"169 74 LINE SMOOTH",
"169 -2 OFFCURVE",
"218 -31 OFFCURVE",
"283 -31 CURVE",
"283 -171 LINE"
);
},
{
closed = 1;
nodes = (
"206 365 LINE",
"418 365 LINE",
"418 251 LINE",
"206 251 LINE"
);
},
{
closed = 1;
nodes = (
"344 -173 LINE",
"443 -173 OFFCURVE",
"560 -140 OFFCURVE",
"589 -1 CURVE",
"454 37 LINE",
"441 -13 OFFCURVE",
"398 -33 OFFCURVE",
"344 -33 CURVE"
);
}
);
width = 626;
}
);
unicode = 0DBD;
userData = {
com.fontlab.hintData = {
hhints = (
{
position = -173;
width = 140;
},
{
position = 54;
width = 140;
},
{
position = 250;
width = 114;
},
{
position = 250;
width = 72;
},
{
position = 426;
width = 140;
}
);
vhints = (
{
position = 30;
width = 138;
},
{
position = 248;
width = 128;
},
{
position = 458;
width = 138;
}
);
};
};
},
{
glyphname = si_Ddha;
lastChange = "2017-01-29 15:47:48 +0000";
layers = (
{
layerId = "DC4431BF-9234-4C16-9154-22D387E42D10";
paths = (
{
closed = 1;
nodes = (
"146 -8 OFFCURVE",
"72 58 OFFCURVE",
"72 160 CURVE SMOOTH",
"72 219 LINE",
"72 226 OFFCURVE",
"72 246 OFFCURVE",
"80 251 CURVE",
"30 251 LINE",
"30 353 LINE",
"281 353 LINE",
"281 388 OFFCURVE",
"260 399 OFFCURVE",
"239 399 CURVE SMOOTH",
"229 399 OFFCURVE",
"204 396 OFFCURVE",
"199 375 CURVE",
"100 401 LINE",
"126 489 OFFCURVE",
"203 502 OFFCURVE",
"239 502 CURVE SMOOTH",
"283 502 OFFCURVE",
"328 485 OFFCURVE",
"351 458 CURVE SMOOTH",
"374 431 OFFCURVE",
"384 405 OFFCURVE",
"384 349 CURVE SMOOTH",
"384 251 LINE",
"242 251 LINE",
"211 251 OFFCURVE",
"207 231 OFFCURVE",
"207 219 CURVE",
"207 166 LINE SMOOTH",
"207 154 OFFCURVE",
"216 132 OFFCURVE",
"246 132 CURVE SMOOTH",
"276 132 OFFCURVE",
"284 153 OFFCURVE",
"284 166 CURVE SMOOTH",
"284 202 LINE",
"384 202 LINE",
"384 166 LINE SMOOTH",
"384 153 OFFCURVE",
"392 132 OFFCURVE",
"422 132 CURVE SMOOTH",
"453 132 OFFCURVE",
"462 154 OFFCURVE",
"462 166 CURVE SMOOTH",
"462 202 LINE",
"602 202 LINE",
"602 160 LINE SMOOTH",
"602 58 OFFCURVE",
"535 -8 OFFCURVE",
"443 -8 CURVE SMOOTH",
"409 -8 OFFCURVE",
"368 3 OFFCURVE",
"339 35 CURVE",
"315 3 OFFCURVE",
"279 -8 OFFCURVE",
"251 -8 CURVE SMOOTH"
);
},
{
closed = 1;
nodes = (
"287 755 LINE",
"367 755 LINE",
"501 755 OFFCURVE",
"602 700 OFFCURVE",
"602 517 CURVE SMOOTH",
"602 202 LINE",
"462 202 LINE",
"462 498 LINE SMOOTH",
"462 577 OFFCURVE",
"445 616 OFFCURVE",
"367 616 CURVE",
"367 616 LINE",
"367 563 OFFCURVE",
"393 547 OFFCURVE",
"426 540 CURVE",
"426 454 LINE",
"323 474 OFFCURVE",
"287 544 OFFCURVE",
"287 617 CURVE SMOOTH"
);
}
);
width = 632;
}
);
unicode = 0DAA;
},
{
glyphname = si_MatraAe;
lastChange = "2017-01-29 15:47:48 +0000";
layers = (
{
layerId = "DC4431BF-9234-4C16-9154-22D387E42D10";
paths = (
{
closed = 1;
nodes = (
"118 0 OFFCURVE",
"30 58 OFFCURVE",
"30 208 CURVE SMOOTH",
"30 260 LINE SMOOTH",
"30 329 OFFCURVE",
"37 343 OFFCURVE",
"90 436 CURVE",
"30 436 LINE",
"30 574 LINE",
"247 574 LINE",
"247 442 LINE",
"180 318 OFFCURVE",
"171 315 OFFCURVE",
"171 248 CURVE SMOOTH",
"171 202 LINE SMOOTH",
"171 153 OFFCURVE",
"202 143 OFFCURVE",
"226 143 CURVE SMOOTH",
"235 143 OFFCURVE",
"243 143 OFFCURVE",
"247 143 CURVE",
"247 0 LINE",
"240 0 OFFCURVE",
"232 0 OFFCURVE",
"225 0 CURVE SMOOTH"
);
}
);
width = 277;
}
);
unicode = 0DD0;
userData = {
com.fontlab.hintData = {
hhints = (
{
position = 0;
width = 143;
}
);
vhints = (
{
position = 30;
width = 217;
},
{
position = 30;
width = 141;
}
);
};
};
},
{
glyphname = si_MatraIi;
lastChange = "2017-01-29 15:47:48 +0000";
layers = (
{
layerId = "DC4431BF-9234-4C16-9154-22D387E42D10";
paths = (
{
closed = 1;
nodes = (
"-233 553 OFFCURVE",
"-286 606 OFFCURVE",
"-286 671 CURVE SMOOTH",
"-286 736 OFFCURVE",
"-233 789 OFFCURVE",
"-168 789 CURVE SMOOTH",
"-103 789 OFFCURVE",
"-50 736 OFFCURVE",
"-50 671 CURVE SMOOTH",
"-50 606 OFFCURVE",
"-103 553 OFFCURVE",
"-168 553 CURVE SMOOTH"
);
},
{
closed = 1;
nodes = (
"-609 630 LINE SMOOTH",
"-609 723 OFFCURVE",
"-532 789 OFFCURVE",
"-433 789 CURVE SMOOTH",
"-168 789 LINE SMOOTH",
"-104 789 OFFCURVE",
"-50 737 OFFCURVE",
"-50 671 CURVE",
"-204 622 LINE",
"-204 657 OFFCURVE",
"-219 659 OFFCURVE",
"-246 659 CURVE SMOOTH",
"-417 659 LINE SMOOTH",
"-444 659 OFFCURVE",
"-479 654 OFFCURVE",
"-479 602 CURVE",
"-609 602 LINE"
);
}
);
width = 0;
}
);
unicode = 0DD3;
userData = {
com.fontlab.hintData = {
hhints = (
{
position = 462;
width = 119;
},
{
position = 659;
width = 130;
}
);
vhints = (
{
position = -147;
width = 118;
}
);
};
};
},
{
glyphname = si_Ma;
lastChange = "2017-01-29 15:47:48 +0000";
layers = (
{
layerId = "DC4431BF-9234-4C16-9154-22D387E42D10";
paths = (
{
closed = 1;
nodes = (
"30 299 LINE SMOOTH",
"30 416 OFFCURVE",
"103 471 OFFCURVE",
"168 471 CURVE SMOOTH",
"223 471 OFFCURVE",
"272 434 OFFCURVE",
"272 364 CURVE SMOOTH",
"272 348 LINE SMOOTH",
"272 337 OFFCURVE",
"280 331 OFFCURVE",
"287 331 CURVE SMOOTH",
"295 331 OFFCURVE",
"303 337 OFFCURVE",
"303 348 CURVE SMOOTH",
"303 469 LINE",
"395 469 LINE",
"395 340 LINE SMOOTH",
"395 263 OFFCURVE",
"342 229 OFFCURVE",
"290 229 CURVE SMOOTH",
"239 229 OFFCURVE",
"189 262 OFFCURVE",
"189 320 CURVE SMOOTH",
"189 328 LINE SMOOTH",
"189 341 OFFCURVE",
"181 348 OFFCURVE",
"173 348 CURVE SMOOTH",
"166 348 OFFCURVE",
"158 341 OFFCURVE",
"158 328 CURVE SMOOTH",
"158 252 LINE SMOOTH",
"158 154 OFFCURVE",
"201 135 OFFCURVE",
"261 135 CURVE",
"261 -5 LINE",
"65 -5 OFFCURVE",
"30 143 OFFCURVE",
"30 252 CURVE SMOOTH"
);
},
{
closed = 1;
nodes = (
"317 135 LINE",
"385 135 OFFCURVE",
"430 147 OFFCURVE",
"430 252 CURVE SMOOTH",
"430 498 LINE SMOOTH",
"430 603 OFFCURVE",
"385 615 OFFCURVE",
"317 615 CURVE",
"317 754 LINE",
"528 754 OFFCURVE",
"570 622 OFFCURVE",
"570 498 CURVE SMOOTH",
"570 252 LINE SMOOTH",
"570 127 OFFCURVE",
"528 -5 OFFCURVE",
"317 -5 CURVE"
);
},
{
closed = 1;
nodes = (
"34 677 OFFCURVE",
"148 754 OFFCURVE",
"261 754 CURVE",
"261 616 LINE",
"213 616 OFFCURVE",
"171 601 OFFCURVE",
"171 529 CURVE",
"34 565 LINE"
);
}
);
width = 600;
}
);
unicode = 0DB8;
},
{
glyphname = si_Na;
lastChange = "2017-01-29 15:47:48 +0000";
layers = (
{
layerId = "DC4431BF-9234-4C16-9154-22D387E42D10";
paths = (
{
closed = 1;
nodes = (
"532 135 LINE",
"584 135 OFFCURVE",
"588 174 OFFCURVE",
"588 198 CURVE SMOOTH",
"588 317 LINE SMOOTH",
"588 391 OFFCURVE",
"530 436 OFFCURVE",
"471 436 CURVE SMOOTH",
"435 436 OFFCURVE",
"399 419 OFFCURVE",
"373 384 CURVE SMOOTH",
"295 281 LINE",
"240 208 OFFCURVE",
"202 165 OFFCURVE",
"154 165 CURVE",
"125 165 LINE",
"125 304 LINE SMOOTH",
"150 304 LINE SMOOTH",
"163 304 OFFCURVE",
"188 337 OFFCURVE",
"214 375 CURVE SMOOTH",
"241 414 OFFCURVE",
"267 457 OFFCURVE",
"283 479 CURVE",
"326 543 OFFCURVE",
"400 574 OFFCURVE",
"476 574 CURVE SMOOTH",
"600 574 OFFCURVE",
"728 492 OFFCURVE",
"728 337 CURVE SMOOTH",
"728 198 LINE SMOOTH",
"728 82 OFFCURVE",
"671 -8 OFFCURVE",
"532 -8 CURVE"
);
},
{
closed = 1;
nodes = (
"30 344 LINE",
"148 344 LINE",
"148 313 OFFCURVE",
"148 301 OFFCURVE",
"148 270 CURVE SMOOTH",
"148 150 OFFCURVE",
"209 127 OFFCURVE",
"278 127 CURVE SMOOTH",
"331 127 OFFCURVE",
"362 167 OFFCURVE",
"362 203 CURVE SMOOTH",
"362 222 OFFCURVE",
"354 240 OFFCURVE",
"336 251 CURVE",
"412 354 LINE",
"473 322 OFFCURVE",
"502 261 OFFCURVE",
"502 198 CURVE SMOOTH",
"502 97 OFFCURVE",
"427 -8 OFFCURVE",
"282 -8 CURVE SMOOTH",
"134 -8 OFFCURVE",
"30 85 OFFCURVE",
"30 256 CURVE"
);
},
{
closed = 1;
nodes = (
"46 537 OFFCURVE",
"139 567 OFFCURVE",
"200 567 CURVE SMOOTH",
"269 567 OFFCURVE",
"331 522 OFFCURVE",
"331 506 CURVE",
"247 402 LINE",
"247 437 OFFCURVE",
"216 446 OFFCURVE",
"200 446 CURVE SMOOTH",
"166 446 OFFCURVE",
"149 423 OFFCURVE",
"149 402 CURVE",
"32 439 LINE"
);
}
);
width = 758;
}
);
unicode = 0DB1;
userData = {
com.fontlab.hintData = {
hhints = (
{
position = -8;
width = 135;
},
{
position = 436;
width = 138;
},
{
position = 446;
width = 121;
}
);
vhints = (
{
position = 30;
width = 118;
},
{
position = 125;
width = 23;
},
{
position = 588;
width = 140;
}
);
};
};
},
{
glyphname = si_NnI;
lastChange = "2017-01-29 16:23:08 +0000";
layers = (
{
layerId = "DC4431BF-9234-4C16-9154-22D387E42D10";
paths = (
{
closed = 1;
nodes = (
"614 636 LINE SMOOTH",
"614 706 OFFCURVE",
"652 756 OFFCURVE",
"726 756 CURVE SMOOTH",
"835 756 LINE SMOOTH",
"910 756 OFFCURVE",
"948 706 OFFCURVE",
"947 636 CURVE SMOOTH",
"947 615 LINE",
"850 615 LINE",
"850 650 OFFCURVE",
"834 658 OFFCURVE",
"813 658 CURVE SMOOTH",
"748 658 LINE SMOOTH",
"728 658 OFFCURVE",
"712 650 OFFCURVE",
"712 615 CURVE",
"614 615 LINE"
);
},
{
closed = 1;
nodes = (
"18 76 OFFCURVE",
"73 159 OFFCURVE",
"166 159 CURVE SMOOTH",
"220 159 OFFCURVE",
"273 140 OFFCURVE",
"313 140 CURVE SMOOTH",
"356 140 OFFCURVE",
"384 153 OFFCURVE",
"384 243 CURVE SMOOTH",
"384 343 LINE SMOOTH",
"384 402 OFFCURVE",
"378 474 OFFCURVE",
"283 474 CURVE SMOOTH",
"225 474 OFFCURVE",
"198 436 OFFCURVE",
"198 399 CURVE SMOOTH",
"198 367 OFFCURVE",
"220 336 OFFCURVE",
"262 336 CURVE SMOOTH",
"283 336 OFFCURVE",
"302 336 OFFCURVE",
"318 336 CURVE",
"318 202 LINE",
"308 202 OFFCURVE",
"267 202 OFFCURVE",
"241 202 CURVE SMOOTH",
"144 202 OFFCURVE",
"61 275 OFFCURVE",
"61 398 CURVE SMOOTH",
"61 535 OFFCURVE",
"173 606 OFFCURVE",
"283 606 CURVE SMOOTH",
"494 606 OFFCURVE",
"515 471 OFFCURVE",
"515 343 CURVE SMOOTH",
"515 329 OFFCURVE",
"515 261 OFFCURVE",
"515 243 CURVE SMOOTH",
"515 95 OFFCURVE",
"460 0 OFFCURVE",
"342 0 CURVE SMOOTH",
"299 0 OFFCURVE",
"236 27 OFFCURVE",
"191 27 CURVE SMOOTH",
"146 27 OFFCURVE",
"134 -8 OFFCURVE",
"134 -8 CURVE",
"0 26 LINE"
);
},
{
closed = 1;
nodes = (
"641 350 LINE",
"641 404 OFFCURVE",
"622 421 OFFCURVE",
"602 421 CURVE SMOOTH",
"576 421 OFFCURVE",
"573 412 OFFCURVE",
"569 407 CURVE",
"529 532 LINE",
"533 538 OFFCURVE",
"562 563 OFFCURVE",
"619 563 CURVE SMOOTH",
"664 563 OFFCURVE",
"694 543 OFFCURVE",
"713 522 CURVE",
"734 543 OFFCURVE",
"769 563 OFFCURVE",
"822 563 CURVE SMOOTH",
"920 563 OFFCURVE",
"986 513 OFFCURVE",
"987 405 CURVE SMOOTH",
"987 251 LINE",
"848 251 LINE",
"848 372 LINE SMOOTH",
"848 397 OFFCURVE",
"845 420 OFFCURVE",
"812 420 CURVE SMOOTH",
"782 420 OFFCURVE",
"775 397 OFFCURVE",
"775 372 CURVE SMOOTH",
"775 251 LINE",
"640 251 LINE"
);
},
{
closed = 1;
nodes = (
"550 202 LINE",
"690 202 LINE",
"690 187 LINE SMOOTH",
"690 141 OFFCURVE",
"734 126 OFFCURVE",
"767 126 CURVE SMOOTH",
"802 126 OFFCURVE",
"848 136 OFFCURVE",
"848 185 CURVE SMOOTH",
"848 202 LINE",
"987 202 LINE",
"987 181 LINE SMOOTH",
"987 56 OFFCURVE",
"885 -6 OFFCURVE",
"768 -6 CURVE SMOOTH",
"623 -6 OFFCURVE",
"550 69 OFFCURVE",
"550 164 CURVE SMOOTH"
);
},
{
closed = 1;
nodes = (
"496 793 LINE",
"641 755 LINE",
"396 433 LINE",
"290 522 LINE"
);
}
);
width = 1017;
}
);
},
{
glyphname = si_Pa;
lastChange = "2018-07-02 18:40:56 +0000";
layers = (
{
layerId = "DC4431BF-9234-4C16-9154-22D387E42D10";
paths = (
{
closed = 1;
nodes = (
"54 537 OFFCURVE",
"122 575 OFFCURVE",
"193 575 CURVE SMOOTH",
"235 575 OFFCURVE",
"278 562 OFFCURVE",
"314 536 CURVE",
"350 562 OFFCURVE",
"393 575 OFFCURVE",
"435 575 CURVE SMOOTH",
"506 575 OFFCURVE",
"574 537 OFFCURVE",
"598 460 CURVE",
"480 421 LINE",
"476 436 OFFCURVE",
"461 451 OFFCURVE",
"433 451 CURVE SMOOTH",
"418 451 OFFCURVE",
"378 443 OFFCURVE",
"378 397 CURVE",
"378 378 LINE",
"250 378 LINE",
"250 397 LINE",
"250 443 OFFCURVE",
"210 451 OFFCURVE",
"195 451 CURVE SMOOTH",
"167 451 OFFCURVE",
"152 436 OFFCURVE",
"148 421 CURVE",
"30 460 LINE"
);
},
{
closed = 1;
nodes = (
"112 -12 OFFCURVE",
"34 59 OFFCURVE",
"34 202 CURVE",
"174 202 LINE",
"174 149 OFFCURVE",
"215 123 OFFCURVE",
"278 123 CURVE SMOOTH",
"350 123 LINE SMOOTH",
"415 123 OFFCURVE",
"454 151 OFFCURVE",
"454 202 CURVE",
"594 202 LINE",
"594 64 OFFCURVE",
"511 -12 OFFCURVE",
"342 -12 CURVE SMOOTH",
"289 -12 LINE SMOOTH"
);
},
{
closed = 1;
nodes = (
"35 373 OFFCURVE",
"101 402 OFFCURVE",
"198 402 CURVE SMOOTH",
"423 402 LINE SMOOTH",
"531 402 OFFCURVE",
"594 377 OFFCURVE",
"594 251 CURVE",
"455 251 LINE",
"455 263 OFFCURVE",
"455 283 OFFCURVE",
"426 283 CURVE SMOOTH",
"209 283 LINE SMOOTH",
"176 283 OFFCURVE",
"174 262 OFFCURVE",
"174 251 CURVE",
"35 251 LINE"
);
}
);
width = 628;
}
);
unicode = 0DB4;
userData = {
com.fontlab.hintData = {
hhints = (
{
position = -12;
width = 135;
},
{
position = 283;
width = 119;
},
{
position = 378;
width = 24;
},
{
position = 451;
width = 124;
}
);
vhints = (
{
position = 34;
width = 140;
},
{
position = 250;
width = 128;
},
{
position = 454;
width = 140;
}
);
};
};
},
{
glyphname = si_Ra;
lastChange = "2017-01-29 15:47:48 +0000";
layers = (
{
layerId = "DC4431BF-9234-4C16-9154-22D387E42D10";
paths = (
{
closed = 1;
nodes = (
"30 427 LINE SMOOTH",
"30 478 OFFCURVE",
"31 559 OFFCURVE",
"123 634 CURVE SMOOTH",
"318 793 LINE",
"483 749 LINE",
"237 549 LINE SMOOTH",
"175 500 OFFCURVE",
"170 489 OFFCURVE",
"170 450 CURVE SMOOTH",
"170 442 OFFCURVE",
"170 432 OFFCURVE",
"170 235 CURVE SMOOTH",
"170 167 OFFCURVE",
"184 139 OFFCURVE",
"244 139 CURVE",
"244 -6 LINE",
"142 -6 OFFCURVE",
"30 51 OFFCURVE",
"30 235 CURVE SMOOTH"
);
},
{
closed = 1;
nodes = (
"342 564 LINE",
"365 564 LINE",
"478 564 OFFCURVE",
"515 491 OFFCURVE",
"515 328 CURVE SMOOTH",
"515 235 LINE SMOOTH",
"515 43 OFFCURVE",
"413 -5 OFFCURVE",
"300 -5 CURVE",
"300 139 LINE",
"361 139 OFFCURVE",
"375 167 OFFCURVE",
"375 235 CURVE SMOOTH",
"375 322 LINE SMOOTH",
"375 395 OFFCURVE",
"375 426 OFFCURVE",
"300 426 CURVE SMOOTH",
"209 426 LINE",
"209 456 LINE"
);
}
);
width = 545;
}
);
unicode = 0DBB;
userData = {
com.fontlab.hintData = {
hhints = (
{
position = -6;
width = 145;
}
);
vhints = (
{
position = 30;
width = 140;
},
{
position = 375;
width = 140;
}
);
};
};
},
{
glyphname = si_Nna;
lastChange = "2017-01-29 15:47:48 +0000";
layers = (
{
layerId = "DC4431BF-9234-4C16-9154-22D387E42D10";
paths = (
{
closed = 1;
nodes = (
"18 76 OFFCURVE",
"73 159 OFFCURVE",
"166 159 CURVE SMOOTH",
"220 159 OFFCURVE",
"273 140 OFFCURVE",
"313 140 CURVE SMOOTH",
"356 140 OFFCURVE",
"384 153 OFFCURVE",
"384 243 CURVE SMOOTH",
"384 343 LINE SMOOTH",
"384 402 OFFCURVE",
"378 474 OFFCURVE",
"283 474 CURVE SMOOTH",
"225 474 OFFCURVE",
"198 436 OFFCURVE",
"198 399 CURVE SMOOTH",
"198 367 OFFCURVE",
"220 336 OFFCURVE",
"262 336 CURVE SMOOTH",
"283 336 OFFCURVE",
"302 336 OFFCURVE",
"318 336 CURVE",
"318 202 LINE",
"308 202 OFFCURVE",
"267 202 OFFCURVE",
"241 202 CURVE SMOOTH",
"144 202 OFFCURVE",
"61 275 OFFCURVE",
"61 398 CURVE SMOOTH",
"61 535 OFFCURVE",
"173 606 OFFCURVE",
"283 606 CURVE SMOOTH",
"494 606 OFFCURVE",
"515 471 OFFCURVE",
"515 343 CURVE SMOOTH",
"515 329 OFFCURVE",
"515 261 OFFCURVE",
"515 243 CURVE SMOOTH",
"515 95 OFFCURVE",
"460 0 OFFCURVE",
"342 0 CURVE SMOOTH",
"299 0 OFFCURVE",
"236 27 OFFCURVE",
"191 27 CURVE SMOOTH",
"146 27 OFFCURVE",
"134 -8 OFFCURVE",
"134 -8 CURVE",
"0 26 LINE"
);
},
{
closed = 1;
nodes = (
"641 350 LINE",
"641 404 OFFCURVE",
"622 421 OFFCURVE",
"602 421 CURVE SMOOTH",
"576 421 OFFCURVE",
"573 412 OFFCURVE",
"569 407 CURVE",
"529 532 LINE",
"533 538 OFFCURVE",
"562 563 OFFCURVE",
"619 563 CURVE SMOOTH",
"664 563 OFFCURVE",
"694 543 OFFCURVE",
"713 522 CURVE",
"734 543 OFFCURVE",
"769 563 OFFCURVE",
"822 563 CURVE SMOOTH",
"920 563 OFFCURVE",
"986 513 OFFCURVE",
"987 405 CURVE SMOOTH",
"987 251 LINE",
"848 251 LINE",
"848 372 LINE SMOOTH",
"848 397 OFFCURVE",
"845 420 OFFCURVE",
"812 420 CURVE SMOOTH",
"782 420 OFFCURVE",
"775 397 OFFCURVE",
"775 372 CURVE SMOOTH",
"775 251 LINE",
"640 251 LINE"
);
},
{
closed = 1;
nodes = (
"550 202 LINE",
"690 202 LINE",
"690 187 LINE SMOOTH",
"690 141 OFFCURVE",
"734 126 OFFCURVE",
"767 126 CURVE SMOOTH",
"802 126 OFFCURVE",
"848 136 OFFCURVE",
"848 185 CURVE SMOOTH",
"848 202 LINE",
"987 202 LINE",
"987 181 LINE SMOOTH",
"987 56 OFFCURVE",
"885 -6 OFFCURVE",
"768 -6 CURVE SMOOTH",
"623 -6 OFFCURVE",
"550 69 OFFCURVE",
"550 164 CURVE SMOOTH"
);
},
{
closed = 1;
nodes = (
"496 793 LINE",
"641 755 LINE",
"396 433 LINE",
"290 522 LINE"
);
}
);
width = 1017;
}
);
unicode = 0DAB;
},
{
glyphname = si_Tta;
lastChange = "2017-01-29 15:47:48 +0000";
layers = (
{
layerId = "DC4431BF-9234-4C16-9154-22D387E42D10";
paths = (
{
closed = 1;
nodes = (
"30 344 OFFCURVE",
"45 474 OFFCURVE",
"241 474 CURVE",
"241 336 LINE",
"201 336 OFFCURVE",
"168 322 OFFCURVE",
"168 262 CURVE SMOOTH",
"168 222 LINE SMOOTH",
"168 183 OFFCURVE",
"189 135 OFFCURVE",
"241 135 CURVE",
"241 -5 LINE",
"97 -5 OFFCURVE",
"30 117 OFFCURVE",
"30 208 CURVE SMOOTH",
"30 262 LINE SMOOTH"
);
},
{
closed = 1;
nodes = (
"297 135 LINE",
"347 135 OFFCURVE",
"388 149 OFFCURVE",
"388 248 CURVE SMOOTH",
"388 508 LINE SMOOTH",
"388 603 OFFCURVE",
"347 616 OFFCURVE",
"297 616 CURVE",
"297 755 LINE",
"456 755 OFFCURVE",
"528 678 OFFCURVE",
"528 520 CURVE SMOOTH",
"528 237 LINE SMOOTH",
"528 138 OFFCURVE",
"493 -5 OFFCURVE",
"297 -5 CURVE"
);
},
{
closed = 1;
nodes = (
"30 672 OFFCURVE",
"137 755 OFFCURVE",
"241 755 CURVE",
"241 617 LINE",
"203 617 OFFCURVE",
"167 596 OFFCURVE",
"167 530 CURVE",
"30 566 LINE"
);
}
);
width = 558;
}
);
unicode = 0DA7;
userData = {
com.fontlab.hintData = {
hhints = (
{
position = -5;
width = 140;
},
{
position = 616;
width = 138;
}
);
vhints = (
{
position = 30;
width = 138;
},
{
position = 388;
width = 140;
}
);
};
};
},
{
glyphname = si_Ta;
lastChange = "2017-01-29 15:47:48 +0000";
layers = (
{
layerId = "DC4431BF-9234-4C16-9154-22D387E42D10";
paths = (
{
closed = 1;
nodes = (
"30 259 LINE",
"301 480 LINE SMOOTH",
"363 530 OFFCURVE",
"412 568 OFFCURVE",
"502 568 CURVE SMOOTH",
"624 568 OFFCURVE",
"740 485 OFFCURVE",
"740 321 CURVE SMOOTH",
"740 205 LINE SMOOTH",
"740 89 OFFCURVE",
"684 -1 OFFCURVE",
"544 -1 CURVE",
"544 142 LINE",
"596 142 OFFCURVE",
"600 181 OFFCURVE",
"600 205 CURVE SMOOTH",
"600 307 LINE SMOOTH",
"600 383 OFFCURVE",
"550 425 OFFCURVE",
"496 425 CURVE SMOOTH",
"472 425 OFFCURVE",
"447 418 OFFCURVE",
"425 401 CURVE SMOOTH",
"155 188 LINE",
"30 154 LINE"
);
},
{
closed = 1;
nodes = (
"74 249 LINE",
"88 253 OFFCURVE",
"100 255 OFFCURVE",
"111 255 CURVE SMOOTH",
"202 255 OFFCURVE",
"200 127 OFFCURVE",
"292 127 CURVE SMOOTH",
"335 127 OFFCURVE",
"373 154 OFFCURVE",
"373 194 CURVE SMOOTH",
"373 220 OFFCURVE",
"362 244 OFFCURVE",
"324 260 CURVE",
"421 338 LINE",
"493 306 OFFCURVE",
"504 236 OFFCURVE",
"504 185 CURVE SMOOTH",
"504 83 OFFCURVE",
"427 -8 OFFCURVE",
"296 -8 CURVE SMOOTH",
"234 -8 OFFCURVE",
"163 25 OFFCURVE",
"111 101 CURVE SMOOTH",
"93 127 OFFCURVE",
"79 156 OFFCURVE",
"47 156 CURVE SMOOTH",
"42 156 OFFCURVE",
"36 155 OFFCURVE",
"30 154 CURVE"
);
},
{
closed = 1;
nodes = (
"51 537 OFFCURVE",
"144 567 OFFCURVE",
"205 567 CURVE SMOOTH",
"274 567 OFFCURVE",
"337 524 OFFCURVE",
"344 507 CURVE",
"252 402 LINE",
"252 437 OFFCURVE",
"221 446 OFFCURVE",
"205 446 CURVE SMOOTH",
"171 446 OFFCURVE",
"154 423 OFFCURVE",
"154 402 CURVE",
"37 439 LINE"
);
}
);
width = 771;
}
);
unicode = 0DAD;
userData = {
com.fontlab.hintData = {
hhints = (
{
position = -8;
width = 138;
},
{
position = 435;
width = 140;
},
{
position = 446;
width = 121;
}
);
vhints = (
{
position = 632;
width = 140;
}
);
};
};
},
{
glyphname = si_Ssa;
lastChange = "2017-01-29 15:47:48 +0000";
layers = (
{
layerId = "DC4431BF-9234-4C16-9154-22D387E42D10";
paths = (
{
closed = 1;
nodes = (
"72 537 OFFCURVE",
"140 575 OFFCURVE",
"211 575 CURVE SMOOTH",
"253 575 OFFCURVE",
"296 562 OFFCURVE",
"332 536 CURVE",
"368 562 OFFCURVE",
"411 575 OFFCURVE",
"453 575 CURVE SMOOTH",
"524 575 OFFCURVE",
"592 537 OFFCURVE",
"616 460 CURVE",
"498 421 LINE",
"494 436 OFFCURVE",
"479 451 OFFCURVE",
"451 451 CURVE SMOOTH",
"436 451 OFFCURVE",
"396 443 OFFCURVE",
"396 397 CURVE",
"396 378 LINE",
"268 378 LINE",
"268 397 LINE",
"268 443 OFFCURVE",
"228 451 OFFCURVE",
"213 451 CURVE SMOOTH",
"185 451 OFFCURVE",
"170 436 OFFCURVE",
"166 421 CURVE",
"48 460 LINE"
);
},
{
closed = 1;
nodes = (
"108 -12 OFFCURVE",
"30 59 OFFCURVE",
"30 202 CURVE",
"170 202 LINE",
"170 149 OFFCURVE",
"211 123 OFFCURVE",
"274 123 CURVE SMOOTH",
"386 123 LINE SMOOTH",
"451 123 OFFCURVE",
"490 151 OFFCURVE",
"490 202 CURVE",
"630 202 LINE",
"630 64 OFFCURVE",
"547 -12 OFFCURVE",
"378 -12 CURVE SMOOTH",
"285 -12 LINE SMOOTH"
);
},
{
closed = 1;
nodes = (
"31 377 OFFCURVE",
"97 407 OFFCURVE",
"194 407 CURVE SMOOTH",
"459 407 LINE SMOOTH",
"567 407 OFFCURVE",
"630 381 OFFCURVE",
"630 251 CURVE",
"491 251 LINE",
"491 265 OFFCURVE",
"491 288 OFFCURVE",
"462 288 CURVE SMOOTH",
"205 288 LINE SMOOTH",
"172 288 OFFCURVE",
"170 264 OFFCURVE",
"170 251 CURVE",
"31 251 LINE"
);
},
{
closed = 1;
nodes = (
"244 277 OFFCURVE",
"330 345 OFFCURVE",
"392 367 CURVE",
"558 367 LINE",
"483 342 OFFCURVE",
"378 260 OFFCURVE",
"378 170 CURVE",
"244 168 LINE"
);
}
);
width = 660;
}
);
unicode = 0DC2;
},
{
glyphname = si_Sa;
lastChange = "2017-01-29 15:47:48 +0000";
layers = (
{
layerId = "DC4431BF-9234-4C16-9154-22D387E42D10";
paths = (
{
closed = 1;
nodes = (
"67 202 LINE",
"206 202 LINE",
"206 171 LINE SMOOTH",
"206 145 OFFCURVE",
"229 131 OFFCURVE",
"252 131 CURVE SMOOTH",
"275 131 OFFCURVE",
"298 145 OFFCURVE",
"298 173 CURVE SMOOTH",
"298 202 LINE",
"426 202 LINE",
"426 173 LINE SMOOTH",
"426 145 OFFCURVE",
"449 131 OFFCURVE",
"472 131 CURVE SMOOTH",
"495 131 OFFCURVE",
"518 145 OFFCURVE",
"518 171 CURVE SMOOTH",
"518 202 LINE",
"657 202 LINE",
"657 160 LINE SMOOTH",
"657 50 OFFCURVE",
"585 -8 OFFCURVE",
"475 -8 CURVE SMOOTH",
"432 -8 OFFCURVE",
"389 4 OFFCURVE",
"359 36 CURVE",
"330 4 OFFCURVE",
"291 -8 OFFCURVE",
"250 -8 CURVE SMOOTH",
"141 -8 OFFCURVE",
"67 58 OFFCURVE",
"67 160 CURVE SMOOTH"
);
},
{
closed = 1;
nodes = (
"102 537 OFFCURVE",
"170 575 OFFCURVE",
"241 575 CURVE SMOOTH",
"283 575 OFFCURVE",
"326 562 OFFCURVE",
"362 536 CURVE",
"398 562 OFFCURVE",
"441 575 OFFCURVE",
"483 575 CURVE SMOOTH",
"554 575 OFFCURVE",
"622 537 OFFCURVE",
"646 460 CURVE",
"528 421 LINE",
"524 436 OFFCURVE",
"509 451 OFFCURVE",
"481 451 CURVE SMOOTH",
"466 451 OFFCURVE",
"426 443 OFFCURVE",
"426 397 CURVE",
"426 378 LINE",
"298 378 LINE",
"298 397 LINE",
"298 443 OFFCURVE",
"258 451 OFFCURVE",
"243 451 CURVE SMOOTH",
"215 451 OFFCURVE",
"200 436 OFFCURVE",
"196 421 CURVE",
"78 460 LINE"
);
},
{
closed = 1;
nodes = (
"30 402 LINE",
"503 402 LINE SMOOTH",
"565 402 OFFCURVE",
"657 392 OFFCURVE",
"657 279 CURVE SMOOTH",
"657 251 LINE",
"518 251 LINE",
"518 259 OFFCURVE",
"516 267 OFFCURVE",
"510 273 CURVE SMOOTH",
"504 279 OFFCURVE",
"495 283 OFFCURVE",
"481 283 CURVE SMOOTH",
"246 283 LINE SMOOTH",
"230 283 OFFCURVE",
"220 278 OFFCURVE",
"214 272 CURVE SMOOTH",
"208 265 OFFCURVE",
"206 257 OFFCURVE",
"206 251 CURVE",
"67 251 LINE",
"67 254 OFFCURVE",
"67 261 OFFCURVE",
"68 268 CURVE SMOOTH",
"69 275 OFFCURVE",
"70 282 OFFCURVE",
"71 283 CURVE",
"30 283 LINE"
);
}
);
width = 687;
}
);
unicode = 0DC3;
},
{
glyphname = si_Va;
lastChange = "2017-01-29 15:47:48 +0000";
layers = (
{
anchors = (
{
name = si_rakar;
position = "{303, -6}";
}
);
layerId = "DC4431BF-9234-4C16-9154-22D387E42D10";
paths = (
{
closed = 1;
nodes = (
"120 -5 OFFCURVE",
"33 87 OFFCURVE",
"33 192 CURVE SMOOTH",
"33 241 OFFCURVE",
"34 291 OFFCURVE",
"91 333 CURVE SMOOTH",
"124 357 OFFCURVE",
"159 369 OFFCURVE",
"211 369 CURVE",
"211 388 OFFCURVE",
"194 399 OFFCURVE",
"170 399 CURVE SMOOTH",
"153 399 OFFCURVE",
"133 393 OFFCURVE",
"129 375 CURVE",
"30 401 LINE",
"55 480 OFFCURVE",
"116 502 OFFCURVE",
"170 502 CURVE SMOOTH",
"252 502 OFFCURVE",
"314 450 OFFCURVE",
"314 369 CURVE SMOOTH",
"314 252 LINE",
"230 252 LINE SMOOTH",
"200 252 OFFCURVE",
"171 242 OFFCURVE",
"171 195 CURVE SMOOTH",
"171 166 OFFCURVE",
"194 135 OFFCURVE",
"247 135 CURVE",
"247 -5 LINE"
);
},
{
closed = 1;
nodes = (
"303 135 LINE",
"345 135 OFFCURVE",
"398 149 OFFCURVE",
"398 250 CURVE SMOOTH",
"398 498 LINE SMOOTH",
"398 577 OFFCURVE",
"381 616 OFFCURVE",
"303 616 CURVE",
"303 755 LINE",
"437 755 OFFCURVE",
"538 700 OFFCURVE",
"538 520 CURVE SMOOTH",
"538 250 LINE SMOOTH",
"538 78 OFFCURVE",
"458 -5 OFFCURVE",
"303 -5 CURVE"
);
},
{
closed = 1;
nodes = (
"30 672 OFFCURVE",
"140 755 OFFCURVE",
"247 755 CURVE",
"247 617 LINE",
"207 617 OFFCURVE",
"167 596 OFFCURVE",
"167 530 CURVE",
"30 566 LINE"
);
}
);
width = 568;
}
);
unicode = 0DC0;
userData = {
com.fontlab.hintData = {
hhints = (
{
position = -5;
width = 140;
},
{
position = 399;
width = 102;
},
{
position = 616;
width = 138;
}
);
vhints = (
{
position = 33;
width = 138;
},
{
position = 398;
width = 140;
}
);
};
};
},
{
glyphname = si_Ya;
lastChange = "2017-01-29 15:47:48 +0000";
layers = (
{
layerId = "DC4431BF-9234-4C16-9154-22D387E42D10";
paths = (
{
closed = 1;
nodes = (
"30 202 LINE",
"169 202 LINE",
"169 171 LINE SMOOTH",
"169 145 OFFCURVE",
"192 131 OFFCURVE",
"215 131 CURVE SMOOTH",
"238 131 OFFCURVE",
"261 145 OFFCURVE",
"261 173 CURVE SMOOTH",
"261 202 LINE",
"389 202 LINE",
"389 173 LINE SMOOTH",
"389 145 OFFCURVE",
"412 131 OFFCURVE",
"435 131 CURVE SMOOTH",
"458 131 OFFCURVE",
"481 145 OFFCURVE",
"481 171 CURVE SMOOTH",
"481 202 LINE",
"620 202 LINE",
"620 160 LINE SMOOTH",
"620 50 OFFCURVE",
"548 -8 OFFCURVE",
"438 -8 CURVE SMOOTH",
"395 -8 OFFCURVE",
"352 4 OFFCURVE",
"322 36 CURVE",
"293 4 OFFCURVE",
"254 -8 OFFCURVE",
"213 -8 CURVE SMOOTH",
"104 -8 OFFCURVE",
"30 58 OFFCURVE",
"30 160 CURVE SMOOTH"
);
},
{
closed = 1;
nodes = (
"293 366 LINE SMOOTH",
"293 490 OFFCURVE",
"341 566 OFFCURVE",
"467 566 CURVE SMOOTH",
"523 566 OFFCURVE",
"589 543 OFFCURVE",
"625 458 CURVE",
"515 421 LINE",
"503 442 OFFCURVE",
"485 446 OFFCURVE",
"467 446 CURVE SMOOTH",
"443 446 OFFCURVE",
"423 433 OFFCURVE",
"423 402 CURVE",
"479 402 LINE SMOOTH",
"587 402 OFFCURVE",
"620 339 OFFCURVE",
"620 269 CURVE SMOOTH",
"620 251 LINE",
"480 251 LINE",
"480 254 LINE SMOOTH",
"480 268 OFFCURVE",
"478 283 OFFCURVE",
"437 283 CURVE SMOOTH",
"293 283 LINE"
);
},
{
closed = 1;
nodes = (
"30 340 LINE SMOOTH",
"30 493 OFFCURVE",
"132 563 OFFCURVE",
"248 563 CURVE SMOOTH",
"265 563 LINE",
"265 433 LINE",
"245 433 LINE SMOOTH",
"191 433 OFFCURVE",
"169 390 OFFCURVE",
"169 317 CURVE SMOOTH",
"169 251 LINE",
"30 251 LINE"
);
}
);
width = 655;
}
);
unicode = 0DBA;
},
{
glyphname = A;
lastChange = "2017-01-29 15:49:53 +0000";
layers = (
{
layerId = "DC4431BF-9234-4C16-9154-22D387E42D10";
paths = (
{
closed = 1;
nodes = (
"161 582 LINE",
"176 582 LINE",
"236 302 LINE",
"170 0 LINE",
"32 0 LINE"
);
},
{
closed = 1;
nodes = (
"275 223 LINE",
"311 223 LINE",
"205 700 LINE",
"344 700 LINE",
"509 0 LINE",
"369 0 LINE",
"349 85 LINE",
"245 85 LINE"
);
}
);
width = 528;
}
);
unicode = 0041;
},
{
glyphname = Aring;
lastChange = "2017-01-29 15:49:53 +0000";
layers = (
{
layerId = "DC4431BF-9234-4C16-9154-22D387E42D10";
paths = (
{
closed = 1;
nodes = (
"155 582 LINE",
"170 582 LINE",
"230 302 LINE",
"164 0 LINE",
"26 0 LINE"
);
},
{
closed = 1;
nodes = (
"269 223 LINE",
"305 223 LINE",
"200 698 LINE",
"183 715 OFFCURVE",
"173 739 OFFCURVE",
"173 765 CURVE SMOOTH",
"173 818 OFFCURVE",
"216 861 OFFCURVE",
"269 861 CURVE SMOOTH",
"322 861 OFFCURVE",
"365 818 OFFCURVE",
"365 765 CURVE SMOOTH",
"365 739 OFFCURVE",
"356 716 OFFCURVE",
"339 699 CURVE",
"490 0 LINE",
"353 0 LINE",
"333 85 LINE",
"239 85 LINE"
);
},
{
closed = 1;
nodes = (
"237 747 OFFCURVE",
"251 733 OFFCURVE",
"269 733 CURVE SMOOTH",
"287 733 OFFCURVE",
"301 747 OFFCURVE",
"301 765 CURVE SMOOTH",
"301 783 OFFCURVE",
"287 797 OFFCURVE",
"269 797 CURVE SMOOTH",
"251 797 OFFCURVE",
"237 783 OFFCURVE",
"237 765 CURVE SMOOTH"
);
}
);
width = 516;
}
);
unicode = 00C5;
},
{
glyphname = AE;
lastChange = "2017-01-29 15:49:53 +0000";
layers = (
{
layerId = "DC4431BF-9234-4C16-9154-22D387E42D10";
paths = (
{
closed = 1;
nodes = (
"206 700 LINE",
"701 700 LINE",
"701 560 LINE",
"478 560 LINE",
"478 418 LINE",
"607 418 LINE",
"607 277 LINE",
"478 277 LINE",
"478 141 LINE",
"701 141 LINE",
"701 0 LINE",
"337 0 LINE",
"337 148 LINE",
"272 148 LINE",
"301 268 LINE",
"337 268 LINE",
"337 560 LINE",
"320 560 LINE",
"182 0 LINE",
"26 0 LINE"
);
}
);
width = 727;
}
);
unicode = 00C6;
},
{
glyphname = B;
lastChange = "2017-01-29 15:49:53 +0000";
layers = (
{
layerId = "DC4431BF-9234-4C16-9154-22D387E42D10";
paths = (
{
closed = 1;
nodes = (
"30 700 LINE",
"170 700 LINE",
"170 0 LINE",
"30 0 LINE"
);
},
{
closed = 1;
nodes = (
"225 123 LINE",
"230 123 LINE SMOOTH",
"288 123 OFFCURVE",
"317 165 OFFCURVE",
"317 206 CURVE SMOOTH",
"317 248 OFFCURVE",
"288 289 OFFCURVE",
"233 289 CURVE SMOOTH",
"225 289 LINE",
"225 411 LINE",
"233 411 LINE SMOOTH",
"288 411 OFFCURVE",
"317 452 OFFCURVE",
"317 494 CURVE SMOOTH",
"317 535 OFFCURVE",
"288 577 OFFCURVE",
"230 577 CURVE SMOOTH",
"225 577 LINE",
"225 700 LINE",
"249 700 LINE SMOOTH",
"395 700 OFFCURVE",
"457 600 OFFCURVE",
"457 504 CURVE SMOOTH",
"457 444 OFFCURVE",
"433 383 OFFCURVE",
"389 350 CURVE",
"433 317 OFFCURVE",
"457 256 OFFCURVE",
"457 196 CURVE SMOOTH",
"457 100 OFFCURVE",
"395 0 OFFCURVE",
"249 0 CURVE SMOOTH",
"225 0 LINE"
);
}
);
width = 488;
}
);
unicode = 0042;
},
{
glyphname = C;
lastChange = "2017-01-29 15:49:53 +0000";
layers = (
{
layerId = "DC4431BF-9234-4C16-9154-22D387E42D10";
paths = (
{
closed = 1;
nodes = (
"38 518 LINE",
"38 578 OFFCURVE",
"92 705 OFFCURVE",
"235 705 CURVE",
"235 564 LINE",
"189 563 OFFCURVE",
"179 523 OFFCURVE",
"179 518 CURVE",
"179 181 LINE",
"179 176 OFFCURVE",
"189 136 OFFCURVE",
"235 136 CURVE",
"235 -5 LINE",
"92 -5 OFFCURVE",
"38 121 OFFCURVE",
"38 181 CURVE"
);
},
{
closed = 1;
nodes = (
"289 136 LINE",
"289 136 OFFCURVE",
"321 143 OFFCURVE",
"331 166 CURVE SMOOTH",
"336 178 OFFCURVE",
"336 189 OFFCURVE",
"336 203 CURVE SMOOTH",
"336 215 LINE",
"474 182 LINE",
"474 76 OFFCURVE",
"381 -5 OFFCURVE",
"289 -5 CURVE"
);
},
{
closed = 1;
nodes = (
"289 705 LINE",
"381 705 OFFCURVE",
"474 612 OFFCURVE",
"474 516 CURVE",
"336 480 LINE",
"336 495 LINE SMOOTH",
"336 509 OFFCURVE",
"336 520 OFFCURVE",
"331 532 CURVE SMOOTH",
"321 555 OFFCURVE",
"289 564 OFFCURVE",
"289 564 CURVE"
);
}
);
width = 494;
}
);
unicode = 0043;
},
{
glyphname = D;
lastChange = "2017-01-29 15:49:53 +0000";
layers = (
{
layerId = "DC4431BF-9234-4C16-9154-22D387E42D10";
paths = (
{
closed = 1;
nodes = (
"42 700 LINE",
"183 700 LINE",
"183 0 LINE",
"42 0 LINE"
);
},
{
closed = 1;
nodes = (
"237 141 LINE",
"243 141 OFFCURVE",
"292 149 OFFCURVE",
"293 197 CURVE SMOOTH",
"293 503 LINE",
"293 508 OFFCURVE",
"285 558 OFFCURVE",
"237 559 CURVE",
"237 700 LINE",
"380 700 OFFCURVE",
"434 566 OFFCURVE",
"434 503 CURVE",
"434 197 LINE",
"434 50 OFFCURVE",
"297 0 OFFCURVE",
"237 0 CURVE"
);
}
);
width = 472;
}
);
unicode = 0044;
},
{
glyphname = Eth;
lastChange = "2017-01-29 15:49:53 +0000";
layers = (
{
layerId = "DC4431BF-9234-4C16-9154-22D387E42D10";
paths = (
{
closed = 1;
nodes = (
"26 420 LINE",
"83 420 LINE",
"83 700 LINE",
"224 700 LINE",
"224 420 LINE",
"280 420 LINE",
"280 292 LINE",
"224 292 LINE",
"224 0 LINE",
"83 0 LINE",
"83 292 LINE",
"26 292 LINE"
);
},
{
closed = 1;
nodes = (
"278 141 LINE",
"284 141 OFFCURVE",
"333 149 OFFCURVE",
"334 197 CURVE SMOOTH",
"334 503 LINE SMOOTH",
"334 508 OFFCURVE",
"326 558 OFFCURVE",
"278 559 CURVE",
"278 700 LINE",
"421 700 OFFCURVE",
"475 566 OFFCURVE",
"475 503 CURVE SMOOTH",
"475 197 LINE SMOOTH",
"475 50 OFFCURVE",
"338 0 OFFCURVE",
"278 0 CURVE"
);
}
);
width = 501;
}
);
unicode = 00D0;
},
{
glyphname = E;
lastChange = "2017-01-29 15:49:53 +0000";
layers = (
{
layerId = "DC4431BF-9234-4C16-9154-22D387E42D10";
paths = (
{
closed = 1;
nodes = (
"42 700 LINE",
"406 700 LINE",
"406 560 LINE",
"183 560 LINE",
"183 418 LINE",
"312 418 LINE",
"312 277 LINE",
"183 277 LINE",
"183 141 LINE",
"406 141 LINE",
"406 0 LINE",
"42 0 LINE"
);
}
);
width = 444;
}
);
unicode = 0045;
},
{
glyphname = F;
lastChange = "2017-01-29 15:49:53 +0000";
layers = (
{
layerId = "DC4431BF-9234-4C16-9154-22D387E42D10";
paths = (
{
closed = 1;
nodes = (
"42 700 LINE",
"406 700 LINE",
"406 560 LINE",
"183 560 LINE",
"183 418 LINE",
"312 418 LINE",
"312 277 LINE",
"183 277 LINE",
"183 1 LINE",
"42 1 LINE"
);
}
);
width = 432;
}
);
unicode = 0046;
},
{
glyphname = G;
lastChange = "2017-01-29 15:49:53 +0000";
layers = (
{
layerId = "DC4431BF-9234-4C16-9154-22D387E42D10";
paths = (
{
closed = 1;
nodes = (
"38 524 LINE",
"46 589 OFFCURVE",
"102 705 OFFCURVE",
"234 705 CURVE",
"234 564 LINE",
"188 563 OFFCURVE",
"178 523 OFFCURVE",
"179 508 CURVE",
"179 192 LINE SMOOTH",
"180 146 OFFCURVE",
"229 136 OFFCURVE",
"234 136 CURVE",
"234 -5 LINE",
"174 -5 OFFCURVE",
"38 48 OFFCURVE",
"38 192 CURVE"
);
},
{
closed = 1;
nodes = (
"288 136 LINE",
"294 136 OFFCURVE",
"331 155 OFFCURVE",
"331 190 CURVE SMOOTH",
"331 223 LINE",
"288 223 LINE",
"288 353 LINE",
"473 353 LINE",
"473 176 LINE SMOOTH",
"473 95 OFFCURVE",
"370 -4 OFFCURVE",
"288 -5 CURVE"
);
},
{
closed = 1;
nodes = (
"288 705 LINE",
"381 705 OFFCURVE",
"473 612 OFFCURVE",
"473 516 CURVE",
"335 465 LINE",
"335 504 LINE SMOOTH",
"335 545 OFFCURVE",
"310 563 OFFCURVE",
"288 564 CURVE"
);
}
);
width = 507;
}
);
unicode = 0047;
},
{
glyphname = H;
lastChange = "2017-01-29 15:49:53 +0000";
layers = (
{
layerId = "DC4431BF-9234-4C16-9154-22D387E42D10";
paths = (
{
closed = 1;
nodes = (
"40 700 LINE",
"181 700 LINE",
"181 421 LINE",
"220 421 LINE",
"220 283 LINE",
"181 283 LINE",
"181 0 LINE",
"40 0 LINE"
);
},
{
closed = 1;
nodes = (
"275 421 LINE",
"314 421 LINE",
"314 700 LINE",
"455 700 LINE",
"455 0 LINE",
"314 0 LINE",
"314 283 LINE",
"275 283 LINE"
);
}
);
width = 495;
}
);
unicode = 0048;
},
{
glyphname = I;
lastChange = "2017-01-29 15:49:53 +0000";
layers = (
{
layerId = "DC4431BF-9234-4C16-9154-22D387E42D10";
paths = (
{
closed = 1;
nodes = (
"42 700 LINE",
"183 700 LINE",
"183 0 LINE",
"42 0 LINE"
);
}
);
width = 225;
}
);
unicode = 0049;
},
{
glyphname = J;
lastChange = "2017-01-29 15:49:53 +0000";
layers = (
{
layerId = "DC4431BF-9234-4C16-9154-22D387E42D10";
paths = (
{
closed = 1;
nodes = (
"15 242 LINE",
"156 242 LINE",
"156 193 LINE SMOOTH",
"157 147 OFFCURVE",
"197 137 OFFCURVE",
"202 137 CURVE",
"202 -5 LINE",
"142 -5 OFFCURVE",
"15 54 OFFCURVE",
"15 193 CURVE"
);
},
{
closed = 1;
nodes = (
"256 137 LINE",
"261 137 OFFCURVE",
"311 147 OFFCURVE",
"312 193 CURVE SMOOTH",
"312 700 LINE",
"452 700 LINE",
"452 193 LINE",
"452 49 OFFCURVE",
"316 -5 OFFCURVE",
"256 -5 CURVE"
);
}
);
width = 484;
}
);
unicode = 004A;
},
{
glyphname = K;
lastChange = "2017-01-29 15:49:53 +0000";
layers = (
{
layerId = "DC4431BF-9234-4C16-9154-22D387E42D10";
paths = (
{
closed = 1;
nodes = (
"42 700 LINE",
"183 700 LINE",
"183 0 LINE",
"42 0 LINE"
);
},
{
closed = 1;
nodes = (
"330 700 LINE",
"469 700 LINE",
"363 341 LINE",
"473 0 LINE",
"335 0 LINE",
"223 341 LINE"
);
}
);
width = 488;
}
);
unicode = 004B;
},
{
glyphname = L;
lastChange = "2017-01-29 15:49:53 +0000";
layers = (
{
layerId = "DC4431BF-9234-4C16-9154-22D387E42D10";
paths = (
{
closed = 1;
nodes = (
"42 700 LINE",
"183 700 LINE",
"183 140 LINE",
"418 140 LINE",
"418 0 LINE",
"42 0 LINE"
);
}
);
width = 433;
}
);
unicode = 004C;
},
{
glyphname = Lslash;
lastChange = "2017-01-29 15:49:53 +0000";
layers = (
{
layerId = "DC4431BF-9234-4C16-9154-22D387E42D10";
paths = (
{
closed = 1;
nodes = (
"129 382 LINE",
"129 700 LINE",
"270 700 LINE",
"270 492 LINE",
"348 553 LINE",
"420 460 LINE",
"270 343 LINE",
"270 139 LINE",
"505 139 LINE",
"505 0 LINE",
"129 0 LINE",
"129 233 LINE",
"98 209 LINE",
"26 302 LINE"
);
}
);
width = 530;
}
);
unicode = 0141;
},
{
glyphname = M;
lastChange = "2017-01-29 15:49:53 +0000";
layers = (
{
layerId = "DC4431BF-9234-4C16-9154-22D387E42D10";
paths = (
{
closed = 1;
nodes = (
"42 444 LINE",
"51 444 LINE",
"183 127 LINE",
"183 0 LINE",
"42 0 LINE"
);
},
{
closed = 1;
nodes = (
"42 700 LINE",
"152 700 LINE",
"343 237 LINE",
"449 476 LINE",
"459 476 LINE",
"459 151 LINE",
"392 0 LINE",
"295 0 LINE",
"42 608 LINE"
);
},
{
closed = 1;
nodes = (
"513 700 LINE",
"654 700 LINE",
"654 0 LINE",
"513 0 LINE"
);
}
);
width = 696;
}
);
unicode = 004D;
},
{
glyphname = N;
lastChange = "2017-01-29 15:49:53 +0000";
layers = (
{
layerId = "DC4431BF-9234-4C16-9154-22D387E42D10";
paths = (
{
closed = 1;
nodes = (
"42 492 LINE",
"50 492 LINE",
"183 278 LINE",
"183 0 LINE",
"42 0 LINE"
);
},
{
closed = 1;
nodes = (
"42 700 LINE",
"157 700 LINE",
"487 168 LINE",
"487 0 LINE",
"420 0 LINE",
"42 608 LINE"
);
},
{
closed = 1;
nodes = (
"346 700 LINE",
"487 700 LINE",
"487 284 LINE",
"479 284 LINE",
"346 498 LINE"
);
}
);
width = 529;
}
);
unicode = 004E;
},
{
glyphname = O;
lastChange = "2017-01-29 15:49:53 +0000";
layers = (
{
layerId = "DC4431BF-9234-4C16-9154-22D387E42D10";
paths = (
{
closed = 1;
nodes = (
"38 524 LINE SMOOTH",
"38 584 OFFCURVE",
"103 705 OFFCURVE",
"235 705 CURVE",
"235 564 LINE",
"189 563 OFFCURVE",
"179 513 OFFCURVE",
"179 508 CURVE SMOOTH",
"179 195 LINE SMOOTH",
"179 149 OFFCURVE",
"229 137 OFFCURVE",
"234 137 CURVE",
"234 -5 LINE",
"174 -5 OFFCURVE",
"38 51 OFFCURVE",
"38 195 CURVE SMOOTH"
);
},
{
closed = 1;
nodes = (
"289 137 LINE",
"294 137 OFFCURVE",
"344 149 OFFCURVE",
"345 195 CURVE SMOOTH",
"345 508 LINE SMOOTH",
"345 513 OFFCURVE",
"335 563 OFFCURVE",
"289 564 CURVE",
"289 705 LINE",
"420 705 OFFCURVE",
"486 583 OFFCURVE",
"486 524 CURVE SMOOTH",
"486 195 LINE SMOOTH",
"486 51 OFFCURVE",
"349 -5 OFFCURVE",
"289 -5 CURVE"
);
}
);
width = 524;
}
);
unicode = 004F;
},
{
glyphname = Oslash;
lastChange = "2017-01-29 15:49:53 +0000";
layers = (
{
layerId = "DC4431BF-9234-4C16-9154-22D387E42D10";
paths = (
{
closed = 1;
nodes = (
"108 228 LINE",
"108 524 LINE SMOOTH",
"108 584 OFFCURVE",
"173 705 OFFCURVE",
"305 705 CURVE",
"305 564 LINE",
"259 563 OFFCURVE",
"249 520 OFFCURVE",
"249 502 CURVE SMOOTH",
"249 356 LINE",
"415 505 LINE",
"415 523 OFFCURVE",
"407 563 OFFCURVE",
"359 564 CURVE",
"359 705 LINE",
"441 705 OFFCURVE",
"497 658 OFFCURVE",
"528 607 CURVE",
"584 658 LINE",
"662 570 LINE",
"556 474 LINE",
"556 195 LINE SMOOTH",
"556 51 OFFCURVE",
"419 -5 OFFCURVE",
"359 -5 CURVE",
"359 137 LINE",
"364 137 OFFCURVE",
"414 149 OFFCURVE",
"415 195 CURVE SMOOTH",
"415 347 LINE",
"249 197 LINE",
"249 150 OFFCURVE",
"298 137 OFFCURVE",
"304 137 CURVE",
"304 -5 LINE",
"261 -5 OFFCURVE",
"178 24 OFFCURVE",
"135 94 CURVE",
"78 43 LINE",
"0 131 LINE"
);
}
);
width = 662;
}
);
unicode = 00D8;
},
{
glyphname = OE;
lastChange = "2017-01-29 15:49:53 +0000";
layers = (
{
layerId = "DC4431BF-9234-4C16-9154-22D387E42D10";
paths = (
{
closed = 1;
nodes = (
"26 519 LINE SMOOTH",
"26 579 OFFCURVE",
"91 700 OFFCURVE",
"223 700 CURVE",
"223 559 LINE",
"177 558 OFFCURVE",
"167 508 OFFCURVE",
"167 503 CURVE SMOOTH",
"167 200 LINE SMOOTH",
"167 154 OFFCURVE",
"217 142 OFFCURVE",
"222 142 CURVE",
"222 0 LINE",
"162 0 OFFCURVE",
"26 56 OFFCURVE",
"26 200 CURVE SMOOTH"
);
},
{
closed = 1;
nodes = (
"277 142 LINE",
"334 142 LINE",
"334 559 LINE",
"277 559 LINE",
"277 700 LINE",
"698 700 LINE",
"698 560 LINE",
"475 560 LINE",
"475 418 LINE",
"604 418 LINE",
"604 277 LINE",
"475 277 LINE",
"475 141 LINE",
"698 141 LINE",
"698 0 LINE",
"277 0 LINE"
);
}
);
width = 724;
}
);
unicode = 0152;
},
{
glyphname = P;
lastChange = "2017-01-29 15:49:53 +0000";
layers = (
{
layerId = "DC4431BF-9234-4C16-9154-22D387E42D10";
paths = (
{
closed = 1;
nodes = (
"42 700 LINE",
"183 700 LINE",
"183 0 LINE",
"42 0 LINE"
);
},
{
closed = 1;
nodes = (
"237 457 LINE",
"270 457 LINE SMOOTH",
"277 457 OFFCURVE",
"321 458 OFFCURVE",
"321 508 CURVE SMOOTH",
"321 559 OFFCURVE",
"279 561 OFFCURVE",
"270 561 CURVE SMOOTH",
"237 561 LINE",
"237 700 LINE",
"250 700 OFFCURVE",
"262 701 OFFCURVE",
"274 700 CURVE",
"421 700 OFFCURVE",
"464 618 OFFCURVE",
"464 512 CURVE SMOOTH",
"464 381 OFFCURVE",
"416 317 OFFCURVE",
"274 319 CURVE",
"262 318 OFFCURVE",
"250 319 OFFCURVE",
"237 319 CURVE"
);
}
);
width = 479;
}
);
unicode = 0050;
},
{
glyphname = Thorn;
lastChange = "2017-01-29 15:49:53 +0000";
layers = (
{
layerId = "DC4431BF-9234-4C16-9154-22D387E42D10";
paths = (
{
closed = 1;
nodes = (
"26 700 LINE",
"167 700 LINE",
"167 0 LINE",
"26 0 LINE"
);
},
{
closed = 1;
nodes = (
"221 347 LINE",
"254 347 LINE SMOOTH",
"261 347 OFFCURVE",
"305 348 OFFCURVE",
"305 398 CURVE SMOOTH",
"305 449 OFFCURVE",
"263 451 OFFCURVE",
"254 451 CURVE SMOOTH",
"221 451 LINE",
"221 590 LINE",
"402 590 OFFCURVE",
"448 516 OFFCURVE",
"448 402 CURVE SMOOTH",
"448 259 OFFCURVE",
"378 208 OFFCURVE",
"221 208 CURVE"
);
}
);
width = 474;
}
);
unicode = 00DE;
},
{
glyphname = Q;
lastChange = "2017-01-29 15:49:53 +0000";
layers = (
{
layerId = "DC4431BF-9234-4C16-9154-22D387E42D10";
paths = (
{
closed = 1;
nodes = (
"38 524 LINE SMOOTH",
"38 584 OFFCURVE",
"103 705 OFFCURVE",
"235 705 CURVE",
"235 564 LINE",
"189 563 OFFCURVE",
"179 513 OFFCURVE",
"179 508 CURVE SMOOTH",
"179 195 LINE SMOOTH",
"179 149 OFFCURVE",
"229 137 OFFCURVE",
"234 137 CURVE",
"234 -5 LINE",
"174 -5 OFFCURVE",
"38 51 OFFCURVE",
"38 195 CURVE SMOOTH"
);
},
{
closed = 1;
nodes = (
"289 137 LINE",
"294 137 OFFCURVE",
"344 149 OFFCURVE",
"345 195 CURVE SMOOTH",
"345 508 LINE SMOOTH",
"345 513 OFFCURVE",
"335 563 OFFCURVE",
"289 564 CURVE",
"289 705 LINE",
"420 705 OFFCURVE",
"486 583 OFFCURVE",
"486 524 CURVE SMOOTH",
"486 195 LINE SMOOTH",
"486 127 OFFCURVE",
"456 79 OFFCURVE",
"417 47 CURVE",
"472 -32 LINE",
"360 -107 LINE",
"289 -5 LINE"
);
}
);
width = 526;
}
);
unicode = 0051;
},
{
glyphname = R;
lastChange = "2017-01-29 15:49:53 +0000";
layers = (
{
layerId = "DC4431BF-9234-4C16-9154-22D387E42D10";
paths = (
{
closed = 1;
nodes = (
"42 700 LINE",
"183 700 LINE",
"183 0 LINE",
"42 0 LINE"
);
},
{
closed = 1;
nodes = (
"237 411 LINE",
"250 411 LINE SMOOTH",
"310 411 OFFCURVE",
"336 450 OFFCURVE",
"336 490 CURVE SMOOTH",
"336 538 OFFCURVE",
"299 567 OFFCURVE",
"250 567 CURVE SMOOTH",
"237 567 LINE",
"237 700 LINE",
"259 700 LINE",
"398 698 OFFCURVE",
"468 613 OFFCURVE",
"468 510 CURVE SMOOTH",
"468 436 OFFCURVE",
"441 385 OFFCURVE",
"400 352 CURVE",
"441 326 OFFCURVE",
"462 266 OFFCURVE",
"466 217 CURVE SMOOTH",
"483 0 LINE",
"353 0 LINE",
"338 178 LINE SMOOTH",
"331 253 OFFCURVE",
"310 285 OFFCURVE",
"248 286 CURVE",
"237 286 LINE"
);
}
);
width = 505;
}
);
unicode = 0052;
},
{
glyphname = S;
lastChange = "2017-01-29 15:49:53 +0000";
layers = (
{
layerId = "DC4431BF-9234-4C16-9154-22D387E42D10";
paths = (
{
closed = 1;
nodes = (
"147 203 LINE",
"147 147 OFFCURVE",
"203 127 OFFCURVE",
"203 127 CURVE",
"203 -3 LINE",
"94 -3 OFFCURVE",
"20 103 OFFCURVE",
"20 158 CURVE"
);
},
{
closed = 1;
nodes = (
"28 647 OFFCURVE",
"152 699 OFFCURVE",
"203 700 CURVE",
"203 568 LINE",
"182 562 OFFCURVE",
"162 537 OFFCURVE",
"162 513 CURVE SMOOTH",
"162 446 OFFCURVE",
"266 434 OFFCURVE",
"333 394 CURVE SMOOTH",
"394 358 OFFCURVE",
"461 311 OFFCURVE",
"461 209 CURVE SMOOTH",
"461 96 OFFCURVE",
"366 -3 OFFCURVE",
"258 -3 CURVE",
"258 127 LINE",
"282 130 OFFCURVE",
"320 150 OFFCURVE",
"320 203 CURVE SMOOTH",
"320 278 OFFCURVE",
"211 294 OFFCURVE",
"151 323 CURVE SMOOTH",
"80 357 OFFCURVE",
"28 403 OFFCURVE",
"28 508 CURVE SMOOTH"
);
},
{
closed = 1;
nodes = (
"258 700 LINE",
"364 700 OFFCURVE",
"433 602 OFFCURVE",
"433 553 CURVE",
"303 510 LINE",
"303 557 OFFCURVE",
"258 568 OFFCURVE",
"258 568 CURVE"
);
}
);
width = 481;
}
);
unicode = 0053;
},
{
glyphname = T;
lastChange = "2017-01-29 15:49:53 +0000";
layers = (
{
layerId = "DC4431BF-9234-4C16-9154-22D387E42D10";
paths = (
{
closed = 1;
nodes = (
"15 700 LINE",
"448 700 LINE",
"448 562 LINE",
"302 562 LINE",
"302 0 LINE",
"161 0 LINE",
"161 562 LINE",
"15 562 LINE"
);
}
);
width = 463;
}
);
unicode = 0054;
},
{
glyphname = U;
lastChange = "2017-01-29 15:49:53 +0000";
layers = (
{
layerId = "DC4431BF-9234-4C16-9154-22D387E42D10";
paths = (
{
closed = 1;
nodes = (
"32 700 LINE",
"173 700 LINE",
"173 193 LINE",
"174 147 OFFCURVE",
"224 137 OFFCURVE",
"229 137 CURVE",
"229 -5 LINE",
"169 -5 OFFCURVE",
"32 49 OFFCURVE",
"32 193 CURVE SMOOTH"
);
},
{
closed = 1;
nodes = (
"283 137 LINE",
"288 137 OFFCURVE",
"338 147 OFFCURVE",
"339 193 CURVE",
"339 700 LINE",
"479 700 LINE",
"479 193 LINE SMOOTH",
"479 48 OFFCURVE",
"344 -5 OFFCURVE",
"283 -5 CURVE"
);
}
);
width = 512;
}
);
unicode = 0055;
},
{
glyphname = V;
lastChange = "2017-01-29 15:49:53 +0000";
layers = (
{
layerId = "DC4431BF-9234-4C16-9154-22D387E42D10";
paths = (
{
closed = 1;
nodes = (
"152 700 LINE",
"311 158 LINE",
"258 0 LINE",
"211 0 LINE",
"8 700 LINE"
);
},
{
closed = 1;
nodes = (
"320 700 LINE",
"464 700 LINE",
"424 569 OFFCURVE",
"383 430 OFFCURVE",
"341 290 CURVE",
"331 290 LINE",
"265 514 LINE"
);
}
);
width = 472;
}
);
unicode = 0056;
},
{
glyphname = W;
lastChange = "2017-01-29 15:49:53 +0000";
layers = (
{
layerId = "DC4431BF-9234-4C16-9154-22D387E42D10";
paths = (
{
closed = 1;
nodes = (
"154 700 LINE",
"313 158 LINE",
"260 0 LINE",
"213 0 LINE",
"10 700 LINE"
);
},
{
closed = 1;
nodes = (
"322 700 LINE",
"466 700 LINE",
"426 569 OFFCURVE",
"385 430 OFFCURVE",
"343 290 CURVE",
"333 290 LINE",
"267 514 LINE"
);
},
{
closed = 1;
nodes = (
"466 700 LINE",
"624 158 LINE",
"572 0 LINE",
"525 0 LINE",
"322 700 LINE"
);
},
{
closed = 1;
nodes = (
"638 700 LINE",
"782 700 LINE",
"659 290 LINE",
"649 290 LINE",
"583 514 LINE"
);
}
);
width = 792;
}
);
unicode = 0057;
},
{
glyphname = X;
lastChange = "2017-01-29 15:49:53 +0000";
layers = (
{
layerId = "DC4431BF-9234-4C16-9154-22D387E42D10";
paths = (
{
closed = 1;
nodes = (
"151 361 LINE",
"27 700 LINE",
"164 700 LINE",
"221 548 LINE",
"278 700 LINE",
"415 700 LINE",
"291 361 LINE",
"427 0 LINE",
"282 0 LINE",
"221 167 LINE",
"160 0 LINE",
"15 0 LINE"
);
}
);
width = 442;
}
);
unicode = 0058;
},
{
glyphname = Y;
lastChange = "2017-01-29 15:49:53 +0000";
layers = (
{
layerId = "DC4431BF-9234-4C16-9154-22D387E42D10";
paths = (
{
closed = 1;
nodes = (
"159 700 LINE",
"289 253 LINE",
"289 0 LINE",
"143 0 LINE",
"143 252 LINE",
"12 700 LINE"
);
},
{
closed = 1;
nodes = (
"294 700 LINE",
"439 700 LINE",
"330 331 LINE",
"321 331 LINE",
"255 565 LINE"
);
}
);
width = 451;
}
);
unicode = 0059;
},
{
glyphname = Z;
lastChange = "2017-01-29 15:49:53 +0000";
layers = (
{
layerId = "DC4431BF-9234-4C16-9154-22D387E42D10";
paths = (
{
closed = 1;
nodes = (
"30 141 LINE",
"240 560 LINE",
"30 560 LINE",
"30 700 LINE",
"396 700 LINE",
"396 563 LINE",
"186 144 LINE",
"396 144 LINE",
"396 0 LINE",
"30 0 LINE"
);
}
);
width = 426;
}
);
unicode = 005A;
},
{
glyphname = a;
lastChange = "2017-01-29 15:49:53 +0000";
layers = (
{
layerId = "DC4431BF-9234-4C16-9154-22D387E42D10";
paths = (
{
closed = 1;
nodes = (
"25 183 LINE SMOOTH",
"25 219 OFFCURVE",
"32 255 OFFCURVE",
"79 282 CURVE SMOOTH",
"126 309 OFFCURVE",
"291 341 OFFCURVE",
"291 385 CURVE SMOOTH",
"291 393 OFFCURVE",
"291 400 OFFCURVE",
"291 408 CURVE SMOOTH",
"291 429 OFFCURVE",
"279 446 OFFCURVE",
"247 447 CURVE",
"247 570 LINE",
"362 570 OFFCURVE",
"419 477 OFFCURVE",
"419 417 CURVE SMOOTH",
"419 156 LINE SMOOTH",
"419 148 OFFCURVE",
"422 124 OFFCURVE",
"447 124 CURVE",
"447 0 LINE",
"404 0 OFFCURVE",
"372 12 OFFCURVE",
"349 32 CURVE",
"323 11 OFFCURVE",
"290 0 OFFCURVE",
"248 0 CURVE",
"248 123 LINE",
"283 123 OFFCURVE",
"291 149 OFFCURVE",
"291 163 CURVE SMOOTH",
"291 245 LINE",
"249 220 OFFCURVE",
"164 204 OFFCURVE",
"149 196 CURVE SMOOTH",
"142 193 OFFCURVE",
"136 185 OFFCURVE",
"136 173 CURVE SMOOTH",
"136 159 LINE SMOOTH",
"136 135 OFFCURVE",
"146 123 OFFCURVE",
"194 123 CURVE",
"194 0 LINE",
"87 0 OFFCURVE",
"25 69 OFFCURVE",
"25 132 CURVE SMOOTH"
);
},
{
closed = 1;
nodes = (
"32 508 OFFCURVE",
"117 570 OFFCURVE",
"195 570 CURVE",
"195 447 LINE",
"165 447 OFFCURVE",
"148 426 OFFCURVE",
"148 383 CURVE",
"32 427 LINE"
);
}
);
width = 472;
}
);
unicode = 0061;
},
{
glyphname = ae;
lastChange = "2017-01-29 15:49:53 +0000";
layers = (
{
layerId = "DC4431BF-9234-4C16-9154-22D387E42D10";
paths = (
{
closed = 1;
nodes = (
"26 180 LINE SMOOTH",
"26 289 OFFCURVE",
"268 283 OFFCURVE",
"268 351 CURVE SMOOTH",
"268 373 LINE SMOOTH",
"268 395 OFFCURVE",
"241 411 OFFCURVE",
"211 411 CURVE SMOOTH",
"176 411 OFFCURVE",
"138 392 OFFCURVE",
"138 349 CURVE",
"43 375 LINE",
"43 455 OFFCURVE",
"120 519 OFFCURVE",
"207 519 CURVE SMOOTH",
"263 519 OFFCURVE",
"298 506 OFFCURVE",
"329 483 CURVE",
"355 503 OFFCURVE",
"387 516 OFFCURVE",
"429 516 CURVE",
"429 401 LINE",
"401 401 OFFCURVE",
"384 381 OFFCURVE",
"384 363 CURVE",
"384 324 LINE",
"525 324 LINE",
"525 359 LINE SMOOTH",
"525 387 OFFCURVE",
"500 401 OFFCURVE",
"478 401 CURVE",
"478 516 LINE",
"552 516 OFFCURVE",
"639 453 OFFCURVE",
"639 378 CURVE SMOOTH",
"639 208 LINE",
"384 208 LINE",
"384 159 LINE SMOOTH",
"384 126 OFFCURVE",
"414 108 OFFCURVE",
"450 108 CURVE SMOOTH",
"503 108 OFFCURVE",
"532 117 OFFCURVE",
"541 157 CURVE",
"640 120 LINE",
"620 40 OFFCURVE",
"546 0 OFFCURVE",
"454 0 CURVE SMOOTH",
"396 0 OFFCURVE",
"351 13 OFFCURVE",
"321 40 CURVE",
"302 15 OFFCURVE",
"267 1 OFFCURVE",
"229 1 CURVE",
"229 113 LINE",
"261 113 OFFCURVE",
"268 145 OFFCURVE",
"268 149 CURVE SMOOTH",
"268 227 LINE",
"221 200 OFFCURVE",
"127 198 OFFCURVE",
"127 162 CURVE SMOOTH",
"127 149 LINE SMOOTH",
"127 120 OFFCURVE",
"145 113 OFFCURVE",
"180 113 CURVE",
"180 1 LINE",
"83 1 OFFCURVE",
"26 53 OFFCURVE",
"26 110 CURVE SMOOTH"
);
}
);
width = 666;
}
);
unicode = 00E6;
},
{
glyphname = b;
lastChange = "2017-01-29 15:49:53 +0000";
layers = (
{
layerId = "DC4431BF-9234-4C16-9154-22D387E42D10";
paths = (
{
closed = 1;
nodes = (
"42 716 LINE",
"180 716 LINE",
"180 0 LINE",
"42 0 LINE"
);
},
{
closed = 1;
nodes = (
"233 130 LINE",
"269 130 LINE SMOOTH",
"300 130 OFFCURVE",
"306 156 OFFCURVE",
"306 157 CURVE",
"306 413 LINE",
"306 415 OFFCURVE",
"300 439 OFFCURVE",
"270 440 CURVE SMOOTH",
"233 440 LINE",
"233 570 LINE",
"269 570 LINE SMOOTH",
"381 570 OFFCURVE",
"435 467 OFFCURVE",
"436 417 CURVE",
"436 155 LINE SMOOTH",
"436 107 OFFCURVE",
"382 0 OFFCURVE",
"269 0 CURVE SMOOTH",
"233 0 LINE"
);
}
);
width = 466;
}
);
unicode = 0062;
},
{
glyphname = c;
lastChange = "2017-01-29 15:49:53 +0000";
layers = (
{
layerId = "DC4431BF-9234-4C16-9154-22D387E42D10";
paths = (
{
closed = 1;
nodes = (
"38 417 LINE",
"39 470 OFFCURVE",
"91 570 OFFCURVE",
"215 570 CURVE",
"215 442 LINE",
"180 442 OFFCURVE",
"169 426 OFFCURVE",
"169 415 CURVE SMOOTH",
"169 155 LINE SMOOTH",
"169 135 OFFCURVE",
"183 128 OFFCURVE",
"216 127 CURVE",
"216 0 LINE",
"86 0 OFFCURVE",
"38 103 OFFCURVE",
"38 155 CURVE SMOOTH"
);
},
{
closed = 1;
nodes = (
"261 570 LINE",
"351 570 OFFCURVE",
"424 498 OFFCURVE",
"424 412 CURVE",
"302 365 LINE",
"302 398 LINE SMOOTH",
"302 431 OFFCURVE",
"285 441 OFFCURVE",
"261 441 CURVE"
);
},
{
closed = 1;
nodes = (
"261 128 LINE",
"296 128 OFFCURVE",
"314 135 OFFCURVE",
"314 172 CURVE SMOOTH",
"314 205 LINE",
"436 158 LINE",
"437 73 OFFCURVE",
"349 -4 OFFCURVE",
"261 -1 CURVE"
);
}
);
width = 456;
}
);
unicode = 0063;
},
{
glyphname = d;
lastChange = "2017-01-29 15:49:53 +0000";
layers = (
{
layerId = "DC4431BF-9234-4C16-9154-22D387E42D10";
paths = (
{
closed = 1;
nodes = (
"30 415 LINE",
"31 464 OFFCURVE",
"84 567 OFFCURVE",
"195 567 CURVE SMOOTH",
"228 567 LINE",
"228 438 LINE",
"195 438 LINE",
"165 437 OFFCURVE",
"160 412 OFFCURVE",
"160 410 CURVE SMOOTH",
"160 157 LINE",
"160 155 OFFCURVE",
"166 130 OFFCURVE",
"197 130 CURVE SMOOTH",
"228 130 LINE",
"228 0 LINE",
"197 0 LINE SMOOTH",
"83 0 OFFCURVE",
"30 107 OFFCURVE",
"30 155 CURVE SMOOTH"
);
},
{
closed = 1;
nodes = (
"281 716 LINE",
"420 716 LINE",
"419 0 LINE",
"281 0 LINE"
);
}
);
width = 461;
}
);
unicode = 0064;
},
{
glyphname = eth;
lastChange = "2017-01-29 15:49:53 +0000";
layers = (
{
layerId = "DC4431BF-9234-4C16-9154-22D387E42D10";
paths = (
{
closed = 1;
nodes = (
"28 376 LINE SMOOTH",
"28 425 OFFCURVE",
"82 516 OFFCURVE",
"192 516 CURVE",
"192 398 LINE",
"156 398 OFFCURVE",
"148 377 OFFCURVE",
"148 363 CURVE SMOOTH",
"148 154 LINE SMOOTH",
"148 131 OFFCURVE",
"159 117 OFFCURVE",
"192 117 CURVE",
"192 -1 LINE",
"80 -1 OFFCURVE",
"28 93 OFFCURVE",
"28 141 CURVE SMOOTH"
);
},
{
closed = 1;
nodes = (
"192 714 LINE",
"250 703 OFFCURVE",
"297 679 OFFCURVE",
"330 641 CURVE",
"380 657 LINE",
"398 599 LINE",
"364 588 LINE",
"383 548 OFFCURVE",
"392 500 OFFCURVE",
"392 442 CURVE SMOOTH",
"392 141 LINE SMOOTH",
"392 92 OFFCURVE",
"341 -1 OFFCURVE",
"233 -1 CURVE",
"233 117 LINE",
"267 117 OFFCURVE",
"275 138 OFFCURVE",
"275 152 CURVE SMOOTH",
"275 363 LINE SMOOTH",
"275 384 OFFCURVE",
"266 398 OFFCURVE",
"233 398 CURVE",
"233 516 LINE",
"248 516 OFFCURVE",
"260 516 OFFCURVE",
"273 512 CURVE",
"271 530 OFFCURVE",
"270 545 OFFCURVE",
"267 558 CURVE",
"210 541 LINE",
"192 598 LINE",
"242 614 LINE",
"230 627 OFFCURVE",
"214 637 OFFCURVE",
"192 647 CURVE"
);
}
);
width = 420;
}
);
unicode = 00F0;
},
{
glyphname = dcroat;
lastChange = "2017-01-29 15:49:53 +0000";
layers = (
{
layerId = "DC4431BF-9234-4C16-9154-22D387E42D10";
paths = (
{
closed = 1;
nodes = (
"30 377 LINE",
"31 422 OFFCURVE",
"79 516 OFFCURVE",
"180 516 CURVE SMOOTH",
"210 516 LINE",
"210 398 LINE",
"180 398 LINE",
"153 397 OFFCURVE",
"148 375 OFFCURVE",
"148 373 CURVE SMOOTH",
"148 143 LINE",
"148 141 OFFCURVE",
"154 118 OFFCURVE",
"182 118 CURVE SMOOTH",
"210 118 LINE",
"210 0 LINE",
"182 0 LINE SMOOTH",
"78 0 OFFCURVE",
"30 97 OFFCURVE",
"30 141 CURVE SMOOTH"
);
},
{
closed = 1;
nodes = (
"174 666 LINE",
"258 666 LINE",
"258 716 LINE",
"384 716 LINE",
"384 666 LINE",
"448 666 LINE",
"448 570 LINE",
"384 570 LINE",
"384 0 LINE",
"258 0 LINE",
"258 570 LINE",
"174 570 LINE"
);
}
);
width = 414;
}
);
unicode = 0111;
},
{
glyphname = e;
lastChange = "2017-01-29 15:49:53 +0000";
layers = (
{
layerId = "DC4431BF-9234-4C16-9154-22D387E42D10";
paths = (
{
closed = 1;
nodes = (
"38 417 LINE",
"39 470 OFFCURVE",
"99 570 OFFCURVE",
"215 570 CURVE",
"215 444 LINE",
"189 444 OFFCURVE",
"172 423 OFFCURVE",
"172 408 CURVE SMOOTH",
"172 358 LINE",
"321 358 LINE",
"321 407 LINE SMOOTH",
"321 439 OFFCURVE",
"293 444 OFFCURVE",
"269 444 CURVE",
"269 570 LINE",
"350 570 OFFCURVE",
"446 509 OFFCURVE",
"446 418 CURVE SMOOTH",
"446 229 LINE",
"172 229 LINE",
"172 155 LINE SMOOTH",
"172 140 OFFCURVE",
"182 123 OFFCURVE",
"216 123 CURVE",
"216 0 LINE",
"98 0 OFFCURVE",
"38 102 OFFCURVE",
"38 155 CURVE SMOOTH"
);
},
{
closed = 1;
nodes = (
"269 122 LINE",
"311 122 OFFCURVE",
"330 145 OFFCURVE",
"338 173 CURVE",
"447 132 LINE",
"432 68 OFFCURVE",
"365 0 OFFCURVE",
"269 0 CURVE"
);
}
);
width = 485;
}
);
unicode = 0065;
},
{
glyphname = f;
lastChange = "2017-01-29 15:49:53 +0000";
layers = (
{
layerId = "DC4431BF-9234-4C16-9154-22D387E42D10";
paths = (
{
closed = 1;
nodes = (
"15 519 LINE",
"85 519 LINE",
"85 558 LINE SMOOTH",
"85 608 OFFCURVE",
"141 715 OFFCURVE",
"254 717 CURVE SMOOTH",
"321 717 LINE",
"291 588 LINE",
"255 588 LINE",
"224 587 OFFCURVE",
"219 561 OFFCURVE",
"219 558 CURVE SMOOTH",
"219 519 LINE",
"291 519 LINE",
"291 389 LINE",
"219 389 LINE",
"219 0 LINE",
"85 0 LINE",
"85 389 LINE",
"15 389 LINE"
);
}
);
width = 321;
}
);
unicode = 0066;
},
{
glyphname = g;
lastChange = "2017-01-29 15:49:53 +0000";
layers = (
{
layerId = "DC4431BF-9234-4C16-9154-22D387E42D10";
paths = (
{
closed = 1;
nodes = (
"51 -67 LINE",
"249 -67 LINE",
"283 -66 OFFCURVE",
"291 -38 OFFCURVE",
"291 -35 CURVE SMOOTH",
"291 12 LINE",
"276 9 OFFCURVE",
"262 8 OFFCURVE",
"246 8 CURVE",
"246 132 LINE",
"281 132 OFFCURVE",
"291 150 OFFCURVE",
"291 165 CURVE SMOOTH",
"291 420 LINE SMOOTH",
"291 426 OFFCURVE",
"281 452 OFFCURVE",
"246 452 CURVE",
"246 577 LINE",
"261 577 OFFCURVE",
"277 575 OFFCURVE",
"291 571 CURVE",
"291 577 LINE",
"419 577 LINE",
"419 -35 LINE SMOOTH",
"419 -82 OFFCURVE",
"364 -189 OFFCURVE",
"251 -190 CURVE",
"20 -190 LINE"
);
},
{
closed = 1;
nodes = (
"30 425 LINE",
"31 475 OFFCURVE",
"86 577 OFFCURVE",
"203 577 CURVE",
"203 452 LINE",
"166 452 OFFCURVE",
"156 427 OFFCURVE",
"156 422 CURVE SMOOTH",
"156 163 LINE SMOOTH",
"156 150 OFFCURVE",
"167 132 OFFCURVE",
"203 132 CURVE",
"203 8 LINE",
"85 8 OFFCURVE",
"30 113 OFFCURVE",
"30 162 CURVE SMOOTH"
);
}
);
width = 456;
}
);
unicode = 0067;
},
{
glyphname = h;
lastChange = "2018-07-02 17:54:55 +0000";
layers = (
{
layerId = "DC4431BF-9234-4C16-9154-22D387E42D10";
paths = (
{
closed = 1;
nodes = (
"42 716 LINE",
"167 716 LINE",
"167 546 LINE",
"181 551 OFFCURVE",
"203 553 OFFCURVE",
"221 553 CURVE",
"221 430 LINE",
"184 430 OFFCURVE",
"168 397 OFFCURVE",
"168 392 CURVE SMOOTH",
"168 0 LINE",
"42 0 LINE"
);
},
{
closed = 1;
nodes = (
"270 553 LINE",
"379 553 OFFCURVE",
"443 478 OFFCURVE",
"443 402 CURVE SMOOTH",
"443 0 LINE",
"318 0 LINE",
"318 392 LINE SMOOTH",
"318 396 OFFCURVE",
"309 430 OFFCURVE",
"270 430 CURVE"
);
}
);
width = 473;
}
);
unicode = 0068;
},
{
glyphname = i;
lastChange = "2017-01-29 15:49:53 +0000";
layers = (
{
layerId = "DC4431BF-9234-4C16-9154-22D387E42D10";
paths = (
{
closed = 1;
nodes = (
"50 690 OFFCURVE",
"83 723 OFFCURVE",
"123 723 CURVE SMOOTH",
"162 723 OFFCURVE",
"195 690 OFFCURVE",
"195 651 CURVE SMOOTH",
"195 612 OFFCURVE",
"162 579 OFFCURVE",
"123 579 CURVE SMOOTH",
"83 579 OFFCURVE",
"50 612 OFFCURVE",
"50 651 CURVE SMOOTH"
);
},
{
closed = 1;
nodes = (
"57 540 LINE",
"191 540 LINE",
"191 0 LINE",
"57 0 LINE"
);
}
);
width = 245;
}
);
unicode = 0069;
},
{
glyphname = dotlessi;
lastChange = "2017-01-29 15:49:53 +0000";
layers = (
{
layerId = "DC4431BF-9234-4C16-9154-22D387E42D10";
paths = (
{
closed = 1;
nodes = (
"26 516 LINE",
"148 516 LINE",
"148 0 LINE",
"26 0 LINE"
);
}
);
width = 174;
}
);
unicode = 0131;
},
{
glyphname = j;
lastChange = "2017-01-29 15:49:53 +0000";
layers = (
{
layerId = "DC4431BF-9234-4C16-9154-22D387E42D10";
paths = (
{
closed = 1;
nodes = (
"188 540 LINE",
"188 -42 LINE SMOOTH",
"188 -94 OFFCURVE",
"133 -199 OFFCURVE",
"21 -199 CURVE SMOOTH",
"-42 -199 LINE",
"-12 -71 LINE",
"17 -71 LINE",
"48 -70 OFFCURVE",
"54 -44 OFFCURVE",
"54 -42 CURVE SMOOTH",
"54 540 LINE"
);
},
{
closed = 1;
nodes = (
"47 690 OFFCURVE",
"80 723 OFFCURVE",
"120 723 CURVE SMOOTH",
"159 723 OFFCURVE",
"192 690 OFFCURVE",
"192 651 CURVE SMOOTH",
"192 612 OFFCURVE",
"159 579 OFFCURVE",
"120 579 CURVE SMOOTH",
"80 579 OFFCURVE",
"47 612 OFFCURVE",
"47 651 CURVE SMOOTH"
);
}
);
width = 242;
}
);
unicode = 006A;
},
{
glyphname = k;
lastChange = "2017-01-29 15:49:53 +0000";
layers = (
{
layerId = "DC4431BF-9234-4C16-9154-22D387E42D10";
paths = (
{
closed = 1;
nodes = (
"42 716 LINE",
"180 716 LINE",
"180 0 LINE",
"42 0 LINE"
);
},
{
closed = 1;
nodes = (
"332 570 LINE",
"478 570 LINE",
"352 287 LINE",
"480 0 LINE",
"335 0 LINE",
"209 287 LINE"
);
}
);
width = 500;
}
);
unicode = 006B;
},
{
glyphname = l;
lastChange = "2017-01-29 15:49:53 +0000";
layers = (
{
layerId = "DC4431BF-9234-4C16-9154-22D387E42D10";
paths = (
{
closed = 1;
nodes = (
"42 716 LINE",
"186 716 LINE",
"186 0 LINE",
"42 0 LINE"
);
}
);
width = 228;
}
);
unicode = 006C;
},
{
glyphname = lslash;
lastChange = "2017-01-29 15:49:53 +0000";
layers = (
{
layerId = "DC4431BF-9234-4C16-9154-22D387E42D10";
paths = (
{
closed = 1;
nodes = (
"340 536 LINE",
"412 443 LINE",
"112 209 LINE",
"40 302 LINE"
);
},
{
closed = 1;
nodes = (
"159 707 LINE",
"303 707 LINE",
"303 -9 LINE",
"159 -9 LINE"
);
}
);
width = 424;
}
);
unicode = 0142;
},
{
glyphname = m;
lastChange = "2017-01-29 15:49:53 +0000";
layers = (
{
layerId = "DC4431BF-9234-4C16-9154-22D387E42D10";
paths = (
{
closed = 1;
nodes = (
"38 415 LINE SMOOTH",
"38 471 OFFCURVE",
"100 571 OFFCURVE",
"219 571 CURVE",
"219 438 LINE",
"184 438 OFFCURVE",
"174 415 OFFCURVE",
"174 398 CURVE SMOOTH",
"174 0 LINE",
"38 0 LINE"
);
},
{
closed = 1;
nodes = (
"265 571 LINE",
"316 571 OFFCURVE",
"351 557 OFFCURVE",
"381 534 CURVE",
"410 558 OFFCURVE",
"446 571 OFFCURVE",
"496 571 CURVE",
"496 438 LINE",
"460 438 OFFCURVE",
"449 419 OFFCURVE",
"449 398 CURVE SMOOTH",
"449 0 LINE",
"313 0 LINE",
"313 398 LINE SMOOTH",
"313 420 OFFCURVE",
"301 438 OFFCURVE",
"265 438 CURVE"
);
},
{
closed = 1;
nodes = (
"541 571 LINE",
"662 571 OFFCURVE",
"724 468 OFFCURVE",
"724 415 CURVE SMOOTH",
"724 0 LINE",
"588 0 LINE",
"588 398 LINE SMOOTH",
"588 422 OFFCURVE",
"577 438 OFFCURVE",
"541 438 CURVE"
);
}
);
width = 762;
}
);
unicode = 006D;
},
{
glyphname = n;
lastChange = "2017-01-29 15:49:53 +0000";
layers = (
{
layerId = "DC4431BF-9234-4C16-9154-22D387E42D10";
paths = (
{
closed = 1;
nodes = (
"38 415 LINE SMOOTH",
"38 471 OFFCURVE",
"99 571 OFFCURVE",
"220 571 CURVE",
"220 438 LINE",
"184 438 OFFCURVE",
"174 416 OFFCURVE",
"174 399 CURVE SMOOTH",
"174 0 LINE",
"38 0 LINE"
);
},
{
closed = 1;
nodes = (
"266 571 LINE",
"387 571 OFFCURVE",
"449 468 OFFCURVE",
"449 415 CURVE SMOOTH",
"449 0 LINE",
"313 0 LINE",
"313 399 LINE SMOOTH",
"313 418 OFFCURVE",
"301 438 OFFCURVE",
"266 438 CURVE"
);
}
);
width = 487;
}
);
unicode = 006E;
},
{
glyphname = o;
lastChange = "2017-01-29 15:49:53 +0000";
layers = (
{
layerId = "DC4431BF-9234-4C16-9154-22D387E42D10";
paths = (
{
closed = 1;
nodes = (
"38 416 LINE SMOOTH",
"38 470 OFFCURVE",
"96 570 OFFCURVE",
"218 570 CURVE",
"218 440 LINE",
"179 440 OFFCURVE",
"170 417 OFFCURVE",
"170 402 CURVE SMOOTH",
"170 169 LINE SMOOTH",
"170 145 OFFCURVE",
"182 129 OFFCURVE",
"218 129 CURVE",
"218 -1 LINE",
"96 -1 OFFCURVE",
"38 103 OFFCURVE",
"38 155 CURVE SMOOTH"
);
},
{
closed = 1;
nodes = (
"264 129 LINE",
"301 129 OFFCURVE",
"310 152 OFFCURVE",
"310 167 CURVE SMOOTH",
"309 402 LINE SMOOTH",
"309 424 OFFCURVE",
"300 440 OFFCURVE",
"263 440 CURVE",
"263 570 LINE",
"380 570 OFFCURVE",
"438 470 OFFCURVE",
"438 416 CURVE SMOOTH",
"438 155 LINE SMOOTH",
"438 101 OFFCURVE",
"382 -1 OFFCURVE",
"264 -1 CURVE"
);
}
);
width = 476;
}
);
unicode = 006F;
},
{
glyphname = oslash;
lastChange = "2017-01-29 15:49:53 +0000";
layers = (
{
layerId = "DC4431BF-9234-4C16-9154-22D387E42D10";
paths = (
{
closed = 1;
nodes = (
"67 143 LINE",
"67 153 LINE SMOOTH",
"67 376 LINE SMOOTH",
"67 425 OFFCURVE",
"121 516 OFFCURVE",
"231 516 CURVE",
"231 398 LINE",
"195 398 OFFCURVE",
"187 377 OFFCURVE",
"187 363 CURVE SMOOTH",
"187 253 LINE",
"314 370 LINE",
"312 387 OFFCURVE",
"301 398 OFFCURVE",
"272 398 CURVE",
"272 516 LINE",
"334 516 OFFCURVE",
"376 488 OFFCURVE",
"402 451 CURVE",
"445 490 LINE",
"498 430 LINE",
"431 369 LINE",
"431 358 LINE SMOOTH",
"431 141 LINE SMOOTH",
"431 92 OFFCURVE",
"380 -1 OFFCURVE",
"272 -1 CURVE",
"272 117 LINE",
"306 117 OFFCURVE",
"314 138 OFFCURVE",
"314 152 CURVE SMOOTH",
"314 261 LINE",
"188 145 LINE",
"190 127 OFFCURVE",
"203 117 OFFCURVE",
"231 117 CURVE",
"231 -1 LINE",
"167 -1 OFFCURVE",
"125 27 OFFCURVE",
"98 63 CURVE",
"53 22 LINE",
"0 82 LINE"
);
}
);
width = 498;
}
);
unicode = 00F8;
},
{
glyphname = oe;
lastChange = "2017-01-29 15:49:53 +0000";
layers = (
{
layerId = "DC4431BF-9234-4C16-9154-22D387E42D10";
paths = (
{
closed = 1;
nodes = (
"308 12 OFFCURVE",
"282 -1 OFFCURVE",
"231 -1 CURVE",
"231 113 LINE",
"264 113 OFFCURVE",
"275 130 OFFCURVE",
"275 150 CURVE SMOOTH",
"275 362 LINE SMOOTH",
"275 387 OFFCURVE",
"263 398 OFFCURVE",
"231 398 CURVE",
"231 516 LINE",
"280 516 OFFCURVE",
"307 504 OFFCURVE",
"332 483 CURVE",
"358 503 OFFCURVE",
"390 516 OFFCURVE",
"432 516 CURVE",
"432 401 LINE",
"404 401 OFFCURVE",
"387 381 OFFCURVE",
"387 363 CURVE",
"387 324 LINE",
"528 324 LINE",
"528 359 LINE SMOOTH",
"528 387 OFFCURVE",
"503 401 OFFCURVE",
"481 401 CURVE",
"481 516 LINE",
"555 516 OFFCURVE",
"642 453 OFFCURVE",
"642 378 CURVE SMOOTH",
"642 208 LINE",
"387 208 LINE",
"387 159 LINE SMOOTH",
"387 126 OFFCURVE",
"417 108 OFFCURVE",
"453 108 CURVE SMOOTH",
"506 108 OFFCURVE",
"535 117 OFFCURVE",
"544 157 CURVE",
"643 120 LINE",
"623 40 OFFCURVE",
"549 0 OFFCURVE",
"457 0 CURVE SMOOTH",
"399 0 OFFCURVE",
"364 15 OFFCURVE",
"334 34 CURVE"
);
},
{
closed = 1;
nodes = (
"26 376 LINE SMOOTH",
"26 421 OFFCURVE",
"77 516 OFFCURVE",
"190 516 CURVE",
"190 398 LINE",
"155 398 OFFCURVE",
"146 383 OFFCURVE",
"146 363 CURVE SMOOTH",
"146 152 LINE SMOOTH",
"146 129 OFFCURVE",
"158 113 OFFCURVE",
"190 113 CURVE",
"190 -1 LINE",
"76 -1 OFFCURVE",
"26 97 OFFCURVE",
"26 141 CURVE SMOOTH"
);
}
);
width = 671;
}
);
unicode = 0153;
},
{
glyphname = p;
lastChange = "2017-01-29 15:49:53 +0000";
layers = (
{
layerId = "DC4431BF-9234-4C16-9154-22D387E42D10";
paths = (
{
closed = 1;
nodes = (
"230 130 LINE",
"264 130 LINE SMOOTH",
"299 130 OFFCURVE",
"304 155 OFFCURVE",
"304 157 CURVE",
"304 413 LINE",
"304 415 OFFCURVE",
"299 440 OFFCURVE",
"264 440 CURVE SMOOTH",
"230 440 LINE",
"230 570 LINE",
"264 570 LINE SMOOTH",
"381 570 OFFCURVE",
"436 464 OFFCURVE",
"436 415 CURVE SMOOTH",
"436 155 LINE SMOOTH",
"436 106 OFFCURVE",
"381 0 OFFCURVE",
"264 0 CURVE SMOOTH",
"230 0 LINE"
);
},
{
closed = 1;
nodes = (
"39 570 LINE",
"180 570 LINE",
"180 -199 LINE",
"39 -199 LINE"
);
}
);
width = 481;
}
);
unicode = 0070;
},
{
glyphname = thorn;
lastChange = "2017-01-29 15:49:53 +0000";
layers = (
{
layerId = "DC4431BF-9234-4C16-9154-22D387E42D10";
paths = (
{
closed = 1;
nodes = (
"30 700 LINE",
"155 700 LINE",
"155 -182 LINE",
"30 -182 LINE"
);
},
{
closed = 1;
nodes = (
"196 519 LINE",
"228 519 LINE SMOOTH",
"335 519 OFFCURVE",
"396 434 OFFCURVE",
"396 378 CURVE SMOOTH",
"396 139 LINE SMOOTH",
"396 86 OFFCURVE",
"345 0 OFFCURVE",
"232 0 CURVE SMOOTH",
"203 0 LINE",
"203 118 LINE",
"234 118 LINE SMOOTH",
"271 119 OFFCURVE",
"276 134 OFFCURVE",
"276 143 CURVE SMOOTH",
"276 375 LINE SMOOTH",
"276 388 OFFCURVE",
"258 401 OFFCURVE",
"228 401 CURVE SMOOTH",
"196 401 LINE"
);
}
);
width = 422;
}
);
unicode = 00FE;
},
{
glyphname = q;
lastChange = "2017-01-29 15:49:53 +0000";
layers = (
{
layerId = "DC4431BF-9234-4C16-9154-22D387E42D10";
paths = (
{
closed = 1;
nodes = (
"94 0 OFFCURVE",
"40 106 OFFCURVE",
"40 155 CURVE SMOOTH",
"40 415 LINE SMOOTH",
"40 464 OFFCURVE",
"94 570 OFFCURVE",
"212 570 CURVE SMOOTH",
"246 570 LINE",
"246 440 LINE",
"212 440 LINE SMOOTH",
"177 440 OFFCURVE",
"171 415 OFFCURVE",
"171 413 CURVE",
"171 157 LINE",
"171 155 OFFCURVE",
"177 130 OFFCURVE",
"212 130 CURVE SMOOTH",
"246 130 LINE",
"246 0 LINE",
"212 0 LINE SMOOTH"
);
},
{
closed = 1;
nodes = (
"296 570 LINE",
"437 570 LINE",
"437 -199 LINE",
"296 -199 LINE"
);
}
);
width = 476;
}
);
unicode = 0071;
},
{
glyphname = r;
lastChange = "2017-01-29 15:49:53 +0000";
layers = (
{
layerId = "DC4431BF-9234-4C16-9154-22D387E42D10";
paths = (
{
closed = 1;
nodes = (
"42 570 LINE",
"178 570 LINE",
"178 507 LINE",
"201 537 OFFCURVE",
"254 575 OFFCURVE",
"315 575 CURVE SMOOTH",
"351 575 LINE",
"320 441 LINE",
"247 440 OFFCURVE",
"178 371 OFFCURVE",
"178 305 CURVE SMOOTH",
"178 0 LINE",
"42 0 LINE"
);
}
);
width = 361;
}
);
unicode = 0072;
},
{
glyphname = s;
lastChange = "2017-01-29 15:49:53 +0000";
layers = (
{
layerId = "DC4431BF-9234-4C16-9154-22D387E42D10";
paths = (
{
closed = 1;
nodes = (
"144 173 LINE",
"144 143 OFFCURVE",
"173 122 OFFCURVE",
"200 121 CURVE",
"200 -5 LINE",
"72 -5 OFFCURVE",
"20 78 OFFCURVE",
"20 150 CURVE"
);
},
{
closed = 1;
nodes = (
"26 528 OFFCURVE",
"136 575 OFFCURVE",
"198 575 CURVE",
"198 451 LINE",
"152 451 OFFCURVE",
"149 425 OFFCURVE",
"149 414 CURVE SMOOTH",
"149 392 OFFCURVE",
"166 360 OFFCURVE",
"321 326 CURVE SMOOTH",
"378 315 OFFCURVE",
"434 267 OFFCURVE",
"434 176 CURVE SMOOTH",
"434 61 OFFCURVE",
"349 -5 OFFCURVE",
"245 -5 CURVE",
"245 121 LINE",
"264 121 OFFCURVE",
"305 132 OFFCURVE",
"305 168 CURVE SMOOTH",
"305 218 OFFCURVE",
"182 227 OFFCURVE",
"119 255 CURVE SMOOTH",
"66 282 OFFCURVE",
"26 322 OFFCURVE",
"26 414 CURVE SMOOTH"
);
},
{
closed = 1;
nodes = (
"244 575 LINE",
"351 575 OFFCURVE",
"424 492 OFFCURVE",
"424 418 CURVE",
"301 397 LINE",
"301 446 OFFCURVE",
"253 451 OFFCURVE",
"243 451 CURVE"
);
}
);
width = 454;
}
);
unicode = 0073;
},
{
glyphname = germandbls;
lastChange = "2017-01-29 15:49:53 +0000";
layers = (
{
layerId = "DC4431BF-9234-4C16-9154-22D387E42D10";
paths = (
{
closed = 1;
nodes = (
"26 457 LINE SMOOTH",
"27 531 OFFCURVE",
"16 705 OFFCURVE",
"226 705 CURVE SMOOTH",
"396 705 OFFCURVE",
"406 575 OFFCURVE",
"406 518 CURVE SMOOTH",
"406 405 LINE",
"342 406 LINE",
"308 400 OFFCURVE",
"305 368 OFFCURVE",
"305 361 CURVE SMOOTH",
"305 349 OFFCURVE",
"310 326 OFFCURVE",
"391 299 CURVE SMOOTH",
"441 282 OFFCURVE",
"496 243 OFFCURVE",
"496 160 CURVE SMOOTH",
"496 57 OFFCURVE",
"420 0 OFFCURVE",
"327 0 CURVE SMOOTH",
"199 0 LINE",
"199 109 LINE",
"327 109 LINE SMOOTH",
"342 110 OFFCURVE",
"379 120 OFFCURVE",
"379 153 CURVE SMOOTH",
"379 198 OFFCURVE",
"331 200 OFFCURVE",
"276 228 CURVE SMOOTH",
"228 252 OFFCURVE",
"191 287 OFFCURVE",
"191 371 CURVE SMOOTH",
"191 446 OFFCURVE",
"244 489 OFFCURVE",
"294 507 CURVE",
"294 519 LINE SMOOTH",
"294 572 OFFCURVE",
"259 586 OFFCURVE",
"225 586 CURVE SMOOTH",
"174 586 OFFCURVE",
"155 554 OFFCURVE",
"155 498 CURVE SMOOTH",
"155 0 LINE",
"26 0 LINE"
);
}
);
width = 522;
}
);
unicode = 00DF;
},
{
glyphname = t;
lastChange = "2017-01-29 15:49:53 +0000";
layers = (
{
layerId = "DC4431BF-9234-4C16-9154-22D387E42D10";
paths = (
{
closed = 1;
nodes = (
"14 570 LINE",
"84 570 LINE",
"84 716 LINE",
"218 716 LINE",
"218 570 LINE",
"284 570 LINE",
"284 440 LINE",
"218 440 LINE",
"218 175 LINE SMOOTH",
"218 160 OFFCURVE",
"224 138 OFFCURVE",
"255 138 CURVE SMOOTH",
"284 138 LINE",
"314 0 LINE",
"254 0 LINE SMOOTH",
"119 0 OFFCURVE",
"84 73 OFFCURVE",
"84 185 CURVE SMOOTH",
"84 441 LINE",
"14 441 LINE"
);
}
);
width = 324;
}
);
unicode = 0074;
},
{
glyphname = u;
lastChange = "2017-01-29 15:49:53 +0000";
layers = (
{
layerId = "DC4431BF-9234-4C16-9154-22D387E42D10";
paths = (
{
closed = 1;
nodes = (
"38 570 LINE",
"174 570 LINE",
"174 167 LINE SMOOTH",
"174 148 OFFCURVE",
"184 128 OFFCURVE",
"220 128 CURVE",
"220 -5 LINE",
"99 -5 OFFCURVE",
"38 95 OFFCURVE",
"38 151 CURVE SMOOTH"
);
},
{
closed = 1;
nodes = (
"266 128 LINE",
"302 128 OFFCURVE",
"313 149 OFFCURVE",
"313 167 CURVE SMOOTH",
"313 570 LINE",
"449 570 LINE",
"449 151 LINE SMOOTH",
"449 98 OFFCURVE",
"387 -5 OFFCURVE",
"266 -5 CURVE"
);
}
);
width = 487;
}
);
unicode = 0075;
},
{
glyphname = v;
lastChange = "2017-01-29 15:49:53 +0000";
layers = (
{
layerId = "DC4431BF-9234-4C16-9154-22D387E42D10";
paths = (
{
closed = 1;
nodes = (
"156 570 LINE",
"302 138 LINE",
"257 0 LINE",
"181 0 LINE",
"7 570 LINE"
);
},
{
closed = 1;
nodes = (
"287 570 LINE",
"436 570 LINE",
"329 229 LINE",
"316 229 LINE",
"245 433 LINE"
);
}
);
width = 443;
}
);
unicode = 0076;
},
{
glyphname = w;
lastChange = "2017-01-29 15:49:53 +0000";
layers = (
{
layerId = "DC4431BF-9234-4C16-9154-22D387E42D10";
paths = (
{
closed = 1;
nodes = (
"156 570 LINE",
"302 138 LINE",
"257 0 LINE",
"181 0 LINE",
"7 570 LINE"
);
},
{
closed = 1;
nodes = (
"287 570 LINE",
"436 570 LINE",
"329 229 LINE",
"316 229 LINE",
"245 433 LINE"
);
},
{
closed = 1;
nodes = (
"436 570 LINE",
"582 138 LINE",
"537 0 LINE",
"461 0 LINE",
"287 570 LINE"
);
},
{
closed = 1;
nodes = (
"567 570 LINE",
"716 570 LINE",
"609 229 LINE",
"596 229 LINE",
"525 433 LINE"
);
}
);
width = 723;
}
);
unicode = 0077;
},
{
glyphname = x;
lastChange = "2017-01-29 15:49:53 +0000";
layers = (
{
layerId = "DC4431BF-9234-4C16-9154-22D387E42D10";
paths = (
{
closed = 1;
nodes = (
"133 288 LINE",
"10 570 LINE",
"148 570 LINE",
"208 439 LINE",
"266 570 LINE",
"405 570 LINE",
"284 288 LINE",
"408 0 LINE",
"271 0 LINE",
"208 139 LINE",
"145 0 LINE",
"8 0 LINE"
);
}
);
width = 416;
}
);
unicode = 0078;
},
{
glyphname = y;
lastChange = "2017-01-29 15:49:53 +0000";
layers = (
{
layerId = "DC4431BF-9234-4C16-9154-22D387E42D10";
paths = (
{
closed = 1;
nodes = (
"151 570 LINE",
"284 126 LINE",
"175 -200 LINE",
"37 -200 LINE",
"137 128 LINE",
"7 570 LINE"
);
},
{
closed = 1;
nodes = (
"283 570 LINE",
"427 570 LINE",
"314 232 LINE",
"301 232 LINE",
"241 436 LINE"
);
}
);
width = 429;
}
);
unicode = 0079;
},
{
glyphname = z;
lastChange = "2017-01-29 15:49:53 +0000";
layers = (
{
layerId = "DC4431BF-9234-4C16-9154-22D387E42D10";
paths = (
{
closed = 1;
nodes = (
"30 131 LINE",
"203 440 LINE",
"30 440 LINE",
"30 570 LINE",
"356 570 LINE",
"356 440 LINE",
"188 131 LINE",
"356 131 LINE",
"356 0 LINE",
"30 0 LINE"
);
}
);
width = 386;
}
);
unicode = 007A;
},
{
glyphname = fi;
lastChange = "2017-01-29 15:49:53 +0000";
layers = (
{
layerId = "DC4431BF-9234-4C16-9154-22D387E42D10";
paths = (
{
closed = 1;
nodes = (
"26 516 LINE",
"89 516 LINE",
"89 552 LINE SMOOTH",
"89 597 OFFCURVE",
"140 695 OFFCURVE",
"243 696 CURVE SMOOTH",
"304 696 LINE",
"277 579 LINE",
"244 579 LINE SMOOTH",
"216 578 OFFCURVE",
"211 555 OFFCURVE",
"211 552 CURVE SMOOTH",
"211 516 LINE",
"457 516 LINE",
"457 0 LINE",
"335 0 LINE",
"335 400 LINE",
"211 400 LINE",
"211 0 LINE",
"89 0 LINE",
"89 400 LINE",
"26 400 LINE"
);
},
{
closed = 1;
nodes = (
"322 670 OFFCURVE",
"355 703 OFFCURVE",
"395 703 CURVE SMOOTH",
"435 703 OFFCURVE",
"468 670 OFFCURVE",
"468 630 CURVE SMOOTH",
"468 591 OFFCURVE",
"435 558 OFFCURVE",
"395 558 CURVE SMOOTH",
"355 558 OFFCURVE",
"322 591 OFFCURVE",
"322 630 CURVE SMOOTH"
);
}
);
width = 494;
}
);
unicode = FB01;
},
{
glyphname = fl;
lastChange = "2017-01-29 15:49:53 +0000";
layers = (
{
layerId = "DC4431BF-9234-4C16-9154-22D387E42D10";
paths = (
{
closed = 1;
nodes = (
"26 516 LINE",
"89 516 LINE",
"89 552 LINE SMOOTH",
"89 597 OFFCURVE",
"140 695 OFFCURVE",
"243 696 CURVE SMOOTH",
"457 696 LINE",
"457 0 LINE",
"331 0 LINE",
"331 579 LINE",
"244 579 LINE SMOOTH",
"216 578 OFFCURVE",
"211 555 OFFCURVE",
"211 552 CURVE SMOOTH",
"211 515 LINE",
"277 516 LINE",
"277 400 LINE",
"211 400 LINE",
"211 0 LINE",
"89 0 LINE",
"89 400 LINE",
"26 400 LINE"
);
}
);
width = 483;
}
);
unicode = FB02;
},
{
glyphname = ordfeminine;
lastChange = "2017-01-29 15:49:53 +0000";
layers = (
{
components = (
{
name = a;
transform = "{0.5, 0, 0, 0.5, 1.9, 418.895}";
}
);
layerId = "DC4431BF-9234-4C16-9154-22D387E42D10";
paths = (
{
closed = 1;
nodes = (
"19 393 LINE",
"225 393 LINE",
"225 325 LINE",
"19 325 LINE"
);
}
);
width = 248;
}
);
unicode = 00AA;
},
{
glyphname = ordmasculine;
lastChange = "2017-01-29 15:49:53 +0000";
layers = (
{
components = (
{
name = o;
transform = "{0.45, 0, 0, 0.45, 5.01, 450.81}";
}
);
layerId = "DC4431BF-9234-4C16-9154-22D387E42D10";
paths = (
{
closed = 1;
nodes = (
"26 432 LINE",
"204 432 LINE",
"204 361 LINE",
"26 361 LINE"
);
}
);
width = 230;
}
);
unicode = 00BA;
},
{
glyphname = pi;
lastChange = "2017-01-29 15:49:53 +0000";
layers = (
{
layerId = "DC4431BF-9234-4C16-9154-22D387E42D10";
paths = (
{
closed = 1;
nodes = (
"30 519 LINE",
"503 519 LINE",
"503 389 LINE",
"446 389 LINE",
"446 142 LINE SMOOTH",
"446 128 OFFCURVE",
"454 108 OFFCURVE",
"489 108 CURVE",
"489 -4 LINE",
"390 -4 OFFCURVE",
"327 54 OFFCURVE",
"327 133 CURVE SMOOTH",
"327 389 LINE",
"209 389 LINE",
"209 0 LINE",
"87 0 LINE",
"87 389 LINE",
"30 389 LINE"
);
}
);
width = 533;
}
);
unicode = 03C0;
},
{
glyphname = uni5713;
lastChange = "2017-01-29 15:49:53 +0000";
layers = (
{
components = (
{
name = dollar;
transform = "{1, 0, 0, 1, 322, 0}";
}
);
layerId = "DC4431BF-9234-4C16-9154-22D387E42D10";
paths = (
{
closed = 1;
nodes = (
"50 698 LINE",
"92 698 LINE",
"92 614 LINE",
"101 614 LINE",
"101 573 LINE",
"92 573 LINE",
"92 488 LINE",
"50 488 LINE"
);
},
{
closed = 1;
nodes = (
"117 614 LINE",
"126 614 LINE",
"126 698 LINE",
"169 698 LINE",
"169 488 LINE",
"126 488 LINE",
"126 573 LINE",
"117 573 LINE"
);
},
{
closed = 1;
nodes = (
"198 698 LINE",
"241 698 LINE",
"241 488 LINE",
"198 488 LINE"
);
},
{
closed = 1;
nodes = (
"283 698 LINE",
"325 698 LINE",
"299 611 LINE",
"326 488 LINE",
"284 488 LINE",
"257 611 LINE"
);
}
);
width = 843;
}
);
unicode = 5713;
},
{
glyphname = tml_A;
lastChange = "2017-01-29 15:50:26 +0000";
layers = (
{
layerId = "DC4431BF-9234-4C16-9154-22D387E42D10";
paths = (
{
closed = 1;
nodes = (
"398 458 OFFCURVE",
"274 458 OFFCURVE",
"274 458 CURVE",
"274 458 OFFCURVE",
"287 289 OFFCURVE",
"463 289 CURVE SMOOTH",
"553 289 OFFCURVE",
"627 346 OFFCURVE",
"632 409 CURVE SMOOTH",
"548 498 LINE SMOOTH",
"548 433 OFFCURVE",
"508 411 OFFCURVE",
"463 411 CURVE SMOOTH",
"432 411 OFFCURVE",
"398 430 OFFCURVE",
"398 458 CURVE"
);
},
{
closed = 1;
nodes = (
"400 515 LINE",
"400 515 OFFCURVE",
"423 573 OFFCURVE",
"529 573 CURVE SMOOTH",
"651 573 OFFCURVE",
"692 502 OFFCURVE",
"692 396 CURVE SMOOTH",
"692 262 LINE",
"814 262 LINE",
"814 393 LINE",
"814 585 OFFCURVE",
"709 695 OFFCURVE",
"529 695 CURVE SMOOTH",
"387 695 OFFCURVE",
"274 615 OFFCURVE",
"274 515 CURVE"
);
},
{
closed = 1;
nodes = (
"495 150 OFFCURVE",
"651 150 OFFCURVE",
"692 150 CURVE",
"692 67 LINE",
"692 33 OFFCURVE",
"673 -4 OFFCURVE",
"607 -5 CURVE SMOOTH",
"456 -5 LINE",
"456 -127 LINE SMOOTH",
"618 -127 LINE SMOOTH",
"744 -127 OFFCURVE",
"815 -35 OFFCURVE",
"815 67 CURVE",
"814 270 LINE",
"732 270 OFFCURVE",
"536 270 OFFCURVE",
"454 270 CURVE",
"454 150 LINE"
);
},
{
closed = 1;
nodes = (
"50 -47 OFFCURVE",
"141 -127 OFFCURVE",
"253 -127 CURVE SMOOTH",
"401 -127 LINE",
"401 -5 LINE",
"264 -5 LINE SMOOTH",
"218 -5 OFFCURVE",
"172 19 OFFCURVE",
"172 72 CURVE SMOOTH",
"172 129 OFFCURVE",
"222 149 OFFCURVE",
"246 149 CURVE SMOOTH",
"400 149 LINE",
"400 271 LINE",
"264 271 LINE SMOOTH",
"134 271 OFFCURVE",
"50 188 OFFCURVE",
"50 72 CURVE SMOOTH"
);
},
{
closed = 1;
nodes = (
"866 150 LINE",
"866 270 LINE",
"773 270 LINE",
"773 150 LINE"
);
},
{
closed = 1;
nodes = (
"986 -107 LINE",
"986 578 LINE",
"864 578 LINE",
"864 -107 LINE"
);
}
);
width = 1036;
}
);
unicode = 0B85;
userData = {
com.fontlab.hintData = {
hhints = (
{
position = -127;
width = 122;
},
{
position = 110;
width = 125;
},
{
position = 205;
width = 119;
},
{
position = 373;
width = 122;
},
{
position = 562;
width = 122;
}
);
vhints = (
{
position = 50;
width = 122;
},
{
position = 236;
width = 116;
},
{
position = 509;
width = 110;
},
{
position = 692;
width = 122;
},
{
position = 773;
width = 41;
},
{
position = 864;
width = 122;
},
{
position = 864;
width = 3;
}
);
};
};
},
{
glyphname = tml_Aa;
lastChange = "2017-01-29 15:50:26 +0000";
layers = (
{
components = (
{
name = tml_A;
}
);
layerId = "DC4431BF-9234-4C16-9154-22D387E42D10";
paths = (
{
closed = 1;
nodes = (
"683 -258 LINE",
"980 -258 LINE SMOOTH",
"1154 -258 OFFCURVE",
"1195 -174 OFFCURVE",
"1195 -66 CURVE SMOOTH",
"1195 21 LINE SMOOTH",
"1195 168 OFFCURVE",
"1119 190 OFFCURVE",
"1028 190 CURVE",
"1028 68 LINE SMOOTH",
"1070 68 OFFCURVE",
"1073 67 OFFCURVE",
"1073 21 CURVE SMOOTH",
"1073 -66 LINE SMOOTH",
"1073 -115 OFFCURVE",
"1069 -135 OFFCURVE",
"1007 -135 CURVE SMOOTH",
"683 -136 LINE"
);
}
);
width = 1251;
}
);
unicode = 0B86;
userData = {
com.fontlab.hintData = {
hhints = (
{
position = -293;
width = 122;
},
{
position = -127;
width = 122;
},
{
position = 205;
width = 119;
},
{
position = 373;
width = 122;
},
{
position = 562;
width = 122;
}
);
vhints = (
{
position = 39;
width = 122;
},
{
position = 225;
width = 116;
},
{
position = 498;
width = 110;
},
{
position = 681;
width = 122;
},
{
position = 762;
width = 41;
},
{
position = 853;
width = 122;
},
{
position = 853;
width = 3;
},
{
position = 1073;
width = 122;
}
);
};
};
},
{
color = 3;
glyphname = tml_I;
lastChange = "2018-07-02 18:13:29 +0000";
layers = (
{
layerId = "DC4431BF-9234-4C16-9154-22D387E42D10";
paths = (
{
closed = 1;
nodes = (
"444 692 LINE",
"299 692 OFFCURVE",
"242 608 OFFCURVE",
"242 474 CURVE SMOOTH",
"242 315 OFFCURVE",
"242 249 OFFCURVE",
"444 187 CURVE",
"407 82 LINE",
"359 79 OFFCURVE",
"356 87 OFFCURVE",
"299 80 CURVE SMOOTH",
"242 73 OFFCURVE",
"209 42 OFFCURVE",
"209 -5 CURVE SMOOTH",
"209 -52 OFFCURVE",
"230 -103 OFFCURVE",
"327 -103 CURVE SMOOTH",
"424 -103 OFFCURVE",
"442 -20 OFFCURVE",
"470 60 CURVE SMOOTH",
"498 140 OFFCURVE",
"538 276 OFFCURVE",
"551 328 CURVE SMOOTH",
"564 380 OFFCURVE",
"583 460 OFFCURVE",
"519 468 CURVE SMOOTH",
"455 476 OFFCURVE",
"452 450 OFFCURVE",
"456 413 CURVE SMOOTH",
"460 376 OFFCURVE",
"489 366 OFFCURVE",
"508 364 CURVE",
"470 288 LINE",
"407 288 OFFCURVE",
"338 342 OFFCURVE",
"340 420 CURVE SMOOTH",
"342 498 OFFCURVE",
"376 569 OFFCURVE",
"487 567 CURVE SMOOTH",
"619 565 OFFCURVE",
"682 505 OFFCURVE",
"682 409 CURVE SMOOTH",
"682 313 OFFCURVE",
"646 211 OFFCURVE",
"638 183 CURVE",
"696 183 OFFCURVE",
"668 183 OFFCURVE",
"722 183 CURVE SMOOTH",
"913 183 OFFCURVE",
"959 65 OFFCURVE",
"959 0 CURVE SMOOTH",
"959 -113 OFFCURVE",
"881 -205 OFFCURVE",
"779 -205 CURVE SMOOTH",
"677 -205 OFFCURVE",
"650 -139 OFFCURVE",
"614 -115 CURVE",
"654 19 LINE",
"733 -50 OFFCURVE",
"749 -89 OFFCURVE",
"806 -72 CURVE SMOOTH",
"863 -55 OFFCURVE",
"843 -28 OFFCURVE",
"843 0 CURVE SMOOTH",
"843 81 OFFCURVE",
"722 65 OFFCURVE",
"609 65 CURVE",
"571 -20 OFFCURVE",
"571 -210 OFFCURVE",
"359 -205 CURVE SMOOTH",
"147 -200 OFFCURVE",
"81 -131 OFFCURVE",
"82 -4 CURVE SMOOTH",
"83 123 OFFCURVE",
"144 152 OFFCURVE",
"209 180 CURVE",
"102 239 OFFCURVE",
"87 332 OFFCURVE",
"87 457 CURVE SMOOTH",
"87 644 OFFCURVE",
"138 821 OFFCURVE",
"444 820 CURVE"
);
},
{
closed = 1;
nodes = (
"532 692 LINE",
"638 685 OFFCURVE",
"779 673 OFFCURVE",
"780 497 CURVE SMOOTH",
"781 250 LINE",
"919 249 LINE",
"919 399 OFFCURVE",
"919 376 OFFCURVE",
"919 565 CURVE SMOOTH",
"919 702 OFFCURVE",
"819 820 OFFCURVE",
"531 820 CURVE"
);
}
);
width = 1194;
}
);
unicode = 0B87;
userData = {
com.fontlab.hintData = {
hhints = (
{
position = -178;
width = 240;
},
{
position = -178;
width = 122;
},
{
position = 100;
width = 119;
},
{
position = 238;
width = 122;
},
{
position = 522;
width = 123;
},
{
position = 780;
width = 123;
}
);
vhints = (
{
position = 61;
width = 122;
},
{
position = 389;
width = 122;
},
{
position = 809;
width = 122;
},
{
position = 1018;
width = 119;
},
{
position = 1020;
width = 152;
}
);
};
};
},
{
glyphname = tml_Ii;
lastChange = "2017-01-29 15:50:26 +0000";
layers = (
{
layerId = "DC4431BF-9234-4C16-9154-22D387E42D10";
paths = (
{
closed = 1;
nodes = (
"466 214 OFFCURVE",
"494 186 OFFCURVE",
"528 186 CURVE SMOOTH",
"562 186 OFFCURVE",
"591 214 OFFCURVE",
"591 248 CURVE SMOOTH",
"591 282 OFFCURVE",
"562 311 OFFCURVE",
"528 311 CURVE SMOOTH",
"494 311 OFFCURVE",
"466 282 OFFCURVE",
"466 248 CURVE SMOOTH"
);
},
{
closed = 1;
nodes = (
"178 215 OFFCURVE",
"206 187 OFFCURVE",
"240 187 CURVE SMOOTH",
"274 187 OFFCURVE",
"303 215 OFFCURVE",
"303 249 CURVE SMOOTH",
"303 283 OFFCURVE",
"274 312 OFFCURVE",
"240 312 CURVE SMOOTH",
"206 312 OFFCURVE",
"178 283 OFFCURVE",
"178 249 CURVE SMOOTH"
);
},
{
closed = 1;
nodes = (
"445 0 LINE",
"445 593 LINE",
"323 593 LINE",
"323 0 LINE"
);
},
{
closed = 1;
nodes = (
"161 1 LINE",
"161 593 LINE",
"39 592 LINE",
"39 1 LINE"
);
},
{
closed = 1;
nodes = (
"587 473 LINE",
"587 595 LINE",
"271 595 LINE",
"271 473 LINE"
);
},
{
closed = 1;
nodes = (
"217 473 LINE",
"217 595 LINE",
"39 595 LINE",
"39 473 LINE"
);
}
);
width = 629;
}
);
unicode = 0B88;
userData = {
com.fontlab.hintData = {
hhints = (
{
position = 1;
width = 21;
},
{
position = 187;
width = 125;
},
{
position = 473;
width = 123;
}
);
vhints = (
{
position = 39;
width = 178;
},
{
position = 39;
width = 122;
},
{
position = 178;
width = 125;
},
{
position = 466;
width = 125;
}
);
};
};
},
{
glyphname = tml_U;
lastChange = "2017-01-29 15:50:26 +0000";
layers = (
{
layerId = "DC4431BF-9234-4C16-9154-22D387E42D10";
paths = (
{
closed = 1;
nodes = (
"174 570 OFFCURVE",
"197 625 OFFCURVE",
"303 625 CURVE SMOOTH",
"474 625 OFFCURVE",
"476 434 OFFCURVE",
"476 434 CURVE",
"593 434 LINE",
"593 626 OFFCURVE",
"483 744 OFFCURVE",
"303 744 CURVE SMOOTH",
"160 744 OFFCURVE",
"48 636 OFFCURVE",
"48 534 CURVE SMOOTH",
"174 534 LINE SMOOTH"
);
},
{
closed = 1;
nodes = (
"1033 0 LINE",
"1033 112 LINE",
"259 112 LINE",
"259 0 LINE"
);
},
{
closed = 1;
nodes = (
"57 61 OFFCURVE",
"48 0 OFFCURVE",
"116 0 CURVE SMOOTH",
"205 0 LINE",
"205 112 LINE",
"57 112 LINE"
);
},
{
closed = 1;
nodes = (
"179 110 LINE SMOOTH",
"179 110 OFFCURVE",
"179 148 OFFCURVE",
"179 161 CURVE",
"189 161 OFFCURVE",
"370 162 OFFCURVE",
"370 162 CURVE SMOOTH",
"564 162 OFFCURVE",
"594 251 OFFCURVE",
"594 334 CURVE SMOOTH",
"594 386 LINE",
"478 386 LINE",
"478 339 LINE SMOOTH",
"478 268 OFFCURVE",
"455 265 OFFCURVE",
"338 264 CURVE SMOOTH",
"138 264 LINE SMOOTH",
"75 264 OFFCURVE",
"58 226 OFFCURVE",
"57 164 CURVE SMOOTH",
"57 110 LINE SMOOTH"
);
},
{
closed = 1;
nodes = (
"172 477 OFFCURVE",
"47 477 OFFCURVE",
"47 477 CURVE SMOOTH",
"47 398 OFFCURVE",
"61 308 OFFCURVE",
"237 308 CURVE SMOOTH",
"327 308 OFFCURVE",
"401 365 OFFCURVE",
"406 428 CURVE SMOOTH",
"322 517 LINE SMOOTH",
"322 452 OFFCURVE",
"282 430 OFFCURVE",
"237 430 CURVE SMOOTH",
"205 430 OFFCURVE",
"172 442 OFFCURVE",
"172 477 CURVE SMOOTH"
);
}
);
width = 1059;
}
);
unicode = 0B89;
userData = {
com.fontlab.hintData = {
hhints = (
{
position = 0;
width = 122;
},
{
position = 110;
width = 12;
},
{
position = 141;
width = 123;
},
{
position = 308;
width = 122;
},
{
position = 622;
width = 122;
}
);
vhints = (
{
position = 47;
width = 125;
},
{
position = 57;
width = 148;
},
{
position = 478;
width = 116;
}
);
};
};
},
{
glyphname = tml_Uu;
lastChange = "2017-01-29 15:50:26 +0000";
layers = (
{
components = (
{
name = tml_U;
}
);
layerId = "DC4431BF-9234-4C16-9154-22D387E42D10";
paths = (
{
closed = 1;
nodes = (
"926 150 OFFCURVE",
"985 209 OFFCURVE",
"984 261 CURVE SMOOTH",
"983 326 OFFCURVE",
"983 298 OFFCURVE",
"983 333 CURVE SMOOTH",
"983 382 OFFCURVE",
"933 444 OFFCURVE",
"847 444 CURVE SMOOTH",
"847 343 LINE",
"869 342 OFFCURVE",
"882 319 OFFCURVE",
"883 297 CURVE SMOOTH",
"884 272 OFFCURVE",
"872 249 OFFCURVE",
"846 249 CURVE SMOOTH",
"846 149 LINE"
);
},
{
closed = 1;
nodes = (
"659 264 OFFCURVE",
"660 294 OFFCURVE",
"660 259 CURVE SMOOTH",
"660 210 OFFCURVE",
"712 149 OFFCURVE",
"799 149 CURVE SMOOTH",
"799 249 LINE",
"773 249 OFFCURVE",
"761 271 OFFCURVE",
"761 297 CURVE SMOOTH",
"761 321 OFFCURVE",
"776 342 OFFCURVE",
"799 343 CURVE SMOOTH",
"799 444 LINE",
"759 444 OFFCURVE",
"658 415 OFFCURVE",
"659 330 CURVE SMOOTH"
);
},
{
closed = 1;
nodes = (
"664 359 OFFCURVE",
"767 371 OFFCURVE",
"767 418 CURVE SMOOTH",
"767 498 OFFCURVE",
"817 537 OFFCURVE",
"867 537 CURVE SMOOTH",
"870 537 LINE SMOOTH",
"871 637 LINE",
"869 637 LINE SMOOTH",
"724 637 OFFCURVE",
"659 498 OFFCURVE",
"659 415 CURVE",
"659 334 LINE"
);
},
{
closed = 1;
nodes = (
"919 538 LINE SMOOTH",
"963 538 OFFCURVE",
"1014 491 OFFCURVE",
"1015 440 CURVE",
"1016 149 LINE",
"1120 149 LINE",
"1116 441 LINE",
"1115 522 OFFCURVE",
"1055 638 OFFCURVE",
"918 638 CURVE SMOOTH",
"917 638 LINE",
"917 538 LINE"
);
},
{
closed = 1;
nodes = (
"1116 429 LINE",
"1116 482 OFFCURVE",
"1123 537 OFFCURVE",
"1167 537 CURVE",
"1167 638 LINE",
"1148 638 LINE SMOOTH",
"1026 638 OFFCURVE",
"1015 498 OFFCURVE",
"1015 429 CURVE"
);
},
{
closed = 1;
nodes = (
"1396 537 LINE",
"1396 638 LINE",
"1215 638 LINE",
"1215 537 LINE"
);
},
{
closed = 1;
nodes = (
"1336 149 LINE",
"1336 621 LINE",
"1236 621 LINE",
"1236 149 LINE"
);
},
{
closed = 1;
nodes = (
"1381 0 LINE",
"1381 112 LINE",
"259 112 LINE",
"259 0 LINE"
);
}
);
width = 1435;
}
);
unicode = 0B8A;
userData = {
com.fontlab.hintData = {
hhints = (
{
position = 0;
width = 122;
},
{
position = 141;
width = 122;
},
{
position = 149;
width = 101;
},
{
position = 343;
width = 101;
},
{
position = 537;
width = 101;
},
{
position = 545;
width = 159;
},
{
position = 583;
width = 84;
}
);
vhints = (
{
position = 39;
width = 122;
},
{
position = 57;
width = 148;
},
{
position = 301;
width = 122;
},
{
position = 471;
width = 123;
},
{
position = 659;
width = 103;
},
{
position = 659;
width = 140;
},
{
position = 883;
width = 101;
}
);
};
};
},
{
glyphname = tml_E;
lastChange = "2017-01-29 15:50:26 +0000";
layers = (
{
layerId = "DC4431BF-9234-4C16-9154-22D387E42D10";
paths = (
{
closed = 1;
nodes = (
"58 69 OFFCURVE",
"127 1 OFFCURVE",
"229 1 CURVE SMOOTH",
"229 123 LINE",
"199 123 OFFCURVE",
"182 145 OFFCURVE",
"182 182 CURVE SMOOTH",
"182 218 OFFCURVE",
"200 238 OFFCURVE",
"229 238 CURVE SMOOTH",
"229 360 LINE",
"179 360 OFFCURVE",
"57 325 OFFCURVE",
"58 221 CURVE SMOOTH",
"58 179 LINE SMOOTH"
);
},
{
closed = 1;
nodes = (
"383 1 OFFCURVE",
"458 86 OFFCURVE",
"458 148 CURVE SMOOTH",
"458 220 LINE SMOOTH",
"458 310 OFFCURVE",
"399 360 OFFCURVE",
"284 360 CURVE SMOOTH",
"284 238 LINE",
"324 238 OFFCURVE",
"335 216 OFFCURVE",
"336 182 CURVE SMOOTH",
"337 146 OFFCURVE",
"318 123 OFFCURVE",
"284 123 CURVE SMOOTH",
"284 1 LINE"
);
},
{
closed = 1;
nodes = (
"64 258 OFFCURVE",
"184 272 OFFCURVE",
"189 329 CURVE SMOOTH",
"196 406 OFFCURVE",
"236 472 OFFCURVE",
"323 472 CURVE",
"323 595 LINE",
"120 595 OFFCURVE",
"58 396 OFFCURVE",
"58 281 CURVE SMOOTH",
"58 228 LINE"
);
},
{
closed = 1;
nodes = (
"625 0 LINE",
"625 577 LINE",
"503 577 LINE",
"503 0 LINE"
);
},
{
closed = 1;
nodes = (
"736 472 LINE",
"736 595 LINE",
"378 595 LINE",
"378 472 LINE"
);
}
);
width = 761;
}
);
unicode = 0B8E;
userData = {
com.fontlab.hintData = {
hhints = (
{
position = 1;
width = 122;
},
{
position = 238;
width = 122;
},
{
position = 472;
width = 123;
},
{
position = 472;
width = 105;
}
);
vhints = (
{
position = 58;
width = 171;
},
{
position = 58;
width = 131;
},
{
position = 58;
width = 124;
},
{
position = 336;
width = 122;
},
{
position = 503;
width = 122;
}
);
};
};
},
{
glyphname = tml_Ee;
lastChange = "2017-01-29 15:50:26 +0000";
layers = (
{
components = (
{
name = tml_E;
}
);
layerId = "DC4431BF-9234-4C16-9154-22D387E42D10";
paths = (
{
closed = 1;
nodes = (
"478 -176 LINE",
"626 1 LINE SMOOTH",
"628 577 LINE",
"503 577 LINE",
"503 32 LINE",
"334 -176 LINE"
);
}
);
width = 761;
}
);
unicode = 0B8F;
userData = {
com.fontlab.hintData = {
hhints = (
{
position = 1;
width = 122;
},
{
position = 238;
width = 123;
},
{
position = 472;
width = 105;
},
{
position = 472;
width = 123;
}
);
vhints = (
{
position = 58;
width = 124;
},
{
position = 58;
width = 131;
},
{
position = 58;
width = 171;
},
{
position = 336;
width = 123;
},
{
position = 503;
width = 123;
},
{
position = 503;
width = 123;
}
);
};
};
},
{
glyphname = tml_Ai;
lastChange = "2017-01-29 15:50:26 +0000";
layers = (
{
layerId = "DC4431BF-9234-4C16-9154-22D387E42D10";
paths = (
{
closed = 1;
nodes = (
"285 -58 LINE",
"209 -58 OFFCURVE",
"176 -19 OFFCURVE",
"176 46 CURVE SMOOTH",
"176 93 OFFCURVE",
"195 157 OFFCURVE",
"254 157 CURVE SMOOTH",
"286 157 LINE",
"286 280 LINE SMOOTH",
"261 280 LINE SMOOTH",
"106 280 OFFCURVE",
"54 164 OFFCURVE",
"54 83 CURVE SMOOTH",
"54 0 LINE SMOOTH",
"54 -103 OFFCURVE",
"163 -180 OFFCURVE",
"285 -180 CURVE"
);
},
{
closed = 1;
nodes = (
"415 -180 OFFCURVE",
"503 -180 OFFCURVE",
"526 -130 CURVE",
"540 -174 OFFCURVE",
"611 -180 OFFCURVE",
"663 -180 CURVE",
"663 -57 LINE",
"613 -57 OFFCURVE",
"582 -47 OFFCURVE",
"582 -4 CURVE SMOOTH",
"582 118 LINE SMOOTH",
"460 118 LINE SMOOTH",
"460 -4 LINE SMOOTH",
"460 -44 OFFCURVE",
"430 -58 OFFCURVE",
"339 -58 CURVE",
"339 -180 LINE"
);
},
{
closed = 1;
nodes = (
"168 532 LINE SMOOTH",
"168 570 OFFCURVE",
"188 603 OFFCURVE",
"293 603 CURVE SMOOTH",
"415 603 OFFCURVE",
"460 519 OFFCURVE",
"460 413 CURVE SMOOTH",
"460 326 LINE",
"582 326 LINE",
"582 410 LINE",
"582 602 OFFCURVE",
"477 712 OFFCURVE",
"297 712 CURVE SMOOTH",
"155 712 OFFCURVE",
"42 642 OFFCURVE",
"42 532 CURVE SMOOTH"
);
},
{
closed = 1;
nodes = (
"795 158 OFFCURVE",
"907 203 OFFCURVE",
"909 387 CURVE SMOOTH",
"909 461 LINE",
"909 610 OFFCURVE",
"819 688 OFFCURVE",
"717 696 CURVE",
"717 574 LINE",
"764 567 OFFCURVE",
"786 525 OFFCURVE",
"786 461 CURVE",
"786 430 OFFCURVE",
"786 389 OFFCURVE",
"786 389 CURVE SMOOTH",
"786 329 OFFCURVE",
"758 280 OFFCURVE",
"715 280 CURVE SMOOTH",
"715 158 LINE SMOOTH"
);
},
{
closed = 1;
nodes = (
"321 306 OFFCURVE",
"395 363 OFFCURVE",
"400 426 CURVE",
"316 515 LINE SMOOTH",
"316 450 OFFCURVE",
"276 428 OFFCURVE",
"231 428 CURVE SMOOTH",
"200 428 OFFCURVE",
"169 444 OFFCURVE",
"166 475 CURVE SMOOTH",
"166 475 OFFCURVE",
"42 475 OFFCURVE",
"42 475 CURVE",
"42 475 OFFCURVE",
"55 306 OFFCURVE",
"231 306 CURVE SMOOTH"
);
},
{
closed = 1;
nodes = (
"582 326 LINE",
"582 464 LINE SMOOTH",
"582 530 OFFCURVE",
"623 565 OFFCURVE",
"663 573 CURVE",
"663 696 LINE",
"570 687 OFFCURVE",
"460 613 OFFCURVE",
"460 480 CURVE SMOOTH",
"460 326 LINE"
);
},
{
closed = 1;
nodes = (
"839 -180 OFFCURVE",
"905 -87 OFFCURVE",
"905 -3 CURVE SMOOTH",
"905 118 LINE",
"783 118 LINE",
"783 -3 LINE SMOOTH",
"783 -40 OFFCURVE",
"756 -57 OFFCURVE",
"717 -57 CURVE",
"717 -180 LINE"
);
},
{
closed = 1;
nodes = (
"656 158 LINE",
"656 158 OFFCURVE",
"656 280 OFFCURVE",
"656 280 CURVE SMOOTH",
"335 280 LINE",
"335 280 OFFCURVE",
"335 157 OFFCURVE",
"335 157 CURVE"
);
}
);
width = 963;
}
);
unicode = 0B90;
userData = {
com.fontlab.hintData = {
hhints = (
{
position = -180;
width = 122;
},
{
position = 158;
width = 122;
},
{
position = 307;
width = 125;
},
{
position = 569;
width = 127;
}
);
vhints = (
{
position = 39;
width = 122;
},
{
position = 54;
width = 122;
},
{
position = 301;
width = 122;
},
{
position = 460;
width = 122;
},
{
position = 783;
width = 122;
}
);
};
};
},
{
glyphname = tml_O;
lastChange = "2017-01-29 15:50:26 +0000";
layers = (
{
layerId = "DC4431BF-9234-4C16-9154-22D387E42D10";
paths = (
{
closed = 1;
nodes = (
"641 573 OFFCURVE",
"733 458 OFFCURVE",
"733 398 CURVE SMOOTH",
"733 196 LINE SMOOTH",
"732 136 OFFCURVE",
"606 137 OFFCURVE",
"606 196 CURVE",
"606 350 LINE",
"483 350 LINE SMOOTH",
"483 166 LINE SMOOTH",
"483 -16 OFFCURVE",
"857 -17 OFFCURVE",
"857 165 CURVE SMOOTH",
"857 398 LINE SMOOTH",
"857 494 OFFCURVE",
"745 695 OFFCURVE",
"479 695 CURVE",
"479 573 LINE"
);
},
{
closed = 1;
nodes = (
"39 124 OFFCURVE",
"108 29 OFFCURVE",
"210 29 CURVE SMOOTH",
"210 152 LINE",
"180 152 OFFCURVE",
"163 173 OFFCURVE",
"163 210 CURVE SMOOTH",
"163 246 OFFCURVE",
"181 266 OFFCURVE",
"210 266 CURVE SMOOTH",
"210 389 LINE",
"160 389 OFFCURVE",
"38 354 OFFCURVE",
"39 250 CURVE SMOOTH",
"39 177 LINE SMOOTH"
);
},
{
closed = 1;
nodes = (
"364 29 OFFCURVE",
"439 115 OFFCURVE",
"439 177 CURVE SMOOTH",
"439 248 LINE SMOOTH",
"439 309 OFFCURVE",
"364 389 OFFCURVE",
"265 389 CURVE SMOOTH",
"265 266 LINE",
"305 266 OFFCURVE",
"316 244 OFFCURVE",
"317 210 CURVE SMOOTH",
"318 174 OFFCURVE",
"299 152 OFFCURVE",
"265 152 CURVE SMOOTH",
"265 29 LINE"
);
},
{
closed = 1;
nodes = (
"45 286 OFFCURVE",
"179 300 OFFCURVE",
"179 357 CURVE SMOOTH",
"179 456 OFFCURVE",
"243 573 OFFCURVE",
"426 573 CURVE",
"426 695 LINE",
"426 695 LINE SMOOTH",
"121 695 OFFCURVE",
"39 452 OFFCURVE",
"39 310 CURVE",
"39 256 LINE"
);
},
{
closed = 1;
nodes = (
"483 -66 OFFCURVE",
"589 -132 OFFCURVE",
"752 -132 CURVE",
"752 -9 LINE SMOOTH",
"678 -9 OFFCURVE",
"604 3 OFFCURVE",
"604 52 CURVE SMOOTH",
"604 171 LINE SMOOTH",
"483 276 LINE",
"483 25 LINE SMOOTH"
);
},
{
closed = 1;
nodes = (
"244 -298 OFFCURVE",
"501 -297 OFFCURVE",
"567 -155 CURVE",
"462 -94 LINE SMOOTH",
"430 -156 OFFCURVE",
"336 -151 OFFCURVE",
"308 -94 CURVE",
"189 -124 LINE"
);
}
);
width = 895;
}
);
unicode = 0B92;
},
{
glyphname = tml_Oo;
lastChange = "2017-01-29 15:50:26 +0000";
layers = (
{
layerId = "DC4431BF-9234-4C16-9154-22D387E42D10";
paths = (
{
closed = 1;
nodes = (
"641 573 OFFCURVE",
"733 458 OFFCURVE",
"733 398 CURVE SMOOTH",
"733 196 LINE SMOOTH",
"732 136 OFFCURVE",
"606 137 OFFCURVE",
"606 196 CURVE",
"606 350 LINE",
"483 350 LINE SMOOTH",
"483 166 LINE SMOOTH",
"483 -16 OFFCURVE",
"857 -17 OFFCURVE",
"857 165 CURVE SMOOTH",
"857 398 LINE SMOOTH",
"857 494 OFFCURVE",
"745 695 OFFCURVE",
"479 695 CURVE",
"479 573 LINE"
);
},
{
closed = 1;
nodes = (
"216 -226 OFFCURVE",
"279 -300 OFFCURVE",
"382 -301 CURVE SMOOTH",
"488 -302 OFFCURVE",
"563 -206 OFFCURVE",
"586 -163 CURVE",
"474 -98 LINE",
"462 -121 OFFCURVE",
"459 -127 OFFCURVE",
"451 -138 CURVE SMOOTH",
"404 -203 OFFCURVE",
"339 -176 OFFCURVE",
"339 -141 CURVE SMOOTH",
"339 -115 OFFCURVE",
"361 -104 OFFCURVE",
"386 -104 CURVE",
"386 19 LINE",
"256 19 OFFCURVE",
"216 -64 OFFCURVE",
"216 -141 CURVE SMOOTH"
);
},
{
closed = 1;
nodes = (
"39 124 OFFCURVE",
"108 29 OFFCURVE",
"210 29 CURVE SMOOTH",
"210 152 LINE",
"180 152 OFFCURVE",
"163 173 OFFCURVE",
"163 210 CURVE SMOOTH",
"163 246 OFFCURVE",
"181 266 OFFCURVE",
"210 266 CURVE SMOOTH",
"210 389 LINE",
"160 389 OFFCURVE",
"38 354 OFFCURVE",
"39 250 CURVE SMOOTH",
"39 177 LINE SMOOTH"
);
},
{
closed = 1;
nodes = (
"364 29 OFFCURVE",
"439 115 OFFCURVE",
"439 177 CURVE SMOOTH",
"439 248 LINE SMOOTH",
"439 309 OFFCURVE",
"364 389 OFFCURVE",
"265 389 CURVE SMOOTH",
"265 266 LINE",
"305 266 OFFCURVE",
"316 244 OFFCURVE",
"317 210 CURVE SMOOTH",
"318 174 OFFCURVE",
"299 152 OFFCURVE",
"265 152 CURVE SMOOTH",
"265 29 LINE"
);
},
{
closed = 1;
nodes = (
"483 -66 OFFCURVE",
"589 -132 OFFCURVE",
"752 -132 CURVE",
"752 -9 LINE SMOOTH",
"678 -9 OFFCURVE",
"604 3 OFFCURVE",
"604 52 CURVE SMOOTH",
"604 171 LINE SMOOTH",
"483 276 LINE",
"483 25 LINE SMOOTH"
);
},
{
closed = 1;
nodes = (
"45 286 OFFCURVE",
"179 300 OFFCURVE",
"179 357 CURVE SMOOTH",
"179 456 OFFCURVE",
"243 573 OFFCURVE",
"426 573 CURVE",
"426 695 LINE SMOOTH",
"121 695 OFFCURVE",
"39 452 OFFCURVE",
"39 310 CURVE",
"39 256 LINE"
);
}
);
width = 895;
}
);
unicode = 0B93;
userData = {
com.fontlab.hintData = {
hhints = (
{
position = -132;
width = 123;
},
{
position = 29;
width = 122;
},
{
position = 266;
width = 123;
},
{
position = 573;
width = 122;
}
);
vhints = (
{
position = 39;
width = 171;
},
{
position = 39;
width = 124;
},
{
position = 216;
width = 123;
},
{
position = 317;
width = 123;
},
{
position = 483;
width = 123;
},
{
position = 733;
width = 123;
}
);
};
};
},
{
glyphname = tml_Ka;
lastChange = "2017-01-29 15:50:26 +0000";
layers = (
{
anchors = (
{
name = tml_virama;
position = "{431, 0}";
}
);
layerId = "DC4431BF-9234-4C16-9154-22D387E42D10";
paths = (
{
closed = 1;
nodes = (
"295 348 LINE",
"296 539 LINE",
"173 539 LINE",
"173 348 LINE"
);
},
{
closed = 1;
nodes = (
"173 226 LINE",
"173 226 OFFCURVE",
"176 254 OFFCURVE",
"229 254 CURVE SMOOTH",
"611 254 LINE SMOOTH",
"644 254 OFFCURVE",
"663 238 OFFCURVE",
"663 205 CURVE",
"786 205 LINE",
"786 342 OFFCURVE",
"730 371 OFFCURVE",
"603 371 CURVE SMOOTH",
"226 371 LINE SMOOTH",
"130 371 OFFCURVE",
"48 344 OFFCURVE",
"48 226 CURVE"
);
},
{
closed = 1;
nodes = (
"277 112 LINE",
"193 112 OFFCURVE",
"171 126 OFFCURVE",
"169 179 CURVE",
"48 179 LINE",
"48 71 OFFCURVE",
"106 -11 OFFCURVE",
"277 -11 CURVE"
);
},
{
closed = 1;
nodes = (
"498 -11 OFFCURVE",
"550 95 OFFCURVE",
"550 191 CURVE SMOOTH",
"550 541 LINE",
"428 541 LINE",
"428 187 LINE SMOOTH",
"428 141 OFFCURVE",
"397 112 OFFCURVE",
"331 112 CURVE",
"331 -11 LINE"
);
},
{
closed = 1;
nodes = (
"682 470 LINE",
"682 595 LINE",
"389 595 LINE",
"389 470 LINE"
);
},
{
closed = 1;
nodes = (
"335 470 LINE",
"335 595 LINE",
"173 595 LINE",
"173 470 LINE"
);
},
{
closed = 1;
nodes = (
"725 -11 OFFCURVE",
"786 40 OFFCURVE",
"786 155 CURVE",
"662 155 LINE",
"662 155 OFFCURVE",
"656 103 OFFCURVE",
"571 103 CURVE SMOOTH",
"569 -11 LINE"
);
}
);
width = 839;
}
);
unicode = 0B95;
userData = {
com.fontlab.hintData = {
hhints = (
{
position = -11;
width = 123;
},
{
position = 2;
width = 124;
},
{
position = 249;
width = 122;
},
{
position = 348;
width = 23;
},
{
position = 470;
width = 125;
},
{
position = 470;
width = 71;
}
);
vhints = (
{
position = 48;
width = 121;
},
{
position = 173;
width = 162;
},
{
position = 173;
width = 122;
},
{
position = 428;
width = 122;
},
{
position = 664;
width = 122;
}
);
};
};
},
{
glyphname = tml_Nga;
lastChange = "2017-01-29 15:50:26 +0000";
layers = (
{
anchors = (
{
name = tml_virama;
position = "{301, 0}";
}
);
layerId = "DC4431BF-9234-4C16-9154-22D387E42D10";
paths = (
{
closed = 1;
nodes = (
"856 0 LINE",
"856 595 LINE",
"734 595 LINE",
"734 0 LINE"
);
},
{
closed = 1;
nodes = (
"681 0 LINE",
"681 122 LINE",
"333 122 LINE",
"333 0 LINE"
);
},
{
closed = 1;
nodes = (
"471 0 LINE SMOOTH",
"565 0 OFFCURVE",
"626 43 OFFCURVE",
"626 111 CURVE SMOOTH",
"626 229 LINE SMOOTH",
"626 322 OFFCURVE",
"543 354 OFFCURVE",
"457 354 CURVE",
"457 231 LINE SMOOTH",
"507 231 OFFCURVE",
"503 232 OFFCURVE",
"503 211 CURVE SMOOTH",
"503 145 LINE SMOOTH",
"503 126 OFFCURVE",
"506 122 OFFCURVE",
"448 122 CURVE SMOOTH",
"381 122 OFFCURVE",
"308 122 OFFCURVE",
"275 122 CURVE",
"275 0 LINE"
);
},
{
closed = 1;
nodes = (
"403 162 LINE",
"403 589 LINE",
"281 589 LINE",
"281 162 LINE"
);
},
{
closed = 1;
nodes = (
"161 0 LINE",
"161 591 LINE",
"39 591 LINE",
"39 0 LINE"
);
},
{
closed = 1;
nodes = (
"40 473 LINE",
"512 473 LINE",
"512 595 LINE",
"39 595 LINE"
);
}
);
width = 895;
}
);
unicode = 0B99;
userData = {
com.fontlab.hintData = {
hhints = (
{
position = 0;
width = 122;
}
);
vhints = (
{
position = 503;
width = 123;
},
{
position = 734;
width = 122;
}
);
};
};
},
{
glyphname = tml_Ca;
lastChange = "2017-01-29 15:50:26 +0000";
layers = (
{
anchors = (
{
name = tml_virama;
position = "{372, -1}";
}
);
layerId = "DC4431BF-9234-4C16-9154-22D387E42D10";
paths = (
{
closed = 1;
nodes = (
"286 348 LINE",
"287 586 LINE",
"164 586 LINE",
"164 348 LINE"
);
},
{
closed = 1;
nodes = (
"278 121 LINE",
"195 121 OFFCURVE",
"160 128 OFFCURVE",
"160 163 CURVE SMOOTH",
"39 163 LINE",
"39 68 OFFCURVE",
"94 0 OFFCURVE",
"278 -1 CURVE"
);
},
{
closed = 1;
nodes = (
"498 -1 OFFCURVE",
"541 95 OFFCURVE",
"541 191 CURVE SMOOTH",
"541 588 LINE",
"419 588 LINE",
"419 187 LINE SMOOTH",
"419 141 OFFCURVE",
"397 121 OFFCURVE",
"331 121 CURVE",
"331 -1 LINE"
);
},
{
closed = 1;
nodes = (
"688 470 LINE",
"688 589 LINE",
"381 589 LINE",
"381 470 LINE"
);
},
{
closed = 1;
nodes = (
"327 470 LINE",
"327 589 LINE",
"164 589 LINE",
"164 470 LINE"
);
},
{
closed = 1;
nodes = (
"39 213 OFFCURVE",
"161 213 OFFCURVE",
"161 213 CURVE SMOOTH",
"161 242 OFFCURVE",
"180 249 OFFCURVE",
"238 249 CURVE SMOOTH",
"643 249 LINE",
"643 371 LINE",
"235 371 LINE SMOOTH",
"145 371 OFFCURVE",
"39 325 OFFCURVE",
"39 213 CURVE"
);
}
);
width = 744;
}
);
unicode = 0B9A;
userData = {
com.fontlab.hintData = {
hhints = (
{
position = -1;
width = 123;
},
{
position = 249;
width = 122;
},
{
position = 348;
width = 23;
},
{
position = 470;
width = 125;
},
{
position = 470;
width = 118;
}
);
vhints = (
{
position = 39;
width = 121;
},
{
position = 164;
width = 163;
},
{
position = 164;
width = 122;
},
{
position = 419;
width = 122;
}
);
};
};
},
{
glyphname = tml_Ja;
lastChange = "2017-01-29 15:50:26 +0000";
layers = (
{
anchors = (
{
name = tml_virama;
position = "{511, 0}";
}
);
layerId = "DC4431BF-9234-4C16-9154-22D387E42D10";
paths = (
{
closed = 1;
nodes = (
"286 -58 LINE",
"210 -58 OFFCURVE",
"177 -19 OFFCURVE",
"177 46 CURVE SMOOTH",
"177 93 OFFCURVE",
"196 158 OFFCURVE",
"255 158 CURVE SMOOTH",
"736 158 LINE SMOOTH",
"816 158 OFFCURVE",
"908 218 OFFCURVE",
"910 387 CURVE SMOOTH",
"910 448 LINE",
"910 597 OFFCURVE",
"820 676 OFFCURVE",
"718 684 CURVE",
"718 561 LINE",
"765 554 OFFCURVE",
"786 512 OFFCURVE",
"786 448 CURVE",
"786 409 LINE SMOOTH",
"786 349 OFFCURVE",
"793 281 OFFCURVE",
"718 281 CURVE SMOOTH",
"262 281 LINE SMOOTH",
"125 281 OFFCURVE",
"55 164 OFFCURVE",
"55 83 CURVE SMOOTH",
"55 11 LINE SMOOTH",
"55 -92 OFFCURVE",
"164 -180 OFFCURVE",
"286 -180 CURVE"
);
},
{
closed = 1;
nodes = (
"40 402 OFFCURVE",
"119 307 OFFCURVE",
"206 307 CURVE",
"206 431 LINE",
"183 439 OFFCURVE",
"162 466 OFFCURVE",
"162 499 CURVE SMOOTH",
"162 538 OFFCURVE",
"193 569 OFFCURVE",
"232 569 CURVE SMOOTH",
"271 569 OFFCURVE",
"302 538 OFFCURVE",
"302 499 CURVE SMOOTH",
"302 467 OFFCURVE",
"282 440 OFFCURVE",
"260 432 CURVE",
"260 307 LINE",
"342 307 OFFCURVE",
"424 410 OFFCURVE",
"424 471 CURVE SMOOTH",
"424 499 LINE SMOOTH",
"424 588 OFFCURVE",
"342 700 OFFCURVE",
"229 686 CURVE SMOOTH",
"136 674 OFFCURVE",
"41 581 OFFCURVE",
"41 496 CURVE SMOOTH",
"40 471 LINE SMOOTH"
);
},
{
closed = 1;
nodes = (
"159 483 LINE",
"159 587 OFFCURVE",
"263 582 OFFCURVE",
"304 582 CURVE SMOOTH",
"352 582 OFFCURVE",
"461 543 OFFCURVE",
"461 408 CURVE SMOOTH",
"461 320 LINE",
"583 320 LINE",
"583 408 LINE SMOOTH",
"583 612 OFFCURVE",
"446 696 OFFCURVE",
"301 696 CURVE",
"72 696 OFFCURVE",
"40 537 OFFCURVE",
"40 482 CURVE SMOOTH",
"40 472 LINE"
);
},
{
closed = 1;
nodes = (
"347 -178 LINE",
"463 -178 OFFCURVE",
"528 -108 OFFCURVE",
"529 -59 CURVE SMOOTH",
"531 13 OFFCURVE",
"556 17 OFFCURVE",
"580 16 CURVE",
"664 16 LINE",
"664 140 LINE",
"598 140 LINE",
"501 140 OFFCURVE",
"412 90 OFFCURVE",
"410 -1 CURVE SMOOTH",
"409 -50 OFFCURVE",
"387 -55 OFFCURVE",
"347 -55 CURVE"
);
},
{
closed = 1;
nodes = (
"583 371 LINE",
"583 451 LINE SMOOTH",
"583 517 OFFCURVE",
"624 553 OFFCURVE",
"664 561 CURVE",
"664 684 LINE",
"571 675 OFFCURVE",
"461 601 OFFCURVE",
"461 468 CURVE SMOOTH",
"461 371 LINE"
);
},
{
closed = 1;
nodes = (
"619 -177 LINE SMOOTH",
"774 -177 OFFCURVE",
"904 -151 OFFCURVE",
"904 -16 CURVE SMOOTH",
"904 97 OFFCURVE",
"805 140 OFFCURVE",
"718 140 CURVE",
"718 16 LINE",
"758 15 OFFCURVE",
"782 7 OFFCURVE",
"782 -14 CURVE SMOOTH",
"782 -60 OFFCURVE",
"682 -55 OFFCURVE",
"619 -55 CURVE SMOOTH"
);
}
);
width = 950;
}
);
unicode = 0B9C;
userData = {
com.fontlab.hintData = {
hhints = (
{
position = -178;
width = 123;
},
{
position = 16;
width = 124;
},
{
position = 158;
width = 123;
},
{
position = 307;
width = 125;
},
{
position = 561;
width = 123;
},
{
position = 569;
width = 127;
}
);
vhints = (
{
position = 40;
width = 122;
},
{
position = 55;
width = 122;
},
{
position = 302;
width = 122;
},
{
position = 410;
width = 119;
},
{
position = 461;
width = 122;
},
{
position = 782;
width = 122;
}
);
};
};
},
{
glyphname = tml_Nya;
lastChange = "2017-01-29 15:50:26 +0000";
layers = (
{
anchors = (
{
name = tml_virama;
position = "{631, 0}";
}
);
components = (
{
name = tml_E;
transform = "{1, 0, 0, 1, 220, 0}";
}
);
layerId = "DC4431BF-9234-4C16-9154-22D387E42D10";
paths = (
{
closed = 1;
nodes = (
"543 -208 LINE",
"543 -86 LINE",
"259 -86 LINE SMOOTH",
"195 -86 OFFCURVE",
"171 -67 OFFCURVE",
"171 -3 CURVE SMOOTH",
"171 382 LINE SMOOTH",
"171 418 OFFCURVE",
"174 475 OFFCURVE",
"248 475 CURVE SMOOTH",
"248 597 LINE SMOOTH",
"163 597 OFFCURVE",
"49 550 OFFCURVE",
"49 387 CURVE SMOOTH",
"49 -2 LINE SMOOTH",
"49 -141 OFFCURVE",
"134 -208 OFFCURVE",
"243 -208 CURVE SMOOTH"
);
},
{
closed = 1;
nodes = (
"598 -208 LINE",
"836 -208 LINE SMOOTH",
"1010 -208 OFFCURVE",
"1049 -125 OFFCURVE",
"1049 -17 CURVE SMOOTH",
"1049 154 LINE SMOOTH",
"1049 296 OFFCURVE",
"965 323 OFFCURVE",
"880 323 CURVE",
"880 201 LINE SMOOTH",
"922 201 OFFCURVE",
"927 200 OFFCURVE",
"927 154 CURVE SMOOTH",
"926 -17 LINE SMOOTH",
"926 -66 OFFCURVE",
"925 -86 OFFCURVE",
"863 -86 CURVE SMOOTH",
"598 -86 LINE"
);
}
);
width = 1088;
}
);
unicode = 0B9E;
userData = {
com.fontlab.hintData = {
hhints = (
{
position = -208;
width = 122;
},
{
position = 1;
width = 122;
},
{
position = 238;
width = 122;
},
{
position = 472;
width = 105;
},
{
position = 472;
width = 123;
},
{
position = 475;
width = 122;
}
);
vhints = (
{
position = 9;
width = 122;
},
{
position = 278;
width = 124;
},
{
position = 278;
width = 131;
},
{
position = 278;
width = 171;
},
{
position = 556;
width = 122;
},
{
position = 723;
width = 122;
},
{
position = 926;
width = 123;
}
);
};
};
},
{
color = 3;
glyphname = tml_Tta;
lastChange = "2018-07-03 19:32:05 +0000";
layers = (
{
anchors = (
{
name = tml_virama;
position = "{331, 0}";
}
);
layerId = "DC4431BF-9234-4C16-9154-22D387E42D10";
paths = (
{
closed = 1;
nodes = (
"587 0 LINE",
"587 138 LINE",
"166 138 LINE",
"165 553 LINE",
"27 553 LINE",
"28 138 LINE",
"27 0 LINE"
);
}
);
width = 625;
}
);
unicode = 0B9F;
userData = {
com.fontlab.hintData = {
hhints = (
{
position = 0;
width = 122;
}
);
vhints = (
{
position = 27;
width = 122;
}
);
};
};
},
{
glyphname = tml_Nna;
lastChange = "2017-01-29 15:50:26 +0000";
layers = (
{
anchors = (
{
name = tml_virama;
position = "{781, 0}";
}
);
layerId = "DC4431BF-9234-4C16-9154-22D387E42D10";
paths = (
{
closed = 1;
nodes = (
"39 81 OFFCURVE",
"89 -1 OFFCURVE",
"184 -1 CURVE SMOOTH",
"184 121 LINE",
"159 121 OFFCURVE",
"161 155 OFFCURVE",
"161 167 CURVE SMOOTH",
"161 289 LINE SMOOTH",
"161 475 OFFCURVE",
"254 472 OFFCURVE",
"334 472 CURVE",
"334 595 LINE",
"265 595 OFFCURVE",
"39 595 OFFCURVE",
"39 289 CURVE SMOOTH",
"39 166 LINE"
);
},
{
closed = 1;
nodes = (
"230 341 OFFCURVE",
"262 341 OFFCURVE",
"262 289 CURVE SMOOTH",
"262 166 LINE SMOOTH",
"262 155 OFFCURVE",
"266 121 OFFCURVE",
"238 121 CURVE SMOOTH",
"238 -1 LINE",
"335 -1 OFFCURVE",
"384 74 OFFCURVE",
"384 166 CURVE SMOOTH",
"384 289 LINE SMOOTH",
"384 377 OFFCURVE",
"361 436 OFFCURVE",
"294 436 CURVE",
"237 431 OFFCURVE",
"206 375 OFFCURVE",
"209 341 CURVE"
);
},
{
closed = 1;
nodes = (
"422 82 OFFCURVE",
"472 0 OFFCURVE",
"567 0 CURVE SMOOTH",
"567 122 LINE",
"542 122 OFFCURVE",
"544 156 OFFCURVE",
"544 168 CURVE SMOOTH",
"544 289 LINE SMOOTH",
"544 475 OFFCURVE",
"666 472 OFFCURVE",
"755 472 CURVE",
"755 595 LINE",
"690 595 OFFCURVE",
"422 590 OFFCURVE",
"422 287 CURVE SMOOTH",
"422 167 LINE"
);
},
{
closed = 1;
nodes = (
"521 471 OFFCURVE",
"645 475 OFFCURVE",
"645 289 CURVE SMOOTH",
"645 167 LINE SMOOTH",
"645 156 OFFCURVE",
"648 122 OFFCURVE",
"620 122 CURVE SMOOTH",
"620 0 LINE",
"717 0 OFFCURVE",
"767 75 OFFCURVE",
"767 167 CURVE SMOOTH",
"767 300 LINE SMOOTH",
"767 585 OFFCURVE",
"530 595 OFFCURVE",
"388 595 CURVE",
"388 472 LINE"
);
},
{
closed = 1;
nodes = (
"932 473 OFFCURVE",
"1029 476 OFFCURVE",
"1029 290 CURVE SMOOTH",
"1029 168 LINE SMOOTH",
"1029 157 OFFCURVE",
"1034 123 OFFCURVE",
"1006 123 CURVE SMOOTH",
"1006 1 LINE",
"1103 1 OFFCURVE",
"1152 76 OFFCURVE",
"1152 168 CURVE SMOOTH",
"1152 301 LINE SMOOTH",
"1152 586 OFFCURVE",
"941 595 OFFCURVE",
"809 595 CURVE",
"809 473 LINE"
);
},
{
closed = 1;
nodes = (
"807 83 OFFCURVE",
"857 1 OFFCURVE",
"952 1 CURVE SMOOTH",
"952 123 LINE",
"927 123 OFFCURVE",
"929 157 OFFCURVE",
"929 169 CURVE SMOOTH",
"929 290 LINE SMOOTH",
"929 476 OFFCURVE",
"1051 473 OFFCURVE",
"1139 473 CURVE",
"1139 595 LINE",
"1075 595 OFFCURVE",
"807 591 OFFCURVE",
"807 288 CURVE SMOOTH",
"807 168 LINE"
);
},
{
closed = 1;
nodes = (
"1325 1 LINE",
"1325 563 LINE",
"1203 563 LINE",
"1203 1 LINE"
);
},
{
closed = 1;
nodes = (
"1422 472 LINE",
"1422 595 LINE",
"1194 595 LINE",
"1194 473 LINE"
);
}
);
width = 1460;
}
);
unicode = 0BA3;
userData = {
com.fontlab.hintData = {
hhints = (
{
position = -12;
width = 122;
},
{
position = 1;
width = 21;
},
{
position = 484;
width = 122;
},
{
position = 484;
width = 90;
}
);
vhints = (
{
position = 39;
width = 122;
},
{
position = 262;
width = 122;
},
{
position = 422;
width = 122;
},
{
position = 645;
width = 122;
},
{
position = 807;
width = 122;
},
{
position = 1029;
width = 122;
},
{
position = 1203;
width = 122;
}
);
};
};
},
{
glyphname = tml_Ta;
lastChange = "2017-01-29 15:50:26 +0000";
layers = (
{
anchors = (
{
name = tml_virama;
position = "{351, 0}";
}
);
layerId = "DC4431BF-9234-4C16-9154-22D387E42D10";
paths = (
{
closed = 1;
nodes = (
"178 -306 LINE",
"178 -230 OFFCURVE",
"191 -208 OFFCURVE",
"232 -208 CURVE SMOOTH",
"560 -208 LINE SMOOTH",
"713 -208 OFFCURVE",
"733 -92 OFFCURVE",
"733 -26 CURVE SMOOTH",
"733 151 LINE",
"611 151 LINE",
"610 -26 LINE SMOOTH",
"610 -56 OFFCURVE",
"608 -86 OFFCURVE",
"559 -86 CURVE SMOOTH",
"249 -86 LINE SMOOTH",
"113 -86 OFFCURVE",
"50 -157 OFFCURVE",
"50 -306 CURVE"
);
},
{
closed = 1;
nodes = (
"39 64 OFFCURVE",
"109 2 OFFCURVE",
"269 2 CURVE",
"269 125 LINE",
"196 125 OFFCURVE",
"169 120 OFFCURVE",
"162 157 CURVE",
"39 157 LINE"
);
},
{
closed = 1;
nodes = (
"160 212 LINE",
"160 252 OFFCURVE",
"181 252 OFFCURVE",
"238 252 CURVE SMOOTH",
"576 251 LINE",
"618 251 OFFCURVE",
"611 205 OFFCURVE",
"611 205 CURVE SMOOTH",
"733 205 LINE",
"733 352 OFFCURVE",
"655 374 OFFCURVE",
"564 374 CURVE",
"235 374 LINE SMOOTH",
"138 374 OFFCURVE",
"39 332 OFFCURVE",
"39 212 CURVE"
);
},
{
closed = 1;
nodes = (
"489 2 OFFCURVE",
"541 98 OFFCURVE",
"541 194 CURVE SMOOTH",
"541 591 LINE",
"419 591 LINE",
"419 190 LINE SMOOTH",
"419 144 OFFCURVE",
"388 125 OFFCURVE",
"322 125 CURVE",
"322 2 LINE"
);
},
{
closed = 1;
nodes = (
"286 351 LINE",
"287 589 LINE",
"164 589 LINE",
"164 351 LINE"
);
},
{
closed = 1;
nodes = (
"673 473 LINE",
"673 595 LINE",
"380 595 LINE",
"380 473 LINE"
);
},
{
closed = 1;
nodes = (
"326 473 LINE",
"326 595 LINE",
"164 595 LINE",
"164 473 LINE"
);
}
);
width = 790;
}
);
unicode = 0BA4;
userData = {
com.fontlab.hintData = {
hhints = (
{
position = -158;
width = 122;
},
{
position = 2;
width = 123;
},
{
position = 251;
width = 123;
},
{
position = 351;
width = 23;
}
);
vhints = (
{
position = 39;
width = 123;
},
{
position = 130;
width = 128;
},
{
position = 611;
width = 122;
}
);
};
};
},
{
glyphname = tml_Na;
lastChange = "2017-01-29 15:50:26 +0000";
layers = (
{
anchors = (
{
name = tml_virama;
position = "{331, 0}";
}
);
layerId = "DC4431BF-9234-4C16-9154-22D387E42D10";
paths = (
{
closed = 1;
nodes = (
"516 253 OFFCURVE",
"521 252 OFFCURVE",
"521 206 CURVE SMOOTH",
"520 25 LINE SMOOTH",
"520 -5 OFFCURVE",
"517 -86 OFFCURVE",
"468 -86 CURVE SMOOTH",
"247 -86 LINE SMOOTH",
"110 -86 OFFCURVE",
"39 -158 OFFCURVE",
"39 -308 CURVE",
"167 -308 LINE",
"167 -233 OFFCURVE",
"184 -208 OFFCURVE",
"226 -208 CURVE SMOOTH",
"469 -208 LINE SMOOTH",
"622 -208 OFFCURVE",
"643 -41 OFFCURVE",
"643 25 CURVE SMOOTH",
"643 206 LINE SMOOTH",
"643 353 OFFCURVE",
"565 375 OFFCURVE",
"489 375 CURVE",
"489 253 LINE SMOOTH"
);
},
{
closed = 1;
nodes = (
"193 0 LINE",
"193 590 LINE",
"71 590 LINE",
"71 0 LINE"
);
},
{
closed = 1;
nodes = (
"221 474 LINE",
"221 595 LINE",
"71 595 LINE",
"71 474 LINE"
);
},
{
closed = 1;
nodes = (
"437 0 LINE",
"436 588 LINE",
"313 588 LINE",
"312 0 LINE"
);
},
{
closed = 1;
nodes = (
"575 474 LINE",
"575 595 LINE",
"286 595 LINE",
"286 474 LINE"
);
}
);
width = 696;
}
);
unicode = 0BA8;
userData = {
com.fontlab.hintData = {
hhints = (
{
position = -157;
width = 122;
}
);
vhints = (
{
position = 39;
width = 128;
},
{
position = 520;
width = 123;
}
);
};
};
},
{
glyphname = tml_Nnna;
lastChange = "2017-01-29 15:50:26 +0000";
layers = (
{
anchors = (
{
name = tml_virama;
position = "{581, 0}";
}
);
layerId = "DC4431BF-9234-4C16-9154-22D387E42D10";
paths = (
{
closed = 1;
nodes = (
"423 69 OFFCURVE",
"473 -13 OFFCURVE",
"568 -13 CURVE SMOOTH",
"568 109 LINE",
"543 109 OFFCURVE",
"545 143 OFFCURVE",
"545 155 CURVE SMOOTH",
"545 290 LINE SMOOTH",
"545 477 OFFCURVE",
"667 484 OFFCURVE",
"748 484 CURVE",
"748 606 LINE",
"689 606 OFFCURVE",
"423 591 OFFCURVE",
"423 288 CURVE SMOOTH",
"423 154 LINE"
);
},
{
closed = 1;
nodes = (
"522 482 OFFCURVE",
"646 476 OFFCURVE",
"646 290 CURVE SMOOTH",
"646 154 LINE SMOOTH",
"646 143 OFFCURVE",
"650 109 OFFCURVE",
"622 109 CURVE SMOOTH",
"622 -13 LINE",
"719 -13 OFFCURVE",
"768 62 OFFCURVE",
"768 154 CURVE SMOOTH",
"768 301 LINE SMOOTH",
"768 586 OFFCURVE",
"531 605 OFFCURVE",
"389 605 CURVE",
"389 483 LINE"
);
},
{
closed = 1;
nodes = (
"40 68 OFFCURVE",
"91 -14 OFFCURVE",
"186 -14 CURVE SMOOTH",
"186 108 LINE",
"161 108 OFFCURVE",
"162 142 OFFCURVE",
"162 154 CURVE SMOOTH",
"162 290 LINE SMOOTH",
"162 476 OFFCURVE",
"255 483 OFFCURVE",
"335 483 CURVE",
"335 605 LINE",
"266 605 OFFCURVE",
"40 596 OFFCURVE",
"40 290 CURVE SMOOTH",
"40 153 LINE"
);
},
{
closed = 1;
nodes = (
"231 342 OFFCURVE",
"263 342 OFFCURVE",
"263 290 CURVE SMOOTH",
"263 154 LINE SMOOTH",
"263 143 OFFCURVE",
"267 109 OFFCURVE",
"239 109 CURVE SMOOTH",
"239 -14 LINE",
"336 -14 OFFCURVE",
"385 62 OFFCURVE",
"385 154 CURVE SMOOTH",
"385 290 LINE SMOOTH",
"385 378 OFFCURVE",
"362 437 OFFCURVE",
"295 437 CURVE",
"238 432 OFFCURVE",
"207 376 OFFCURVE",
"210 342 CURVE"
);
},
{
closed = 1;
nodes = (
"1037 482 LINE",
"1037 605 LINE",
"801 605 LINE",
"801 483 LINE"
);
},
{
closed = 1;
nodes = (
"941 0 LINE",
"941 573 LINE",
"819 573 LINE",
"819 0 LINE"
);
}
);
width = 1078;
}
);
unicode = 0BA9;
userData = {
com.fontlab.hintData = {
hhints = (
{
position = -14;
width = 122;
},
{
position = 0;
width = 21;
},
{
position = 483;
width = 90;
},
{
position = 483;
width = 122;
}
);
vhints = (
{
position = 40;
width = 122;
},
{
position = 263;
width = 122;
},
{
position = 423;
width = 122;
},
{
position = 646;
width = 122;
},
{
position = 819;
width = 122;
}
);
};
};
},
{
color = 3;
glyphname = tml_Pa;
lastChange = "2018-07-03 18:29:26 +0000";
layers = (
{
anchors = (
{
name = tml_virama;
position = "{289, 0}";
}
);
layerId = "DC4431BF-9234-4C16-9154-22D387E42D10";
paths = (
{
closed = 1;
nodes = (
"177 107 LINE",
"177 553 LINE",
"39 553 LINE",
"39 107 LINE"
);
},
{
closed = 1;
nodes = (
"535 104 LINE",
"535 553 LINE",
"397 553 LINE",
"397 104 LINE"
);
},
{
closed = 1;
nodes = (
"535 0 LINE",
"535 138 LINE",
"315 138 LINE",
"315 0 LINE"
);
},
{
closed = 1;
nodes = (
"259 0 LINE",
"259 138 LINE",
"39 138 LINE",
"39 0 LINE"
);
}
);
width = 573;
}
);
unicode = 0BAA;
userData = {
com.fontlab.hintData = {
hhints = (
{
position = 1;
width = 122;
},
{
position = 107;
width = 17;
}
);
vhints = (
{
position = 39;
width = 202;
},
{
position = 39;
width = 122;
}
);
};
};
},
{
color = 3;
glyphname = tml_Ma;
lastChange = "2018-07-03 18:28:14 +0000";
layers = (
{
anchors = (
{
name = tml_virama;
position = "{411, 0}";
}
);
layerId = "DC4431BF-9234-4C16-9154-22D387E42D10";
paths = (
{
closed = 1;
nodes = (
"567 0 OFFCURVE",
"676 51 OFFCURVE",
"676 197 CURVE SMOOTH",
"676 384 LINE SMOOTH",
"676 514 OFFCURVE",
"601 564 OFFCURVE",
"486 564 CURVE",
"486 421 LINE",
"527 421 OFFCURVE",
"538 396 OFFCURVE",
"538 373 CURVE SMOOTH",
"538 194 LINE SMOOTH",
"538 172 OFFCURVE",
"526 138 OFFCURVE",
"486 138 CURVE",
"486 0 LINE"
);
},
{
closed = 1;
nodes = (
"398 122 LINE",
"398 371 LINE SMOOTH",
"398 396 OFFCURVE",
"403 421 OFFCURVE",
"436 421 CURVE",
"436 564 LINE",
"356 564 OFFCURVE",
"260 523 OFFCURVE",
"260 386 CURVE SMOOTH",
"260 122 LINE SMOOTH"
);
},
{
closed = 1;
nodes = (
"172 107 LINE",
"172 553 LINE",
"34 553 LINE",
"34 107 LINE"
);
},
{
closed = 1;
nodes = (
"436 0 LINE",
"436 138 LINE",
"34 138 LINE",
"34 0 LINE"
);
}
);
width = 709;
}
);
unicode = 0BAE;
userData = {
com.fontlab.hintData = {
hhints = (
{
position = 0;
width = 123;
},
{
position = 107;
width = 17;
},
{
position = 122;
width = 1;
},
{
position = 483;
width = 122;
}
);
vhints = (
{
position = 39;
width = 122;
},
{
position = 243;
width = 122;
},
{
position = 503;
width = 123;
}
);
};
};
},
{
color = 3;
glyphname = tml_Ya;
lastChange = "2018-07-03 19:16:08 +0000";
layers = (
{
anchors = (
{
name = tml_virama;
position = "{401, 0}";
}
);
layerId = "DC4431BF-9234-4C16-9154-22D387E42D10";
paths = (
{
closed = 1;
nodes = (
"699 0 LINE",
"699 553 LINE",
"561 553 LINE",
"561 138 LINE",
"521 138 LINE",
"521 0 LINE"
);
},
{
closed = 1;
nodes = (
"23 49 OFFCURVE",
"126 -8 OFFCURVE",
"200 -8 CURVE",
"200 138 LINE",
"171 138 OFFCURVE",
"161 164 OFFCURVE",
"161 195 CURVE",
"161 553 LINE",
"23 553 LINE",
"23 160 LINE"
);
},
{
closed = 1;
nodes = (
"291 -8 OFFCURVE",
"320 7 OFFCURVE",
"342 33 CURVE",
"350 0 LINE",
"467 0 LINE",
"467 138 LINE",
"427 138 LINE",
"427 553 LINE",
"289 553 LINE",
"289 190 LINE",
"289 151 OFFCURVE",
"265 138 OFFCURVE",
"245 138 CURVE",
"245 -8 LINE"
);
}
);
width = 724;
}
);
unicode = 0BAF;
userData = {
com.fontlab.hintData = {
hhints = (
{
position = 0;
width = 119;
}
);
vhints = (
{
position = 39;
width = 122;
},
{
position = 319;
width = 122;
},
{
position = 529;
width = 156;
},
{
position = 563;
width = 122;
}
);
};
};
},
{
color = 3;
glyphname = tml_Ra;
lastChange = "2018-07-03 19:24:26 +0000";
layers = (
{
anchors = (
{
name = tml_virama;
position = "{272, 0}";
}
);
layerId = "DC4431BF-9234-4C16-9154-22D387E42D10";
paths = (
{
closed = 1;
nodes = (
"178 0 LINE",
"178 431 LINE",
"218 431 LINE",
"218 553 LINE",
"40 553 LINE",
"40 0 LINE"
);
},
{
closed = 1;
nodes = (
"296 -205 LINE",
"446 0 LINE",
"446 431 LINE",
"508 431 LINE",
"508 553 LINE",
"272 553 LINE",
"272 431 LINE",
"312 431 LINE",
"312 37 LINE",
"131 -205 LINE"
);
}
);
width = 538;
}
);
unicode = 0BB0;
userData = {
com.fontlab.hintData = {
hhints = (
{
position = 0;
width = 21;
},
{
position = 473;
width = 122;
}
);
vhints = (
{
position = 39;
width = 178;
},
{
position = 39;
width = 122;
}
);
};
};
},
{
glyphname = tml_Rra;
lastChange = "2017-01-29 15:50:26 +0000";
layers = (
{
anchors = (
{
name = tml_virama;
position = "{371, 0}";
}
);
layerId = "DC4431BF-9234-4C16-9154-22D387E42D10";
paths = (
{
closed = 1;
nodes = (
"161 -311 LINE",
"161 -231 OFFCURVE",
"190 -210 OFFCURVE",
"237 -210 CURVE SMOOTH",
"498 -210 LINE SMOOTH",
"615 -210 OFFCURVE",
"691 -128 OFFCURVE",
"691 64 CURVE SMOOTH",
"691 475 LINE SMOOTH",
"691 530 OFFCURVE",
"640 606 OFFCURVE",
"527 606 CURVE",
"527 484 LINE",
"549 484 OFFCURVE",
"569 481 OFFCURVE",
"569 460 CURVE SMOOTH",
"569 47 LINE SMOOTH",
"569 -30 OFFCURVE",
"557 -88 OFFCURVE",
"472 -88 CURVE SMOOTH",
"233 -88 LINE SMOOTH",
"91 -88 OFFCURVE",
"39 -169 OFFCURVE",
"39 -311 CURVE"
);
},
{
closed = 1;
nodes = (
"194 1 LINE",
"192 458 LINE SMOOTH",
"192 471 OFFCURVE",
"198 483 OFFCURVE",
"223 483 CURVE",
"223 606 LINE",
"111 606 OFFCURVE",
"70 529 OFFCURVE",
"70 479 CURVE SMOOTH",
"70 0 LINE"
);
},
{
closed = 1;
nodes = (
"302 483 OFFCURVE",
"314 472 OFFCURVE",
"314 458 CURVE SMOOTH",
"316 1 LINE",
"438 2 LINE",
"436 459 LINE SMOOTH",
"436 481 OFFCURVE",
"458 484 OFFCURVE",
"476 484 CURVE",
"476 606 LINE",
"437 606 OFFCURVE",
"404 599 OFFCURVE",
"376 576 CURVE",
"352 597 OFFCURVE",
"322 606 OFFCURVE",
"276 606 CURVE",
"276 483 LINE"
);
}
);
width = 750;
}
);
unicode = 0BB1;
userData = {
com.fontlab.hintData = {
hhints = (
{
position = -155;
width = 122;
},
{
position = 0;
width = 21;
},
{
position = 483;
width = 123;
}
);
vhints = (
{
position = 39;
width = 122;
},
{
position = 65;
width = 129;
},
{
position = 316;
width = 122;
},
{
position = 569;
width = 125;
}
);
};
};
},
{
glyphname = tml_La;
lastChange = "2017-01-29 15:50:26 +0000";
layers = (
{
anchors = (
{
name = tml_virama;
position = "{551, 0}";
}
);
layerId = "DC4431BF-9234-4C16-9154-22D387E42D10";
paths = (
{
closed = 1;
nodes = (
"374 0 OFFCURVE",
"435 89 OFFCURVE",
"434 152 CURVE SMOOTH",
"434 224 LINE SMOOTH",
"434 276 OFFCURVE",
"361 359 OFFCURVE",
"265 359 CURVE SMOOTH",
"265 237 LINE",
"307 237 OFFCURVE",
"310 208 OFFCURVE",
"311 181 CURVE SMOOTH",
"312 150 OFFCURVE",
"306 122 OFFCURVE",
"265 122 CURVE SMOOTH",
"265 0 LINE"
);
},
{
closed = 1;
nodes = (
"39 91 OFFCURVE",
"108 0 OFFCURVE",
"210 0 CURVE SMOOTH",
"210 122 LINE",
"177 122 OFFCURVE",
"163 149 OFFCURVE",
"163 181 CURVE SMOOTH",
"163 210 OFFCURVE",
"181 237 OFFCURVE",
"210 237 CURVE SMOOTH",
"210 359 LINE",
"160 359 OFFCURVE",
"38 324 OFFCURVE",
"39 220 CURVE SMOOTH",
"40 140 OFFCURVE",
"39 193 OFFCURVE",
"39 151 CURVE SMOOTH"
);
},
{
closed = 1;
nodes = (
"45 256 OFFCURVE",
"170 270 OFFCURVE",
"170 327 CURVE SMOOTH",
"170 427 OFFCURVE",
"232 485 OFFCURVE",
"297 485 CURVE",
"297 606 LINE",
"118 606 OFFCURVE",
"39 424 OFFCURVE",
"39 323 CURVE SMOOTH",
"39 226 LINE"
);
},
{
closed = 1;
nodes = (
"429 484 OFFCURVE",
"470 418 OFFCURVE",
"471 354 CURVE SMOOTH",
"472 165 LINE SMOOTH",
"472 84 OFFCURVE",
"520 0 OFFCURVE",
"635 0 CURVE",
"635 123 LINE",
"610 123 OFFCURVE",
"594 138 OFFCURVE",
"594 165 CURVE SMOOTH",
"594 353 LINE SMOOTH",
"593 456 OFFCURVE",
"519 606 OFFCURVE",
"351 606 CURVE",
"351 484 LINE"
);
},
{
closed = 1;
nodes = (
"681 471 LINE",
"719 471 OFFCURVE",
"731 458 OFFCURVE",
"731 422 CURVE",
"731 166 LINE",
"731 139 OFFCURVE",
"715 123 OFFCURVE",
"688 123 CURVE",
"688 0 LINE",
"798 0 OFFCURVE",
"854 81 OFFCURVE",
"854 166 CURVE SMOOTH",
"854 424 LINE SMOOTH",
"854 541 OFFCURVE",
"800 595 OFFCURVE",
"680 594 CURVE"
);
}
);
width = 892;
}
);
unicode = 0BB2;
userData = {
com.fontlab.hintData = {
hhints = (
{
position = 0;
width = 122;
},
{
position = 237;
width = 123;
},
{
position = 485;
width = 121;
}
);
vhints = (
{
position = 39;
width = 171;
},
{
position = 39;
width = 131;
},
{
position = 39;
width = 124;
},
{
position = 311;
width = 123;
},
{
position = 472;
width = 122;
},
{
position = 731;
width = 122;
}
);
};
};
},
{
glyphname = tml_Lla;
lastChange = "2017-01-29 15:50:26 +0000";
layers = (
{
anchors = (
{
name = tml_virama;
position = "{531, 0}";
}
);
layerId = "DC4431BF-9234-4C16-9154-22D387E42D10";
paths = (
{
closed = 1;
nodes = (
"41 91 OFFCURVE",
"110 0 OFFCURVE",
"212 0 CURVE SMOOTH",
"212 122 LINE",
"179 122 OFFCURVE",
"165 149 OFFCURVE",
"165 181 CURVE SMOOTH",
"165 210 OFFCURVE",
"183 237 OFFCURVE",
"212 237 CURVE SMOOTH",
"212 359 LINE",
"162 359 OFFCURVE",
"40 324 OFFCURVE",
"41 220 CURVE SMOOTH",
"42 140 OFFCURVE",
"41 193 OFFCURVE",
"41 151 CURVE SMOOTH"
);
},
{
closed = 1;
nodes = (
"376 0 OFFCURVE",
"437 89 OFFCURVE",
"436 152 CURVE SMOOTH",
"436 224 LINE SMOOTH",
"436 276 OFFCURVE",
"363 359 OFFCURVE",
"267 359 CURVE SMOOTH",
"267 237 LINE",
"309 237 OFFCURVE",
"312 208 OFFCURVE",
"313 181 CURVE SMOOTH",
"314 150 OFFCURVE",
"308 122 OFFCURVE",
"267 122 CURVE SMOOTH",
"267 0 LINE"
);
},
{
closed = 1;
nodes = (
"422 484 OFFCURVE",
"473 417 OFFCURVE",
"474 354 CURVE",
"475 0 LINE",
"601 0 LINE",
"597 355 LINE",
"597 454 OFFCURVE",
"515 605 OFFCURVE",
"353 605 CURVE",
"353 484 LINE"
);
},
{
closed = 1;
nodes = (
"47 256 OFFCURVE",
"172 270 OFFCURVE",
"172 327 CURVE SMOOTH",
"172 427 OFFCURVE",
"234 484 OFFCURVE",
"299 484 CURVE",
"299 605 LINE",
"120 605 OFFCURVE",
"41 427 OFFCURVE",
"41 326 CURVE SMOOTH",
"41 226 LINE"
);
},
{
closed = 1;
nodes = (
"597 326 LINE",
"597 454 OFFCURVE",
"619 482 OFFCURVE",
"660 482 CURVE",
"660 605 LINE",
"487 605 OFFCURVE",
"474 440 OFFCURVE",
"474 325 CURVE"
);
},
{
closed = 1;
nodes = (
"864 0 LINE",
"864 574 LINE",
"742 574 LINE",
"742 0 LINE"
);
},
{
closed = 1;
nodes = (
"938 482 LINE",
"938 605 LINE",
"714 605 LINE",
"714 482 LINE"
);
}
);
width = 976;
}
);
unicode = 0BB3;
userData = {
com.fontlab.hintData = {
hhints = (
{
position = 0;
width = 122;
},
{
position = 237;
width = 123;
},
{
position = 482;
width = 123;
}
);
vhints = (
{
position = 41;
width = 171;
},
{
position = 41;
width = 131;
},
{
position = 41;
width = 124;
},
{
position = 313;
width = 123;
}
);
};
};
},
{
glyphname = tml_Llla;
lastChange = "2017-01-29 15:50:26 +0000";
layers = (
{
anchors = (
{
name = tml_virama;
position = "{441, 0}";
}
);
components = (
{
name = tml_Ma;
}
);
layerId = "DC4431BF-9234-4C16-9154-22D387E42D10";
paths = (
{
closed = 1;
nodes = (
"53 -191 OFFCURVE",
"185 -259 OFFCURVE",
"329 -164 CURVE",
"274 -158 OFFCURVE",
"238 -118 OFFCURVE",
"231 -87 CURVE",
"213 -103 OFFCURVE",
"176 -91 OFFCURVE",
"175 -67 CURVE",
"53 -67 LINE"
);
},
{
closed = 1;
nodes = (
"243 -60 OFFCURVE",
"265 -146 OFFCURVE",
"429 -145 CURVE",
"559 -146 LINE SMOOTH",
"559 -22 LINE",
"401 -22 OFFCURVE",
"365 -29 OFFCURVE",
"365 1 CURVE",
"243 1 LINE"
);
}
);
width = 663;
}
);
unicode = 0BB4;
userData = {
com.fontlab.hintData = {
hhints = (
{
position = -145;
width = 123;
},
{
position = 0;
width = 123;
},
{
position = 107;
width = 17;
},
{
position = 122;
width = 1;
},
{
position = 483;
width = 122;
}
);
vhints = (
{
position = 39;
width = 122;
},
{
position = 243;
width = 122;
},
{
position = 503;
width = 123;
}
);
};
};
},
{
glyphname = tml_Va;
lastChange = "2017-01-29 15:50:26 +0000";
layers = (
{
anchors = (
{
name = tml_virama;
position = "{581, 0}";
}
);
layerId = "DC4431BF-9234-4C16-9154-22D387E42D10";
paths = (
{
closed = 1;
nodes = (
"376 0 OFFCURVE",
"437 89 OFFCURVE",
"436 152 CURVE SMOOTH",
"436 224 LINE SMOOTH",
"436 276 OFFCURVE",
"363 359 OFFCURVE",
"267 359 CURVE SMOOTH",
"267 237 LINE",
"298 237 OFFCURVE",
"314 218 OFFCURVE",
"314 180 CURVE SMOOTH",
"314 142 OFFCURVE",
"299 123 OFFCURVE",
"267 122 CURVE",
"267 0 LINE"
);
},
{
closed = 1;
nodes = (
"40 91 OFFCURVE",
"110 0 OFFCURVE",
"212 0 CURVE SMOOTH",
"212 122 LINE",
"179 122 OFFCURVE",
"165 147 OFFCURVE",
"165 181 CURVE SMOOTH",
"165 218 OFFCURVE",
"183 237 OFFCURVE",
"212 237 CURVE SMOOTH",
"212 359 LINE",
"162 359 OFFCURVE",
"39 324 OFFCURVE",
"40 220 CURVE SMOOTH",
"40 151 LINE SMOOTH"
);
},
{
closed = 1;
nodes = (
"176 354 LINE SMOOTH",
"178 439 OFFCURVE",
"237 483 OFFCURVE",
"301 483 CURVE",
"301 605 LINE",
"91 605 OFFCURVE",
"40 433 OFFCURVE",
"40 305 CURVE",
"40 226 LINE"
);
},
{
closed = 1;
nodes = (
"429 483 OFFCURVE",
"487 423 OFFCURVE",
"488 354 CURVE",
"488 146 LINE SMOOTH",
"488 127 OFFCURVE",
"462 124 OFFCURVE",
"455 123 CURVE",
"455 0 LINE",
"656 0 LINE",
"656 123 LINE",
"609 123 LINE",
"609 355 LINE",
"608 466 OFFCURVE",
"521 605 OFFCURVE",
"352 605 CURVE",
"352 483 LINE"
);
},
{
closed = 1;
nodes = (
"834 0 LINE",
"834 595 LINE",
"711 595 LINE",
"711 0 LINE"
);
}
);
width = 873;
}
);
unicode = 0BB5;
},
{
glyphname = tml_Sha;
lastChange = "2017-01-29 15:50:26 +0000";
layers = (
{
anchors = (
{
name = _tml_virama;
position = "{561, 0}";
}
);
layerId = "DC4431BF-9234-4C16-9154-22D387E42D10";
paths = (
{
closed = 1;
nodes = (
"42 112 OFFCURVE",
"66 0 OFFCURVE",
"183 0 CURVE SMOOTH",
"204 0 LINE",
"204 124 LINE",
"177 124 OFFCURVE",
"164 138 OFFCURVE",
"164 168 CURVE SMOOTH",
"164 595 LINE SMOOTH",
"42 595 LINE",
"42 168 LINE SMOOTH"
);
},
{
closed = 1;
nodes = (
"284 0 LINE SMOOTH",
"391 0 OFFCURVE",
"424 109 OFFCURVE",
"424 168 CURVE",
"424 582 LINE",
"302 582 LINE",
"302 168 LINE",
"302 141 OFFCURVE",
"284 124 OFFCURVE",
"258 124 CURVE",
"258 0 LINE"
);
},
{
closed = 1;
nodes = (
"548 112 OFFCURVE",
"571 0 OFFCURVE",
"688 0 CURVE SMOOTH",
"710 0 LINE",
"710 124 LINE",
"683 124 OFFCURVE",
"670 138 OFFCURVE",
"670 168 CURVE SMOOTH",
"670 582 LINE SMOOTH",
"548 582 LINE",
"548 168 LINE SMOOTH"
);
},
{
closed = 1;
nodes = (
"790 0 LINE SMOOTH",
"897 0 OFFCURVE",
"930 109 OFFCURVE",
"930 168 CURVE",
"930 582 LINE",
"808 582 LINE",
"808 168 LINE",
"808 141 OFFCURVE",
"790 124 OFFCURVE",
"764 124 CURVE",
"764 0 LINE"
);
},
{
closed = 1;
nodes = (
"930 473 LINE",
"930 595 LINE",
"302 595 LINE",
"302 473 LINE"
);
}
);
width = 985;
}
);
unicode = 0BB6;
},
{
glyphname = tml_Ssa;
lastChange = "2017-01-29 15:50:26 +0000";
layers = (
{
anchors = (
{
name = tml_virama;
position = "{621, 0}";
}
);
layerId = "DC4431BF-9234-4C16-9154-22D387E42D10";
paths = (
{
closed = 1;
nodes = (
"376 0 OFFCURVE",
"437 89 OFFCURVE",
"436 152 CURVE SMOOTH",
"436 224 LINE SMOOTH",
"436 276 OFFCURVE",
"363 359 OFFCURVE",
"267 359 CURVE SMOOTH",
"267 237 LINE",
"298 237 OFFCURVE",
"314 218 OFFCURVE",
"314 180 CURVE SMOOTH",
"314 142 OFFCURVE",
"299 123 OFFCURVE",
"267 122 CURVE",
"267 0 LINE"
);
},
{
closed = 1;
nodes = (
"40 91 OFFCURVE",
"110 0 OFFCURVE",
"212 0 CURVE SMOOTH",
"212 122 LINE",
"179 122 OFFCURVE",
"165 147 OFFCURVE",
"165 181 CURVE SMOOTH",
"165 218 OFFCURVE",
"183 237 OFFCURVE",
"212 237 CURVE SMOOTH",
"212 359 LINE",
"162 359 OFFCURVE",
"39 324 OFFCURVE",
"40 220 CURVE SMOOTH",
"40 151 LINE SMOOTH"
);
},
{
closed = 1;
nodes = (
"176 354 LINE SMOOTH",
"178 439 OFFCURVE",
"237 483 OFFCURVE",
"301 483 CURVE",
"301 605 LINE",
"91 605 OFFCURVE",
"40 433 OFFCURVE",
"40 305 CURVE",
"40 226 LINE"
);
},
{
closed = 1;
nodes = (
"428 483 OFFCURVE",
"486 424 OFFCURVE",
"487 354 CURVE",
"487 146 LINE SMOOTH",
"487 127 OFFCURVE",
"461 124 OFFCURVE",
"454 123 CURVE",
"454 0 LINE",
"850 0 LINE",
"850 123 LINE",
"608 123 LINE",
"608 355 LINE",
"607 466 OFFCURVE",
"520 605 OFFCURVE",
"351 605 CURVE",
"351 483 LINE"
);
},
{
closed = 1;
nodes = (
"942 485 OFFCURVE",
"962 486 OFFCURVE",
"962 413 CURVE SMOOTH",
"962 158 LINE",
"1084 158 LINE",
"1084 413 LINE SMOOTH",
"1084 561 OFFCURVE",
"1006 607 OFFCURVE",
"903 607 CURVE",
"903 485 LINE"
);
},
{
closed = 1;
nodes = (
"962 -178 LINE",
"1084 -178 LINE",
"1084 123 LINE",
"962 123 LINE"
);
},
{
closed = 1;
nodes = (
"1220 158 LINE",
"1220 280 LINE SMOOTH",
"903 280 LINE",
"903 158 LINE"
);
},
{
closed = 1;
nodes = (
"669 191 OFFCURVE",
"746 158 OFFCURVE",
"850 158 CURVE",
"850 279 LINE",
"806 279 OFFCURVE",
"792 287 OFFCURVE",
"792 340 CURVE SMOOTH",
"792 424 LINE SMOOTH",
"792 463 OFFCURVE",
"805 485 OFFCURVE",
"850 485 CURVE",
"850 607 LINE",
"746 607 OFFCURVE",
"669 570 OFFCURVE",
"669 433 CURVE SMOOTH",
"669 334 LINE SMOOTH"
);
},
{
closed = 1;
nodes = (
"1220 0 LINE",
"1220 280 LINE",
"1120 280 LINE",
"1120 0 LINE"
);
},
{
closed = 1;
nodes = (
"1220 0 LINE",
"1220 123 LINE",
"903 123 LINE",
"903 1 LINE"
);
}
);
width = 1258;
}
);
unicode = 0BB7;
userData = {
com.fontlab.hintData = {
hhints = (
{
position = 0;
width = 123;
},
{
position = 237;
width = 123;
},
{
position = 483;
width = 122;
}
);
vhints = (
{
position = 40;
width = 172;
},
{
position = 40;
width = 125;
},
{
position = 314;
width = 122;
},
{
position = 487;
width = 121;
},
{
position = 669;
width = 123;
},
{
position = 962;
width = 122;
}
);
};
};
},
{
glyphname = tml_Sa;
lastChange = "2017-01-29 15:50:26 +0000";
layers = (
{
anchors = (
{
name = tml_virama;
position = "{531, 0}";
}
);
layerId = "DC4431BF-9234-4C16-9154-22D387E42D10";
paths = (
{
closed = 1;
nodes = (
"751 483 OFFCURVE",
"761 469 OFFCURVE",
"762 402 CURVE SMOOTH",
"762 168 LINE SMOOTH",
"762 96 OFFCURVE",
"792 0 OFFCURVE",
"924 0 CURVE",
"924 124 LINE",
"897 124 OFFCURVE",
"884 138 OFFCURVE",
"884 168 CURVE SMOOTH",
"884 402 LINE",
"883 503 OFFCURVE",
"869 606 OFFCURVE",
"707 606 CURVE",
"707 483 LINE"
);
},
{
closed = 1;
nodes = (
"1103 0 OFFCURVE",
"1144 91 OFFCURVE",
"1144 168 CURVE SMOOTH",
"1144 426 LINE SMOOTH",
"1144 538 OFFCURVE",
"1098 596 OFFCURVE",
"971 596 CURVE",
"971 473 LINE",
"1009 473 OFFCURVE",
"1021 460 OFFCURVE",
"1021 424 CURVE",
"1021 168 LINE",
"1021 141 OFFCURVE",
"1004 124 OFFCURVE",
"978 124 CURVE",
"978 0 LINE"
);
},
{
closed = 1;
nodes = (
"41 61 OFFCURVE",
"110 0 OFFCURVE",
"212 0 CURVE SMOOTH",
"212 122 LINE",
"179 122 OFFCURVE",
"165 149 OFFCURVE",
"165 181 CURVE SMOOTH",
"165 210 OFFCURVE",
"183 237 OFFCURVE",
"212 237 CURVE SMOOTH",
"212 359 LINE",
"162 359 OFFCURVE",
"40 324 OFFCURVE",
"41 220 CURVE SMOOTH",
"42 140 OFFCURVE",
"41 193 OFFCURVE",
"41 151 CURVE SMOOTH"
);
},
{
closed = 1;
nodes = (
"376 0 OFFCURVE",
"437 89 OFFCURVE",
"436 152 CURVE SMOOTH",
"436 224 LINE SMOOTH",
"436 276 OFFCURVE",
"363 359 OFFCURVE",
"267 359 CURVE SMOOTH",
"267 237 LINE",
"309 237 OFFCURVE",
"312 208 OFFCURVE",
"313 181 CURVE SMOOTH",
"314 150 OFFCURVE",
"308 122 OFFCURVE",
"267 122 CURVE SMOOTH",
"267 0 LINE"
);
},
{
closed = 1;
nodes = (
"422 484 OFFCURVE",
"473 417 OFFCURVE",
"474 354 CURVE",
"475 0 LINE",
"601 0 LINE",
"597 355 LINE",
"597 456 OFFCURVE",
"515 605 OFFCURVE",
"353 605 CURVE",
"353 484 LINE"
);
},
{
closed = 1;
nodes = (
"47 256 OFFCURVE",
"172 270 OFFCURVE",
"172 327 CURVE SMOOTH",
"172 427 OFFCURVE",
"234 484 OFFCURVE",
"299 484 CURVE",
"299 605 LINE",
"120 605 OFFCURVE",
"41 427 OFFCURVE",
"41 326 CURVE SMOOTH",
"41 226 LINE"
);
},
{
closed = 1;
nodes = (
"597 326 LINE",
"597 470 OFFCURVE",
"604 482 OFFCURVE",
"653 482 CURVE",
"653 605 LINE",
"480 605 OFFCURVE",
"474 440 OFFCURVE",
"474 325 CURVE"
);
}
);
width = 1187;
}
);
unicode = 0BB8;
userData = {
com.fontlab.hintData = {
hhints = (
{
position = 0;
width = 122;
},
{
position = 237;
width = 123;
},
{
position = 484;
width = 121;
}
);
vhints = (
{
position = 41;
width = 171;
},
{
position = 41;
width = 131;
},
{
position = 41;
width = 124;
},
{
position = 313;
width = 123;
},
{
position = 762;
width = 122;
},
{
position = 1021;
width = 122;
}
);
};
};
},
{
glyphname = tml_Ha;
lastChange = "2017-01-29 15:50:26 +0000";
layers = (
{
anchors = (
{
name = tml_virama;
position = "{1021, 0}";
}
);
layerId = "DC4431BF-9234-4C16-9154-22D387E42D10";
paths = (
{
closed = 1;
nodes = (
"1342 272 LINE",
"1342 473 LINE SMOOTH",
"1341 528 OFFCURVE",
"1290 604 OFFCURVE",
"1177 604 CURVE",
"1177 482 LINE",
"1199 482 OFFCURVE",
"1220 479 OFFCURVE",
"1220 458 CURVE SMOOTH",
"1220 272 LINE"
);
},
{
closed = 1;
nodes = (
"438 474 OFFCURVE",
"496 424 OFFCURVE",
"497 354 CURVE",
"497 146 LINE SMOOTH",
"497 127 OFFCURVE",
"471 124 OFFCURVE",
"464 123 CURVE",
"464 0 LINE",
"665 0 LINE",
"665 123 LINE",
"618 123 LINE",
"618 355 LINE",
"617 482 OFFCURVE",
"530 596 OFFCURVE",
"361 596 CURVE",
"361 474 LINE"
);
},
{
closed = 1;
nodes = (
"952 481 OFFCURVE",
"965 471 OFFCURVE",
"965 457 CURVE SMOOTH",
"965 -1 LINE",
"1088 0 LINE",
"1085 457 LINE SMOOTH",
"1085 479 OFFCURVE",
"1107 482 OFFCURVE",
"1125 482 CURVE",
"1125 604 LINE",
"1086 604 OFFCURVE",
"1054 597 OFFCURVE",
"1026 574 CURVE",
"1002 595 OFFCURVE",
"972 604 OFFCURVE",
"926 604 CURVE",
"926 481 LINE"
);
},
{
closed = 1;
nodes = (
"49 91 OFFCURVE",
"119 0 OFFCURVE",
"221 0 CURVE SMOOTH",
"221 122 LINE",
"188 122 OFFCURVE",
"174 149 OFFCURVE",
"174 181 CURVE SMOOTH",
"174 210 OFFCURVE",
"192 237 OFFCURVE",
"221 237 CURVE SMOOTH",
"221 359 LINE",
"171 359 OFFCURVE",
"48 324 OFFCURVE",
"49 220 CURVE SMOOTH",
"50 140 OFFCURVE",
"49 193 OFFCURVE",
"49 151 CURVE SMOOTH"
);
},
{
closed = 1;
nodes = (
"385 0 OFFCURVE",
"446 89 OFFCURVE",
"445 152 CURVE SMOOTH",
"445 224 LINE SMOOTH",
"445 276 OFFCURVE",
"372 359 OFFCURVE",
"276 359 CURVE SMOOTH",
"276 237 LINE",
"318 237 OFFCURVE",
"321 208 OFFCURVE",
"322 181 CURVE SMOOTH",
"323 150 OFFCURVE",
"317 122 OFFCURVE",
"276 122 CURVE SMOOTH",
"276 0 LINE"
);
},
{
closed = 1;
nodes = (
"843 0 LINE",
"843 456 LINE SMOOTH",
"843 469 OFFCURVE",
"847 481 OFFCURVE",
"872 481 CURVE",
"872 604 LINE",
"760 604 OFFCURVE",
"719 527 OFFCURVE",
"719 477 CURVE SMOOTH",
"719 0 LINE"
);
},
{
closed = 1;
nodes = (
"55 256 OFFCURVE",
"180 299 OFFCURVE",
"185 356 CURVE SMOOTH",
"192 432 OFFCURVE",
"242 474 OFFCURVE",
"307 474 CURVE",
"307 596 LINE",
"79 596 OFFCURVE",
"49 375 OFFCURVE",
"49 282 CURVE SMOOTH",
"49 226 LINE"
);
},
{
closed = 1;
nodes = (
"1220 217 LINE",
"1220 70 LINE SMOOTH",
"1220 -66 OFFCURVE",
"1194 -98 OFFCURVE",
"1122 -98 CURVE SMOOTH",
"960 -98 OFFCURVE",
"400 -98 OFFCURVE",
"308 -98 CURVE SMOOTH",
"152 -98 OFFCURVE",
"102 -158 OFFCURVE",
"102 -311 CURVE",
"224 -311 LINE",
"224 -238 OFFCURVE",
"239 -210 OFFCURVE",
"282 -210 CURVE SMOOTH",
"1149 -210 LINE SMOOTH",
"1293 -210 OFFCURVE",
"1342 -118 OFFCURVE",
"1342 70 CURVE SMOOTH",
"1342 217 LINE"
);
}
);
width = 1409;
}
);
unicode = 0BB9;
userData = {
com.fontlab.hintData = {
hhints = (
{
position = -210;
width = 122;
},
{
position = 0;
width = 123;
},
{
position = 237;
width = 122;
},
{
position = 474;
width = 122;
},
{
position = 481;
width = 123;
}
);
vhints = (
{
position = 49;
width = 172;
},
{
position = 49;
width = 125;
},
{
position = 102;
width = 122;
},
{
position = 322;
width = 123;
},
{
position = 464;
width = 201;
},
{
position = 497;
width = 121;
},
{
position = 719;
width = 124;
},
{
position = 965;
width = 123;
},
{
position = 1220;
width = 122;
}
);
};
};
},
{
glyphname = tml_Om;
lastChange = "2017-01-29 15:50:26 +0000";
layers = (
{
layerId = "DC4431BF-9234-4C16-9154-22D387E42D10";
paths = (
{
closed = 1;
nodes = (
"595 -623 LINE",
"595 -501 LINE",
"331 -501 LINE SMOOTH",
"267 -501 OFFCURVE",
"243 -482 OFFCURVE",
"243 -418 CURVE SMOOTH",
"243 -283 LINE SMOOTH",
"243 -215 OFFCURVE",
"258 -190 OFFCURVE",
"300 -190 CURVE SMOOTH",
"300 -68 LINE SMOOTH",
"215 -68 OFFCURVE",
"121 -115 OFFCURVE",
"121 -278 CURVE SMOOTH",
"121 -417 LINE SMOOTH",
"121 -556 OFFCURVE",
"206 -623 OFFCURVE",
"315 -623 CURVE SMOOTH"
);
},
{
closed = 1;
nodes = (
"662 -623 LINE",
"868 -623 LINE SMOOTH",
"1042 -623 OFFCURVE",
"1081 -540 OFFCURVE",
"1081 -432 CURVE SMOOTH",
"1081 -321 LINE SMOOTH",
"1081 -179 OFFCURVE",
"1020 -152 OFFCURVE",
"912 -152 CURVE",
"912 -274 LINE SMOOTH",
"954 -274 OFFCURVE",
"959 -275 OFFCURVE",
"959 -321 CURVE SMOOTH",
"958 -432 LINE SMOOTH",
"958 -481 OFFCURVE",
"957 -501 OFFCURVE",
"895 -501 CURVE SMOOTH",
"662 -501 LINE"
);
},
{
closed = 1;
nodes = (
"536 86 OFFCURVE",
"558 108 OFFCURVE",
"584 108 CURVE SMOOTH",
"610 108 OFFCURVE",
"632 86 OFFCURVE",
"632 60 CURVE SMOOTH",
"632 34 OFFCURVE",
"610 12 OFFCURVE",
"584 12 CURVE SMOOTH",
"558 12 OFFCURVE",
"536 34 OFFCURVE",
"536 60 CURVE SMOOTH"
);
},
{
closed = 1;
nodes = (
"743 -444 OFFCURVE",
"807 -419 OFFCURVE",
"807 -273 CURVE SMOOTH",
"807 -186 LINE SMOOTH",
"807 -86 OFFCURVE",
"756 -45 OFFCURVE",
"668 -45 CURVE",
"668 -117 LINE",
"709 -117 OFFCURVE",
"725 -140 OFFCURVE",
"725 -186 CURVE SMOOTH",
"725 -291 LINE SMOOTH",
"725 -354 OFFCURVE",
"702 -377 OFFCURVE",
"662 -377 CURVE",
"662 -444 LINE SMOOTH"
);
},
{
closed = 1;
nodes = (
"578 -378 LINE",
"578 -216 LINE SMOOTH",
"578 -163 OFFCURVE",
"579 -117 OFFCURVE",
"624 -117 CURVE",
"624 -45 LINE",
"511 -45 OFFCURVE",
"496 -116 OFFCURVE",
"496 -216 CURVE SMOOTH",
"496 -378 LINE SMOOTH"
);
},
{
closed = 1;
nodes = (
"434 -393 LINE",
"434 -65 LINE",
"352 -65 LINE",
"352 -393 LINE"
);
},
{
closed = 1;
nodes = (
"618 -444 LINE",
"618 -377 LINE",
"352 -377 LINE",
"352 -444 LINE"
);
},
{
closed = 1;
nodes = (
"285 266 LINE",
"325 266 OFFCURVE",
"336 244 OFFCURVE",
"337 210 CURVE SMOOTH",
"338 174 OFFCURVE",
"319 152 OFFCURVE",
"285 152 CURVE SMOOTH",
"285 29 LINE",
"384 29 OFFCURVE",
"459 115 OFFCURVE",
"459 177 CURVE SMOOTH",
"459 248 LINE SMOOTH",
"459 309 OFFCURVE",
"384 389 OFFCURVE",
"285 389 CURVE SMOOTH"
);
},
{
closed = 1;
nodes = (
"180 389 OFFCURVE",
"58 354 OFFCURVE",
"59 250 CURVE SMOOTH",
"59 177 LINE SMOOTH",
"59 124 OFFCURVE",
"128 29 OFFCURVE",
"230 29 CURVE SMOOTH",
"230 152 LINE",
"200 152 OFFCURVE",
"183 173 OFFCURVE",
"183 210 CURVE SMOOTH",
"183 246 OFFCURVE",
"201 266 OFFCURVE",
"230 266 CURVE SMOOTH",
"230 389 LINE"
);
},
{
closed = 1;
nodes = (
"65 286 OFFCURVE",
"199 300 OFFCURVE",
"199 357 CURVE SMOOTH",
"199 513 OFFCURVE",
"284 573 OFFCURVE",
"596 573 CURVE",
"596 695 LINE",
"596 695 LINE SMOOTH",
"136 695 OFFCURVE",
"59 528 OFFCURVE",
"59 310 CURVE",
"59 256 LINE"
);
},
{
closed = 1;
nodes = (
"1157 398 LINE SMOOTH",
"1157 584 OFFCURVE",
"1015 695 OFFCURVE",
"669 695 CURVE",
"669 573 LINE",
"968 573 OFFCURVE",
"1033 492 OFFCURVE",
"1033 398 CURVE SMOOTH",
"1033 196 LINE SMOOTH",
"1032 136 OFFCURVE",
"906 137 OFFCURVE",
"906 196 CURVE",
"906 350 LINE",
"783 350 LINE SMOOTH",
"783 166 LINE SMOOTH",
"783 -16 OFFCURVE",
"1157 -17 OFFCURVE",
"1157 165 CURVE SMOOTH"
);
},
{
closed = 1;
nodes = (
"1052 -9 LINE SMOOTH",
"978 -9 OFFCURVE",
"904 3 OFFCURVE",
"904 52 CURVE SMOOTH",
"904 171 LINE SMOOTH",
"783 276 LINE",
"783 25 LINE SMOOTH",
"783 -66 OFFCURVE",
"889 -132 OFFCURVE",
"1052 -132 CURVE"
);
}
);
width = 1219;
}
);
unicode = 0BD0;
},
{
glyphname = tml_Visarga;
lastChange = "2017-01-29 15:50:26 +0000";
layers = (
{
layerId = "DC4431BF-9234-4C16-9154-22D387E42D10";
paths = (
{
closed = 1;
nodes = (
"233 238 OFFCURVE",
"287 184 OFFCURVE",
"287 117 CURVE SMOOTH",
"287 50 OFFCURVE",
"233 -4 OFFCURVE",
"166 -4 CURVE SMOOTH",
"99 -4 OFFCURVE",
"45 50 OFFCURVE",
"45 117 CURVE SMOOTH",
"45 184 OFFCURVE",
"99 238 OFFCURVE",
"166 238 CURVE SMOOTH"
);
},
{
closed = 1;
nodes = (
"475 610 OFFCURVE",
"528 556 OFFCURVE",
"528 489 CURVE SMOOTH",
"528 422 OFFCURVE",
"475 368 OFFCURVE",
"408 368 CURVE SMOOTH",
"341 368 OFFCURVE",
"287 422 OFFCURVE",
"287 489 CURVE SMOOTH",
"287 556 OFFCURVE",
"341 610 OFFCURVE",
"408 610 CURVE SMOOTH"
);
},
{
closed = 1;
nodes = (
"719 242 OFFCURVE",
"773 188 OFFCURVE",
"773 121 CURVE SMOOTH",
"773 54 OFFCURVE",
"719 0 OFFCURVE",
"652 0 CURVE SMOOTH",
"585 0 OFFCURVE",
"531 54 OFFCURVE",
"531 121 CURVE SMOOTH",
"531 188 OFFCURVE",
"585 242 OFFCURVE",
"652 242 CURVE SMOOTH"
);
}
);
width = 825;
}
);
unicode = 0B83;
},
{
glyphname = si_Bha;
lastChange = "2017-01-29 15:47:48 +0000";
layers = (
{
layerId = "DC4431BF-9234-4C16-9154-22D387E42D10";
paths = (
{
closed = 1;
nodes = (
"463 339 OFFCURVE",
"498 305 OFFCURVE",
"498 216 CURVE SMOOTH",
"498 166 LINE SMOOTH",
"498 45 OFFCURVE",
"437 -8 OFFCURVE",
"320 -8 CURVE",
"320 135 LINE",
"373 135 OFFCURVE",
"374 171 OFFCURVE",
"374 188 CURVE SMOOTH",
"374 204 OFFCURVE",
"373 239 OFFCURVE",
"325 241 CURVE SMOOTH",
"291 241 LINE",
"291 350 LINE SMOOTH",
"291 468 OFFCURVE",
"327 564 OFFCURVE",
"471 564 CURVE",
"471 421 LINE",
"428 421 OFFCURVE",
"429 380 OFFCURVE",
"430 351 CURVE SMOOTH",
"430 349 OFFCURVE",
"430 346 OFFCURVE",
"430 344 CURVE"
);
},
{
closed = 1;
nodes = (
"527 135 LINE",
"579 135 OFFCURVE",
"583 174 OFFCURVE",
"583 198 CURVE SMOOTH",
"583 353 LINE SMOOTH",
"583 381 OFFCURVE",
"579 421 OFFCURVE",
"527 421 CURVE",
"527 564 LINE",
"666 564 OFFCURVE",
"724 475 OFFCURVE",
"724 353 CURVE SMOOTH",
"724 198 LINE SMOOTH",
"724 82 OFFCURVE",
"666 -8 OFFCURVE",
"527 -8 CURVE"
);
},
{
closed = 1;
nodes = (
"126 -8 OFFCURVE",
"68 82 OFFCURVE",
"68 198 CURVE SMOOTH",
"68 254 LINE SMOOTH",
"68 269 OFFCURVE",
"70 283 OFFCURVE",
"75 297 CURVE",
"30 297 LINE",
"30 415 LINE",
"241 415 LINE",
"241 446 OFFCURVE",
"229 462 OFFCURVE",
"198 462 CURVE SMOOTH",
"180 462 OFFCURVE",
"163 454 OFFCURVE",
"159 437 CURVE",
"60 463 LINE",
"83 532 OFFCURVE",
"142 564 OFFCURVE",
"201 564 CURVE SMOOTH",
"273 564 OFFCURVE",
"344 516 OFFCURVE",
"344 433 CURVE SMOOTH",
"344 297 LINE",
"265 297 LINE SMOOTH",
"213 297 OFFCURVE",
"209 264 OFFCURVE",
"209 243 CURVE SMOOTH",
"209 199 LINE SMOOTH",
"209 175 OFFCURVE",
"213 135 OFFCURVE",
"265 135 CURVE",
"265 -8 LINE"
);
}
);
width = 754;
}
);
unicode = 0DB7;
userData = {
com.fontlab.hintData = {
hhints = (
{
position = -8;
width = 143;
},
{
position = 400;
width = 12;
},
{
position = 421;
width = 143;
},
{
position = 462;
width = 102;
}
);
vhints = (
{
position = 68;
width = 141;
},
{
position = 291;
width = 14;
},
{
position = 374;
width = 124;
},
{
position = 583;
width = 141;
}
);
};
};
},
{
glyphname = si_Ca;
lastChange = "2017-01-29 15:47:48 +0000";
layers = (
{
layerId = "DC4431BF-9234-4C16-9154-22D387E42D10";
paths = (
{
closed = 1;
nodes = (
"156 -5 OFFCURVE",
"69 87 OFFCURVE",
"69 192 CURVE SMOOTH",
"69 212 OFFCURVE",
"71 233 OFFCURVE",
"80 252 CURVE",
"30 252 LINE",
"30 354 LINE",
"247 354 LINE",
"247 360 LINE",
"247 389 OFFCURVE",
"226 400 OFFCURVE",
"205 400 CURVE SMOOTH",
"195 400 OFFCURVE",
"170 397 OFFCURVE",
"165 376 CURVE",
"66 402 LINE",
"92 490 OFFCURVE",
"169 503 OFFCURVE",
"205 503 CURVE SMOOTH",
"249 503 OFFCURVE",
"294 486 OFFCURVE",
"317 459 CURVE SMOOTH",
"340 432 OFFCURVE",
"350 406 OFFCURVE",
"350 350 CURVE SMOOTH",
"350 252 LINE",
"266 252 LINE SMOOTH",
"229 252 OFFCURVE",
"208 224 OFFCURVE",
"208 196 CURVE SMOOTH",
"208 166 OFFCURVE",
"231 135 OFFCURVE",
"283 135 CURVE",
"283 -5 LINE"
);
},
{
closed = 1;
nodes = (
"339 135 LINE",
"381 135 OFFCURVE",
"434 149 OFFCURVE",
"434 250 CURVE SMOOTH",
"434 498 LINE SMOOTH",
"434 577 OFFCURVE",
"417 616 OFFCURVE",
"339 616 CURVE",
"339 755 LINE",
"473 755 OFFCURVE",
"574 700 OFFCURVE",
"574 520 CURVE SMOOTH",
"574 250 LINE SMOOTH",
"574 78 OFFCURVE",
"494 -5 OFFCURVE",
"339 -5 CURVE"
);
},
{
closed = 1;
nodes = (
"66 566 LINE",
"66 672 OFFCURVE",
"176 755 OFFCURVE",
"283 755 CURVE",
"283 617 LINE",
"243 617 OFFCURVE",
"203 596 OFFCURVE",
"203 530 CURVE"
);
}
);
width = 604;
}
);
unicode = 0DA0;
userData = {
com.fontlab.hintData = {
hhints = (
{
position = -5;
width = 145;
},
{
position = 252;
width = 102;
},
{
position = 400;
width = 103;
},
{
position = 616;
width = 138;
}
);
vhints = (
{
position = 69;
width = 138;
},
{
position = 247;
width = 103;
},
{
position = 434;
width = 140;
}
);
};
};
},
{
glyphname = si_Cha;
lastChange = "2017-01-29 15:47:48 +0000";
layers = (
{
layerId = "DC4431BF-9234-4C16-9154-22D387E42D10";
paths = (
{
closed = 1;
nodes = (
"112 -12 OFFCURVE",
"34 59 OFFCURVE",
"34 202 CURVE",
"174 202 LINE",
"174 149 OFFCURVE",
"215 123 OFFCURVE",
"278 123 CURVE SMOOTH",
"350 123 LINE SMOOTH",
"415 123 OFFCURVE",
"454 151 OFFCURVE",
"454 202 CURVE",
"454 236 LINE",
"417 235 LINE SMOOTH",
"315 235 OFFCURVE",
"250 310 OFFCURVE",
"250 402 CURVE SMOOTH",
"250 494 OFFCURVE",
"325 569 OFFCURVE",
"418 569 CURVE SMOOTH",
"510 569 OFFCURVE",
"585 494 OFFCURVE",
"585 402 CURVE SMOOTH",
"461 402 LINE SMOOTH",
"461 425 OFFCURVE",
"442 444 OFFCURVE",
"419 444 CURVE SMOOTH",
"396 444 OFFCURVE",
"377 425 OFFCURVE",
"377 402 CURVE SMOOTH",
"377 379 OFFCURVE",
"396 360 OFFCURVE",
"419 360 CURVE SMOOTH",
"434 360 OFFCURVE",
"448 360 OFFCURVE",
"496 360 CURVE",
"574 360 OFFCURVE",
"594 316 OFFCURVE",
"594 262 CURVE",
"594 202 LINE",
"594 64 OFFCURVE",
"511 -12 OFFCURVE",
"342 -12 CURVE SMOOTH",
"289 -12 LINE SMOOTH"
);
},
{
closed = 1;
nodes = (
"35 373 OFFCURVE",
"101 402 OFFCURVE",
"198 402 CURVE SMOOTH",
"250 402 LINE",
"250 442 OFFCURVE",
"210 451 OFFCURVE",
"195 451 CURVE SMOOTH",
"167 451 OFFCURVE",
"152 436 OFFCURVE",
"148 421 CURVE",
"30 460 LINE",
"54 537 OFFCURVE",
"122 575 OFFCURVE",
"193 575 CURVE SMOOTH",
"250 575 OFFCURVE",
"298 557 OFFCURVE",
"332 512 CURVE SMOOTH",
"366 467 OFFCURVE",
"386 394 OFFCURVE",
"386 283 CURVE",
"209 283 LINE SMOOTH",
"176 283 OFFCURVE",
"174 262 OFFCURVE",
"174 251 CURVE",
"35 251 LINE"
);
},
{
closed = 1;
nodes = (
"304 522 LINE",
"510 793 LINE",
"655 755 LINE",
"438 470 LINE"
);
}
);
width = 655;
}
);
unicode = 0DA1;
userData = {
com.fontlab.hintData = {
hhints = (
{
position = -12;
width = 135;
},
{
position = 451;
width = 124;
}
);
vhints = (
{
position = 34;
width = 140;
},
{
position = 250;
width = 136;
}
);
};
};
},
{
glyphname = si_Dda;
lastChange = "2017-01-29 15:47:48 +0000";
layers = (
{
layerId = "DC4431BF-9234-4C16-9154-22D387E42D10";
paths = (
{
closed = 1;
nodes = (
"146 -8 OFFCURVE",
"72 58 OFFCURVE",
"72 160 CURVE SMOOTH",
"72 219 LINE",
"72 226 OFFCURVE",
"72 246 OFFCURVE",
"80 251 CURVE",
"30 251 LINE",
"30 353 LINE",
"281 353 LINE",
"281 388 OFFCURVE",
"260 399 OFFCURVE",
"239 399 CURVE SMOOTH",
"229 399 OFFCURVE",
"204 396 OFFCURVE",
"199 375 CURVE",
"100 401 LINE",
"126 489 OFFCURVE",
"203 502 OFFCURVE",
"239 502 CURVE SMOOTH",
"283 502 OFFCURVE",
"328 485 OFFCURVE",
"351 458 CURVE SMOOTH",
"374 431 OFFCURVE",
"384 405 OFFCURVE",
"384 349 CURVE SMOOTH",
"384 251 LINE",
"242 251 LINE",
"211 251 OFFCURVE",
"207 231 OFFCURVE",
"207 219 CURVE",
"207 166 LINE SMOOTH",
"207 154 OFFCURVE",
"216 132 OFFCURVE",
"246 132 CURVE SMOOTH",
"276 132 OFFCURVE",
"284 153 OFFCURVE",
"284 166 CURVE SMOOTH",
"284 202 LINE",
"384 202 LINE",
"384 166 LINE SMOOTH",
"384 153 OFFCURVE",
"392 132 OFFCURVE",
"422 132 CURVE SMOOTH",
"452 132 OFFCURVE",
"461 154 OFFCURVE",
"461 166 CURVE SMOOTH",
"461 202 LINE",
"602 202 LINE",
"602 160 LINE SMOOTH",
"602 58 OFFCURVE",
"535 -8 OFFCURVE",
"443 -8 CURVE SMOOTH",
"409 -8 OFFCURVE",
"368 3 OFFCURVE",
"339 35 CURVE",
"315 3 OFFCURVE",
"279 -8 OFFCURVE",
"251 -8 CURVE SMOOTH"
);
},
{
closed = 1;
nodes = (
"461 498 LINE SMOOTH",
"461 583 OFFCURVE",
"450 616 OFFCURVE",
"366 616 CURVE",
"366 755 LINE",
"507 755 OFFCURVE",
"602 706 OFFCURVE",
"602 520 CURVE SMOOTH",
"602 202 LINE",
"461 202 LINE"
);
},
{
closed = 1;
nodes = (
"75 678 OFFCURVE",
"197 755 OFFCURVE",
"310 755 CURVE",
"310 617 LINE",
"262 617 OFFCURVE",
"212 602 OFFCURVE",
"212 530 CURVE",
"75 566 LINE"
);
}
);
width = 632;
}
);
unicode = 0DA9;
userData = {
com.fontlab.hintData = {
hhints = (
{
position = -8;
width = 140;
},
{
position = 200;
width = 2;
},
{
position = 251;
width = 102;
},
{
position = 399;
width = 103;
},
{
position = 616;
width = 138;
}
);
vhints = (
{
position = 72;
width = 135;
},
{
position = 284;
width = 100;
},
{
position = 461;
width = 141;
}
);
};
};
},
{
glyphname = si_Dha;
lastChange = "2017-01-29 15:47:48 +0000";
layers = (
{
layerId = "DC4431BF-9234-4C16-9154-22D387E42D10";
paths = (
{
closed = 1;
nodes = (
"105 -8 OFFCURVE",
"30 58 OFFCURVE",
"30 160 CURVE SMOOTH",
"30 262 LINE SMOOTH",
"30 344 OFFCURVE",
"45 474 OFFCURVE",
"241 474 CURVE",
"263 474 LINE",
"263 336 LINE",
"241 336 LINE",
"201 336 OFFCURVE",
"168 322 OFFCURVE",
"168 262 CURVE SMOOTH",
"168 166 LINE SMOOTH",
"168 154 OFFCURVE",
"177 132 OFFCURVE",
"207 132 CURVE SMOOTH",
"237 132 OFFCURVE",
"245 153 OFFCURVE",
"245 166 CURVE SMOOTH",
"245 202 LINE",
"345 202 LINE",
"345 166 LINE SMOOTH",
"345 153 OFFCURVE",
"353 132 OFFCURVE",
"383 132 CURVE SMOOTH",
"413 132 OFFCURVE",
"422 154 OFFCURVE",
"422 166 CURVE SMOOTH",
"422 202 LINE",
"563 202 LINE",
"563 160 LINE SMOOTH",
"563 58 OFFCURVE",
"496 -8 OFFCURVE",
"404 -8 CURVE SMOOTH",
"370 -8 OFFCURVE",
"329 3 OFFCURVE",
"300 35 CURVE",
"276 3 OFFCURVE",
"240 -8 OFFCURVE",
"212 -8 CURVE SMOOTH"
);
},
{
closed = 1;
nodes = (
"422 498 LINE SMOOTH",
"422 583 OFFCURVE",
"411 616 OFFCURVE",
"327 616 CURVE",
"327 755 LINE",
"468 755 OFFCURVE",
"563 706 OFFCURVE",
"563 520 CURVE SMOOTH",
"563 202 LINE",
"422 202 LINE"
);
},
{
closed = 1;
nodes = (
"36 678 OFFCURVE",
"158 755 OFFCURVE",
"271 755 CURVE",
"271 617 LINE",
"223 617 OFFCURVE",
"173 602 OFFCURVE",
"173 530 CURVE",
"36 566 LINE"
);
}
);
width = 593;
}
);
unicode = 0DB0;
userData = {
com.fontlab.hintData = {
hhints = (
{
position = -8;
width = 140;
},
{
position = 200;
width = 2;
},
{
position = 336;
width = 138;
},
{
position = 616;
width = 138;
}
);
vhints = (
{
position = 30;
width = 138;
},
{
position = 245;
width = 100;
},
{
position = 422;
width = 141;
}
);
};
};
},
{
glyphname = si_E;
lastChange = "2017-01-29 15:47:48 +0000";
layers = (
{
layerId = "DC4431BF-9234-4C16-9154-22D387E42D10";
paths = (
{
closed = 1;
nodes = (
"92 490 OFFCURVE",
"169 503 OFFCURVE",
"205 503 CURVE SMOOTH",
"249 503 OFFCURVE",
"294 486 OFFCURVE",
"317 459 CURVE SMOOTH",
"340 432 OFFCURVE",
"350 406 OFFCURVE",
"350 350 CURVE SMOOTH",
"350 252 LINE",
"266 252 LINE SMOOTH",
"236 252 OFFCURVE",
"207 242 OFFCURVE",
"207 195 CURVE SMOOTH",
"207 168 OFFCURVE",
"230 140 OFFCURVE",
"283 140 CURVE",
"283 -5 LINE",
"156 -5 OFFCURVE",
"69 87 OFFCURVE",
"69 192 CURVE SMOOTH",
"69 212 OFFCURVE",
"70 232 OFFCURVE",
"80 252 CURVE",
"30 252 LINE",
"30 354 LINE",
"247 354 LINE",
"247 360 LINE",
"247 389 OFFCURVE",
"226 400 OFFCURVE",
"205 400 CURVE SMOOTH",
"195 400 OFFCURVE",
"170 397 OFFCURVE",
"165 376 CURVE",
"66 402 LINE"
);
},
{
closed = 1;
nodes = (
"295 474 OFFCURVE",
"259 544 OFFCURVE",
"259 617 CURVE SMOOTH",
"259 755 LINE",
"339 755 LINE",
"473 755 OFFCURVE",
"574 700 OFFCURVE",
"574 517 CURVE SMOOTH",
"574 250 LINE",
"434 250 LINE",
"434 498 LINE SMOOTH",
"434 577 OFFCURVE",
"417 616 OFFCURVE",
"339 616 CURVE",
"339 616 OFFCURVE",
"339 616 OFFCURVE",
"339 616 CURVE SMOOTH",
"339 563 OFFCURVE",
"365 547 OFFCURVE",
"398 540 CURVE",
"398 454 LINE"
);
},
{
closed = 1;
nodes = (
"339 140 LINE",
"381 140 OFFCURVE",
"434 154 OFFCURVE",
"434 250 CURVE SMOOTH",
"574 250 LINE SMOOTH",
"574 78 OFFCURVE",
"494 -5 OFFCURVE",
"339 -5 CURVE"
);
}
);
width = 604;
}
);
unicode = 0D91;
userData = {
com.fontlab.hintData = {
hhints = (
{
position = -5;
width = 145;
},
{
position = 249;
width = 1;
},
{
position = 252;
width = 102;
},
{
position = 400;
width = 103;
},
{
position = 454;
width = 86;
},
{
position = 616;
width = 139;
}
);
vhints = (
{
position = 69;
width = 138;
},
{
position = 247;
width = 103;
},
{
position = 259;
width = 80;
},
{
position = 434;
width = 140;
}
);
};
};
},
{
glyphname = si_Ee;
lastChange = "2017-01-29 15:47:48 +0000";
layers = (
{
layerId = "DC4431BF-9234-4C16-9154-22D387E42D10";
paths = (
{
closed = 1;
nodes = (
"30 354 LINE",
"247 354 LINE",
"247 360 LINE",
"247 389 OFFCURVE",
"226 400 OFFCURVE",
"205 400 CURVE SMOOTH",
"195 400 OFFCURVE",
"170 397 OFFCURVE",
"165 376 CURVE",
"66 402 LINE",
"92 490 OFFCURVE",
"169 503 OFFCURVE",
"205 503 CURVE SMOOTH",
"249 503 OFFCURVE",
"294 486 OFFCURVE",
"317 459 CURVE SMOOTH",
"340 432 OFFCURVE",
"350 406 OFFCURVE",
"350 350 CURVE SMOOTH",
"350 252 LINE",
"266 252 LINE SMOOTH",
"236 252 OFFCURVE",
"207 242 OFFCURVE",
"207 195 CURVE SMOOTH",
"207 168 OFFCURVE",
"230 140 OFFCURVE",
"283 140 CURVE",
"283 -5 LINE",
"156 -5 OFFCURVE",
"69 87 OFFCURVE",
"69 192 CURVE SMOOTH",
"69 212 OFFCURVE",
"70 232 OFFCURVE",
"80 252 CURVE",
"30 252 LINE"
);
},
{
closed = 1;
nodes = (
"259 755 LINE",
"339 755 LINE",
"473 755 OFFCURVE",
"574 700 OFFCURVE",
"574 517 CURVE SMOOTH",
"574 250 LINE",
"434 250 LINE",
"434 498 LINE SMOOTH",
"434 577 OFFCURVE",
"417 616 OFFCURVE",
"339 616 CURVE",
"339 616 OFFCURVE",
"339 616 OFFCURVE",
"339 616 CURVE SMOOTH",
"339 563 OFFCURVE",
"365 547 OFFCURVE",
"398 540 CURVE",
"398 454 LINE",
"295 474 OFFCURVE",
"259 544 OFFCURVE",
"259 617 CURVE SMOOTH"
);
},
{
closed = 1;
nodes = (
"339 140 LINE",
"381 140 OFFCURVE",
"434 154 OFFCURVE",
"434 250 CURVE SMOOTH",
"574 250 LINE SMOOTH",
"574 78 OFFCURVE",
"494 -5 OFFCURVE",
"339 -5 CURVE"
);
},
{
closed = 1;
nodes = (
"437 819 LINE",
"573 819 LINE",
"573 518 LINE",
"437 518 LINE"
);
}
);
width = 604;
}
);
unicode = 0D92;
userData = {
com.fontlab.hintData = {
hhints = (
{
position = -5;
width = 145;
},
{
position = 249;
width = 1;
},
{
position = 252;
width = 102;
},
{
position = 400;
width = 103;
},
{
position = 454;
width = 86;
},
{
position = 616;
width = 139;
}
);
vhints = (
{
position = 69;
width = 138;
},
{
position = 247;
width = 103;
},
{
position = 259;
width = 80;
},
{
position = 434;
width = 140;
}
);
};
};
},
{
glyphname = si_Fa;
lastChange = "2017-01-29 15:47:48 +0000";
layers = (
{
layerId = "DC4431BF-9234-4C16-9154-22D387E42D10";
paths = (
{
closed = 1;
nodes = (
"30 396 LINE SMOOTH",
"30 506 OFFCURVE",
"102 564 OFFCURVE",
"212 564 CURVE SMOOTH",
"255 564 OFFCURVE",
"298 552 OFFCURVE",
"328 520 CURVE",
"357 552 OFFCURVE",
"396 564 OFFCURVE",
"437 564 CURVE SMOOTH",
"546 564 OFFCURVE",
"620 498 OFFCURVE",
"620 396 CURVE SMOOTH",
"620 396 OFFCURVE",
"620 251 OFFCURVE",
"620 251 CURVE",
"481 251 LINE",
"481 385 LINE SMOOTH",
"481 411 OFFCURVE",
"458 425 OFFCURVE",
"435 425 CURVE SMOOTH",
"412 425 OFFCURVE",
"389 411 OFFCURVE",
"389 383 CURVE SMOOTH",
"389 383 OFFCURVE",
"389 251 OFFCURVE",
"389 251 CURVE",
"261 251 LINE",
"261 383 LINE SMOOTH",
"261 411 OFFCURVE",
"238 425 OFFCURVE",
"215 425 CURVE SMOOTH",
"192 425 OFFCURVE",
"169 411 OFFCURVE",
"169 385 CURVE SMOOTH",
"169 385 OFFCURVE",
"169 251 OFFCURVE",
"169 251 CURVE",
"30 251 LINE"
);
},
{
closed = 1;
nodes = (
"169 202 LINE SMOOTH",
"169 178 OFFCURVE",
"173 143 OFFCURVE",
"225 143 CURVE",
"225 0 LINE",
"86 0 OFFCURVE",
"30 86 OFFCURVE",
"30 202 CURVE SMOOTH"
);
},
{
closed = 1;
nodes = (
"425 143 LINE",
"477 143 OFFCURVE",
"481 178 OFFCURVE",
"481 202 CURVE SMOOTH",
"620 202 LINE SMOOTH",
"620 86 OFFCURVE",
"564 0 OFFCURVE",
"425 0 CURVE"
);
}
);
width = 650;
}
);
unicode = 0DC6;
userData = {
com.fontlab.hintData = {
hhints = (
{
position = 0;
width = 143;
},
{
position = 425;
width = 139;
}
);
vhints = (
{
position = 30;
width = 139;
},
{
position = 261;
width = 128;
},
{
position = 481;
width = 139;
}
);
};
};
},
{
glyphname = si_Gha;
lastChange = "2017-01-29 15:47:48 +0000";
layers = (
{
layerId = "DC4431BF-9234-4C16-9154-22D387E42D10";
paths = (
{
closed = 1;
nodes = (
"133 -11 OFFCURVE",
"67 55 OFFCURVE",
"67 157 CURVE SMOOTH",
"67 199 LINE",
"206 199 LINE",
"206 166 LINE SMOOTH",
"206 154 OFFCURVE",
"215 132 OFFCURVE",
"245 132 CURVE SMOOTH",
"275 132 OFFCURVE",
"283 153 OFFCURVE",
"283 166 CURVE",
"283 181 OFFCURVE",
"290 204 OFFCURVE",
"317 204 CURVE SMOOTH",
"407 204 LINE SMOOTH",
"434 204 OFFCURVE",
"441 181 OFFCURVE",
"441 166 CURVE",
"441 153 OFFCURVE",
"449 132 OFFCURVE",
"479 132 CURVE SMOOTH",
"509 132 OFFCURVE",
"518 154 OFFCURVE",
"518 166 CURVE SMOOTH",
"518 199 LINE",
"657 199 LINE",
"657 157 LINE SMOOTH",
"657 55 OFFCURVE",
"591 -11 OFFCURVE",
"494 -11 CURVE SMOOTH",
"419 -11 OFFCURVE",
"387 21 OFFCURVE",
"387 68 CURVE SMOOTH",
"387 90 OFFCURVE",
"374 101 OFFCURVE",
"362 101 CURVE SMOOTH",
"349 101 OFFCURVE",
"337 90 OFFCURVE",
"337 68 CURVE SMOOTH",
"337 21 OFFCURVE",
"305 -11 OFFCURVE",
"230 -11 CURVE SMOOTH"
);
},
{
closed = 1;
nodes = (
"102 537 OFFCURVE",
"170 575 OFFCURVE",
"241 575 CURVE SMOOTH",
"283 575 OFFCURVE",
"326 562 OFFCURVE",
"362 536 CURVE",
"398 562 OFFCURVE",
"441 575 OFFCURVE",
"483 575 CURVE SMOOTH",
"554 575 OFFCURVE",
"622 537 OFFCURVE",
"646 460 CURVE",
"528 421 LINE",
"524 436 OFFCURVE",
"509 451 OFFCURVE",
"481 451 CURVE SMOOTH",
"466 451 OFFCURVE",
"426 443 OFFCURVE",
"426 397 CURVE",
"426 378 LINE",
"298 378 LINE",
"298 397 LINE",
"298 443 OFFCURVE",
"258 451 OFFCURVE",
"243 451 CURVE SMOOTH",
"215 451 OFFCURVE",
"200 436 OFFCURVE",
"196 421 CURVE",
"78 460 LINE"
);
},
{
closed = 1;
nodes = (
"30 402 LINE",
"503 402 LINE SMOOTH",
"565 402 OFFCURVE",
"657 392 OFFCURVE",
"657 279 CURVE SMOOTH",
"657 251 LINE",
"518 251 LINE",
"518 251 OFFCURVE",
"518 251 OFFCURVE",
"518 251 CURVE SMOOTH",
"518 266 OFFCURVE",
"509 283 OFFCURVE",
"481 283 CURVE SMOOTH",
"246 283 LINE SMOOTH",
"213 283 OFFCURVE",
"206 263 OFFCURVE",
"206 251 CURVE SMOOTH",
"206 251 OFFCURVE",
"206 251 OFFCURVE",
"206 251 CURVE",
"67 251 LINE",
"67 254 OFFCURVE",
"68 265 OFFCURVE",
"68 273 CURVE SMOOTH",
"69 278 OFFCURVE",
"70 282 OFFCURVE",
"71 283 CURVE",
"30 283 LINE"
);
}
);
width = 687;
}
);
unicode = 0D9D;
userData = {
com.fontlab.hintData = {
hhints = (
{
position = -11;
width = 143;
},
{
position = 101;
width = 103;
},
{
position = 251;
width = 151;
},
{
position = 283;
width = 119;
},
{
position = 378;
width = 24;
},
{
position = 451;
width = 124;
}
);
vhints = (
{
position = 67;
width = 139;
},
{
position = 283;
width = 158;
},
{
position = 298;
width = 128;
},
{
position = 518;
width = 139;
}
);
};
};
},
{
glyphname = si_Ha;
lastChange = "2017-01-29 15:47:48 +0000";
layers = (
{
layerId = "DC4431BF-9234-4C16-9154-22D387E42D10";
paths = (
{
closed = 1;
nodes = (
"425 339 OFFCURVE",
"460 305 OFFCURVE",
"460 216 CURVE SMOOTH",
"460 166 LINE SMOOTH",
"460 45 OFFCURVE",
"399 -8 OFFCURVE",
"282 -8 CURVE",
"282 135 LINE",
"335 135 OFFCURVE",
"336 171 OFFCURVE",
"336 188 CURVE SMOOTH",
"336 204 OFFCURVE",
"335 239 OFFCURVE",
"287 241 CURVE SMOOTH",
"253 241 LINE",
"253 350 LINE SMOOTH",
"253 468 OFFCURVE",
"289 564 OFFCURVE",
"433 564 CURVE",
"433 421 LINE",
"391 421 OFFCURVE",
"391 382 OFFCURVE",
"392 353 CURVE SMOOTH",
"392 350 OFFCURVE",
"392 347 OFFCURVE",
"392 344 CURVE"
);
},
{
closed = 1;
nodes = (
"489 135 LINE",
"541 135 OFFCURVE",
"545 174 OFFCURVE",
"545 198 CURVE SMOOTH",
"545 348 LINE SMOOTH",
"545 376 OFFCURVE",
"541 421 OFFCURVE",
"489 421 CURVE",
"489 564 LINE",
"628 564 OFFCURVE",
"686 474 OFFCURVE",
"686 358 CURVE SMOOTH",
"686 198 LINE SMOOTH",
"686 82 OFFCURVE",
"628 -8 OFFCURVE",
"489 -8 CURVE"
);
},
{
closed = 1;
nodes = (
"88 -8 OFFCURVE",
"30 82 OFFCURVE",
"30 198 CURVE SMOOTH",
"30 238 LINE SMOOTH",
"30 339 OFFCURVE",
"84 418 OFFCURVE",
"213 424 CURVE SMOOTH",
"213 424 OFFCURVE",
"213 424 OFFCURVE",
"213 424 CURVE",
"213 449 OFFCURVE",
"201 462 OFFCURVE",
"170 462 CURVE SMOOTH",
"152 462 OFFCURVE",
"135 454 OFFCURVE",
"131 437 CURVE",
"32 463 LINE",
"55 532 OFFCURVE",
"114 564 OFFCURVE",
"173 564 CURVE SMOOTH",
"245 564 OFFCURVE",
"316 516 OFFCURVE",
"316 433 CURVE SMOOTH",
"316 281 LINE",
"227 281 LINE SMOOTH",
"175 281 OFFCURVE",
"171 248 OFFCURVE",
"171 228 CURVE SMOOTH",
"171 198 LINE SMOOTH",
"171 174 OFFCURVE",
"175 135 OFFCURVE",
"227 135 CURVE",
"227 -8 LINE"
);
}
);
width = 716;
}
);
unicode = 0DC4;
userData = {
com.fontlab.hintData = {
hhints = (
{
position = -8;
width = 143;
},
{
position = 400;
width = 24;
},
{
position = 421;
width = 143;
},
{
position = 462;
width = 102;
}
);
vhints = (
{
position = 38;
width = 141;
},
{
position = 261;
width = 14;
},
{
position = 344;
width = 124;
},
{
position = 553;
width = 141;
}
);
};
};
},
{
glyphname = si_I;
lastChange = "2017-01-29 15:47:48 +0000";
layers = (
{
layerId = "DC4431BF-9234-4C16-9154-22D387E42D10";
paths = (
{
closed = 1;
nodes = (
"196 128 LINE",
"206 128 OFFCURVE",
"215 128 OFFCURVE",
"225 128 CURVE SMOOTH",
"331 128 OFFCURVE",
"402 172 OFFCURVE",
"402 278 CURVE SMOOTH",
"402 336 LINE SMOOTH",
"402 408 OFFCURVE",
"366 428 OFFCURVE",
"312 428 CURVE SMOOTH",
"312 569 LINE SMOOTH",
"328 569 LINE",
"432 569 OFFCURVE",
"539 496 OFFCURVE",
"539 380 CURVE SMOOTH",
"539 249 LINE SMOOTH",
"539 86 OFFCURVE",
"412 0 OFFCURVE",
"287 0 CURVE SMOOTH",
"196 0 LINE"
);
},
{
closed = 1;
nodes = (
"198 -47 LINE",
"203 -67 OFFCURVE",
"227 -78 OFFCURVE",
"248 -78 CURVE SMOOTH",
"277 -78 OFFCURVE",
"297 -61 OFFCURVE",
"297 -45 CURVE",
"434 -45 LINE",
"434 -136 OFFCURVE",
"367 -204 OFFCURVE",
"248 -204 CURVE SMOOTH",
"142 -204 OFFCURVE",
"87 -148 OFFCURVE",
"65 -81 CURVE"
);
},
{
closed = 1;
nodes = (
"30 381 LINE SMOOTH",
"30 496 OFFCURVE",
"137 569 OFFCURVE",
"241 569 CURVE",
"257 569 LINE SMOOTH",
"257 428 LINE",
"241 428 LINE",
"199 428 OFFCURVE",
"168 405 OFFCURVE",
"168 364 CURVE SMOOTH",
"168 346 LINE SMOOTH",
"168 333 OFFCURVE",
"170 316 OFFCURVE",
"196 316 CURVE SMOOTH",
"222 316 OFFCURVE",
"224 333 OFFCURVE",
"224 347 CURVE SMOOTH",
"224 365 LINE",
"354 365 LINE",
"354 356 OFFCURVE",
"354 277 OFFCURVE",
"354 277 CURVE SMOOTH",
"354 229 OFFCURVE",
"331 176 OFFCURVE",
"196 176 CURVE SMOOTH",
"74 176 OFFCURVE",
"30 250 OFFCURVE",
"30 318 CURVE SMOOTH"
);
}
);
width = 569;
}
);
unicode = 0D89;
userData = {
com.fontlab.hintData = {
hhints = (
{
position = -204;
width = 126;
},
{
position = 0;
width = 128;
},
{
position = 176;
width = 140;
},
{
position = 428;
width = 141;
}
);
vhints = (
{
position = 30;
width = 138;
},
{
position = 224;
width = 130;
},
{
position = 402;
width = 137;
}
);
};
};
},
{
glyphname = si_Ii;
lastChange = "2017-01-29 15:47:48 +0000";
layers = (
{
components = (
{
name = si_Ra;
}
);
layerId = "DC4431BF-9234-4C16-9154-22D387E42D10";
paths = (
{
closed = 1;
nodes = (
"463 699 OFFCURVE",
"496 732 OFFCURVE",
"536 732 CURVE SMOOTH",
"576 732 OFFCURVE",
"609 699 OFFCURVE",
"609 659 CURVE SMOOTH",
"609 620 OFFCURVE",
"576 587 OFFCURVE",
"536 587 CURVE SMOOTH",
"496 587 OFFCURVE",
"463 620 OFFCURVE",
"463 659 CURVE SMOOTH"
);
},
{
closed = 1;
nodes = (
"50 809 OFFCURVE",
"83 842 OFFCURVE",
"123 842 CURVE SMOOTH",
"163 842 OFFCURVE",
"196 809 OFFCURVE",
"196 769 CURVE SMOOTH",
"196 730 OFFCURVE",
"163 697 OFFCURVE",
"123 697 CURVE SMOOTH",
"83 697 OFFCURVE",
"50 730 OFFCURVE",
"50 769 CURVE SMOOTH"
);
}
);
width = 609;
}
);
unicode = 0D8A;
userData = {
com.fontlab.hintData = {
hhints = (
{
position = -6;
width = 145;
},
{
position = 587;
width = 145;
},
{
position = 697;
width = 145;
}
);
vhints = (
{
position = 30;
width = 140;
},
{
position = 50;
width = 146;
},
{
position = 375;
width = 140;
},
{
position = 463;
width = 146;
}
);
};
};
},
{
glyphname = si_Ja;
lastChange = "2017-01-29 15:47:48 +0000";
layers = (
{
layerId = "DC4431BF-9234-4C16-9154-22D387E42D10";
paths = (
{
closed = 1;
nodes = (
"54 537 OFFCURVE",
"122 575 OFFCURVE",
"193 575 CURVE SMOOTH",
"235 575 OFFCURVE",
"278 562 OFFCURVE",
"314 536 CURVE",
"350 562 OFFCURVE",
"393 575 OFFCURVE",
"435 575 CURVE SMOOTH",
"506 575 OFFCURVE",
"574 537 OFFCURVE",
"598 460 CURVE",
"480 421 LINE",
"476 436 OFFCURVE",
"461 451 OFFCURVE",
"433 451 CURVE SMOOTH",
"418 451 OFFCURVE",
"378 443 OFFCURVE",
"378 397 CURVE",
"378 378 LINE",
"250 378 LINE",
"250 397 LINE",
"250 443 OFFCURVE",
"210 451 OFFCURVE",
"195 451 CURVE SMOOTH",
"167 451 OFFCURVE",
"152 436 OFFCURVE",
"148 421 CURVE",
"30 460 LINE"
);
},
{
closed = 1;
nodes = (
"112 -12 OFFCURVE",
"34 59 OFFCURVE",
"34 202 CURVE",
"174 202 LINE",
"174 149 OFFCURVE",
"215 123 OFFCURVE",
"278 123 CURVE SMOOTH",
"350 123 LINE SMOOTH",
"415 123 OFFCURVE",
"454 151 OFFCURVE",
"454 202 CURVE",
"594 202 LINE",
"594 64 OFFCURVE",
"511 -12 OFFCURVE",
"342 -12 CURVE SMOOTH",
"289 -12 LINE SMOOTH"
);
},
{
closed = 1;
nodes = (
"35 373 OFFCURVE",
"101 402 OFFCURVE",
"198 402 CURVE SMOOTH",
"423 402 LINE SMOOTH",
"531 402 OFFCURVE",
"594 377 OFFCURVE",
"594 251 CURVE",
"455 251 LINE",
"455 263 OFFCURVE",
"455 283 OFFCURVE",
"426 283 CURVE SMOOTH",
"209 283 LINE SMOOTH",
"176 283 OFFCURVE",
"174 262 OFFCURVE",
"174 251 CURVE",
"35 251 LINE"
);
},
{
closed = 1;
nodes = (
"508 793 LINE",
"653 755 LINE",
"436 470 LINE",
"302 522 LINE"
);
}
);
width = 653;
}
);
unicode = 0DA2;
userData = {
com.fontlab.hintData = {
hhints = (
{
position = -12;
width = 135;
},
{
position = 378;
width = 24;
},
{
position = 451;
width = 124;
}
);
vhints = (
{
position = 34;
width = 140;
},
{
position = 250;
width = 128;
},
{
position = 454;
width = 140;
}
);
};
};
},
{
glyphname = si_Jha;
lastChange = "2017-01-30 13:52:56 +0000";
layers = (
{
layerId = "DC4431BF-9234-4C16-9154-22D387E42D10";
paths = (
{
closed = 1;
nodes = (
"147 255 LINE",
"166 239 OFFCURVE",
"181 221 OFFCURVE",
"181 202 CURVE",
"181 160 LINE SMOOTH",
"181 141 OFFCURVE",
"196 132 OFFCURVE",
"211 132 CURVE SMOOTH",
"225 132 OFFCURVE",
"240 141 OFFCURVE",
"240 160 CURVE SMOOTH",
"240 202 LINE",
"340 202 LINE",
"340 162 LINE SMOOTH",
"340 142 OFFCURVE",
"355 132 OFFCURVE",
"370 132 CURVE SMOOTH",
"385 132 OFFCURVE",
"400 142 OFFCURVE",
"400 162 CURVE SMOOTH",
"400 202 LINE SMOOTH",
"400 233 OFFCURVE",
"394 259 OFFCURVE",
"351 276 CURVE",
"448 354 LINE",
"512 327 OFFCURVE",
"529 280 OFFCURVE",
"529 218 CURVE SMOOTH",
"529 136 LINE SMOOTH",
"529 47 OFFCURVE",
"455 -7 OFFCURVE",
"385 -7 CURVE SMOOTH",
"349 -7 OFFCURVE",
"314 6 OFFCURVE",
"290 36 CURVE",
"270 6 OFFCURVE",
"237 -7 OFFCURVE",
"203 -7 CURVE SMOOTH",
"137 -7 OFFCURVE",
"65 42 OFFCURVE",
"65 106 CURVE SMOOTH",
"65 122 LINE SMOOTH",
"65 142 OFFCURVE",
"64 162 OFFCURVE",
"41 162 CURVE SMOOTH",
"38 162 OFFCURVE",
"34 161 OFFCURVE",
"30 160 CURVE"
);
},
{
closed = 1;
nodes = (
"650 -8 OFFCURVE",
"575 58 OFFCURVE",
"575 160 CURVE SMOOTH",
"575 262 LINE SMOOTH",
"575 323 OFFCURVE",
"583 399 OFFCURVE",
"668 435 CURVE",
"746 454 LINE",
"808 336 LINE",
"786 336 LINE",
"746 336 OFFCURVE",
"713 322 OFFCURVE",
"713 262 CURVE SMOOTH",
"713 166 LINE SMOOTH",
"713 154 OFFCURVE",
"722 132 OFFCURVE",
"752 132 CURVE SMOOTH",
"782 132 OFFCURVE",
"790 153 OFFCURVE",
"790 166 CURVE SMOOTH",
"790 202 LINE",
"890 202 LINE",
"890 166 LINE SMOOTH",
"890 153 OFFCURVE",
"898 132 OFFCURVE",
"928 132 CURVE SMOOTH",
"958 132 OFFCURVE",
"967 154 OFFCURVE",
"967 166 CURVE SMOOTH",
"967 202 LINE",
"1108 202 LINE",
"1108 160 LINE SMOOTH",
"1108 58 OFFCURVE",
"1041 -8 OFFCURVE",
"949 -8 CURVE SMOOTH",
"915 -8 OFFCURVE",
"874 3 OFFCURVE",
"845 35 CURVE",
"821 3 OFFCURVE",
"785 -8 OFFCURVE",
"757 -8 CURVE SMOOTH"
);
},
{
closed = 1;
nodes = (
"30 259 LINE",
"335 509 LINE",
"398 556 OFFCURVE",
"477 578 OFFCURVE",
"551 578 CURVE SMOOTH",
"686 578 OFFCURVE",
"808 509 OFFCURVE",
"808 336 CURVE",
"671 336 LINE",
"671 420 OFFCURVE",
"607 443 OFFCURVE",
"548 443 CURVE SMOOTH",
"506 443 OFFCURVE",
"460 429 OFFCURVE",
"425 400 CURVE",
"155 181 LINE",
"30 160 LINE"
);
},
{
closed = 1;
nodes = (
"967 498 LINE SMOOTH",
"967 583 OFFCURVE",
"948 616 OFFCURVE",
"864 616 CURVE",
"864 755 LINE",
"1005 755 OFFCURVE",
"1108 706 OFFCURVE",
"1108 520 CURVE SMOOTH",
"1108 202 LINE",
"967 202 LINE"
);
},
{
closed = 1;
nodes = (
"44 537 OFFCURVE",
"137 567 OFFCURVE",
"198 567 CURVE SMOOTH",
"271 567 OFFCURVE",
"320 533 OFFCURVE",
"337 502 CURVE",
"245 402 LINE",
"245 437 OFFCURVE",
"214 446 OFFCURVE",
"198 446 CURVE SMOOTH",
"164 446 OFFCURVE",
"147 423 OFFCURVE",
"147 402 CURVE",
"30 439 LINE"
);
},
{
closed = 1;
nodes = (
"635 711 OFFCURVE",
"719 755 OFFCURVE",
"808 755 CURVE",
"808 617 LINE",
"776 617 OFFCURVE",
"752 612 OFFCURVE",
"734 588 CURVE",
"598 637 LINE"
);
}
);
width = 1138;
}
);
unicode = 0DA3;
userData = {
com.fontlab.hintData = {
hhints = (
{
position = -8;
width = 140;
},
{
position = 200;
width = 2;
},
{
position = 336;
width = 138;
},
{
position = 616;
width = 138;
}
);
vhints = (
{
position = 30;
width = 138;
},
{
position = 245;
width = 100;
},
{
position = 422;
width = 141;
}
);
};
};
},
{
glyphname = si_Jnya;
lastChange = "2017-01-29 15:47:48 +0000";
layers = (
{
layerId = "DC4431BF-9234-4C16-9154-22D387E42D10";
paths = (
{
closed = 1;
nodes = (
"652 -8 OFFCURVE",
"583 88 OFFCURVE",
"583 183 CURVE SMOOTH",
"583 277 OFFCURVE",
"649 369 OFFCURVE",
"783 369 CURVE SMOOTH",
"833 369 LINE",
"833 436 OFFCURVE",
"724 420 OFFCURVE",
"711 420 CURVE SMOOTH",
"711 564 LINE",
"798 564 OFFCURVE",
"976 565 OFFCURVE",
"976 369 CURVE SMOOTH",
"976 234 LINE",
"789 234 LINE SMOOTH",
"741 234 OFFCURVE",
"719 208 OFFCURVE",
"719 182 CURVE SMOOTH",
"719 155 OFFCURVE",
"743 128 OFFCURVE",
"790 128 CURVE SMOOTH",
"812 128 OFFCURVE",
"823 128 OFFCURVE",
"827 128 CURVE SMOOTH",
"860 128 OFFCURVE",
"889 132 OFFCURVE",
"902 164 CURVE",
"1030 130 LINE",
"1005 44 OFFCURVE",
"920 -8 OFFCURVE",
"827 -8 CURVE SMOOTH",
"790 -8 LINE SMOOTH"
);
},
{
closed = 1;
nodes = (
"30 287 LINE SMOOTH",
"30 452 OFFCURVE",
"61 564 OFFCURVE",
"265 564 CURVE SMOOTH",
"316 564 OFFCURVE",
"370 564 OFFCURVE",
"421 564 CURVE",
"421 421 LINE",
"224 421 LINE SMOOTH",
"174 421 OFFCURVE",
"166 376 OFFCURVE",
"166 287 CURVE SMOOTH",
"166 197 LINE SMOOTH",
"166 116 OFFCURVE",
"177 76 OFFCURVE",
"241 -1 CURVE",
"111 -41 LINE",
"51 36 OFFCURVE",
"30 106 OFFCURVE",
"30 197 CURVE SMOOTH"
);
},
{
closed = 1;
nodes = (
"465 347 LINE",
"565 347 LINE",
"601 347 OFFCURVE",
"655 304 OFFCURVE",
"655 195 CURVE SMOOTH",
"655 166 LINE SMOOTH",
"655 45 OFFCURVE",
"594 -8 OFFCURVE",
"477 -8 CURVE",
"477 135 LINE SMOOTH",
"530 135 OFFCURVE",
"531 171 OFFCURVE",
"531 188 CURVE SMOOTH",
"531 205 OFFCURVE",
"530 241 OFFCURVE",
"477 241 CURVE SMOOTH",
"465 241 LINE"
);
},
{
closed = 1;
nodes = (
"282 -8 OFFCURVE",
"224 82 OFFCURVE",
"224 198 CURVE SMOOTH",
"224 358 LINE SMOOTH",
"224 474 OFFCURVE",
"282 564 OFFCURVE",
"421 564 CURVE",
"421 421 LINE",
"369 421 OFFCURVE",
"365 376 OFFCURVE",
"365 348 CURVE SMOOTH",
"365 198 LINE SMOOTH",
"365 174 OFFCURVE",
"369 135 OFFCURVE",
"421 135 CURVE",
"421 -8 LINE"
);
},
{
closed = 1;
nodes = (
"448 350 LINE SMOOTH",
"448 468 OFFCURVE",
"484 564 OFFCURVE",
"628 564 CURVE",
"656 564 LINE",
"656 421 LINE",
"628 421 LINE",
"582 421 OFFCURVE",
"587 376 OFFCURVE",
"587 350 CURVE SMOOTH",
"587 241 LINE",
"448 241 LINE SMOOTH"
);
},
{
closed = 1;
nodes = (
"781 -212 OFFCURVE",
"714 -144 OFFCURVE",
"714 -53 CURVE",
"851 -53 LINE",
"851 -69 OFFCURVE",
"871 -86 OFFCURVE",
"900 -86 CURVE SMOOTH",
"921 -86 OFFCURVE",
"945 -75 OFFCURVE",
"950 -55 CURVE",
"1083 -89 LINE",
"1061 -156 OFFCURVE",
"1006 -212 OFFCURVE",
"900 -212 CURVE SMOOTH"
);
}
);
width = 1083;
}
);
unicode = 0DA5;
userData = {
com.fontlab.hintData = {
hhints = (
{
position = -8;
width = 143;
},
{
position = 421;
width = 143;
}
);
vhints = (
{
position = 224;
width = 141;
},
{
position = 448;
width = 139;
},
{
position = 531;
width = 124;
},
{
position = 740;
width = 141;
}
);
};
};
},
{
glyphname = si_Kha;
lastChange = "2017-01-30 14:01:36 +0000";
layers = (
{
layerId = "DC4431BF-9234-4C16-9154-22D387E42D10";
paths = (
{
closed = 1;
nodes = (
"370 -7 OFFCURVE",
"330 59 OFFCURVE",
"330 134 CURVE SMOOTH",
"330 222 LINE",
"395 222 LINE",
"395 176 LINE SMOOTH",
"395 155 OFFCURVE",
"410 145 OFFCURVE",
"425 145 CURVE SMOOTH",
"440 145 OFFCURVE",
"455 155 OFFCURVE",
"455 176 CURVE SMOOTH",
"455 500 LINE SMOOTH",
"455 579 OFFCURVE",
"438 616 OFFCURVE",
"360 616 CURVE",
"329 616 LINE",
"329 755 LINE",
"360 755 LINE",
"494 755 OFFCURVE",
"595 699 OFFCURVE",
"595 500 CURVE SMOOTH",
"595 199 LINE SMOOTH",
"595 48 OFFCURVE",
"557 -7 OFFCURVE",
"465 -7 CURVE SMOOTH"
);
},
{
closed = 1;
nodes = (
"260 261 LINE SMOOTH",
"260 296 OFFCURVE",
"237 313 OFFCURVE",
"213 313 CURVE SMOOTH",
"189 313 OFFCURVE",
"165 295 OFFCURVE",
"165 261 CURVE SMOOTH",
"165 202 LINE SMOOTH",
"165 166 OFFCURVE",
"169 140 OFFCURVE",
"214 140 CURVE",
"214 0 LINE",
"62 0 OFFCURVE",
"30 92 OFFCURVE",
"30 189 CURVE SMOOTH",
"30 273 LINE SMOOTH",
"30 395 OFFCURVE",
"125 452 OFFCURVE",
"218 452 CURVE SMOOTH",
"308 452 OFFCURVE",
"395 399 OFFCURVE",
"395 300 CURVE SMOOTH",
"395 -65 LINE",
"260 -65 LINE"
);
},
{
closed = 1;
nodes = (
"46 566 LINE",
"46 678 OFFCURVE",
"160 755 OFFCURVE",
"273 755 CURVE",
"273 616 LINE",
"225 616 OFFCURVE",
"183 602 OFFCURVE",
"183 530 CURVE"
);
}
);
width = 625;
}
);
unicode = 0D9B;
userData = {
com.fontlab.hintData = {
hhints = (
{
position = 0;
width = 21;
},
{
position = 616;
width = 138;
}
);
vhints = (
{
position = 32;
width = 135;
},
{
position = 262;
width = 135;
},
{
position = 457;
width = 140;
}
);
};
};
},
{
glyphname = si_Mba;
lastChange = "2017-01-29 15:47:48 +0000";
layers = (
{
layerId = "DC4431BF-9234-4C16-9154-22D387E42D10";
paths = (
{
closed = 1;
nodes = (
"95 -11 OFFCURVE",
"30 55 OFFCURVE",
"30 157 CURVE SMOOTH",
"30 339 LINE SMOOTH",
"30 428 OFFCURVE",
"99 473 OFFCURVE",
"164 473 CURVE SMOOTH",
"223 473 OFFCURVE",
"280 437 OFFCURVE",
"280 364 CURVE SMOOTH",
"280 348 LINE SMOOTH",
"280 337 OFFCURVE",
"288 331 OFFCURVE",
"295 331 CURVE SMOOTH",
"303 331 OFFCURVE",
"311 337 OFFCURVE",
"311 348 CURVE SMOOTH",
"311 469 LINE",
"403 469 LINE",
"403 340 LINE SMOOTH",
"403 263 OFFCURVE",
"350 229 OFFCURVE",
"298 229 CURVE SMOOTH",
"247 229 OFFCURVE",
"197 262 OFFCURVE",
"197 320 CURVE SMOOTH",
"197 328 LINE SMOOTH",
"197 341 OFFCURVE",
"189 348 OFFCURVE",
"181 348 CURVE SMOOTH",
"174 348 OFFCURVE",
"166 341 OFFCURVE",
"166 328 CURVE SMOOTH",
"166 166 LINE SMOOTH",
"166 145 OFFCURVE",
"180 135 OFFCURVE",
"195 135 CURVE SMOOTH",
"209 135 OFFCURVE",
"223 145 OFFCURVE",
"223 166 CURVE SMOOTH",
"223 181 OFFCURVE",
"230 204 OFFCURVE",
"257 204 CURVE SMOOTH",
"346 204 LINE SMOOTH",
"373 204 OFFCURVE",
"380 181 OFFCURVE",
"380 166 CURVE SMOOTH",
"380 145 OFFCURVE",
"394 135 OFFCURVE",
"408 135 CURVE SMOOTH",
"423 135 OFFCURVE",
"437 145 OFFCURVE",
"437 167 CURVE SMOOTH",
"437 500 LINE SMOOTH",
"437 608 OFFCURVE",
"382 616 OFFCURVE",
"330 616 CURVE",
"330 755 LINE",
"486 755 OFFCURVE",
"577 687 OFFCURVE",
"577 512 CURVE SMOOTH",
"577 157 LINE SMOOTH",
"577 55 OFFCURVE",
"511 -11 OFFCURVE",
"414 -11 CURVE SMOOTH",
"383 -11 OFFCURVE",
"362 -3 OFFCURVE",
"348 11 CURVE SMOOTH",
"333 25 OFFCURVE",
"327 44 OFFCURVE",
"327 67 CURVE SMOOTH",
"327 89 OFFCURVE",
"314 100 OFFCURVE",
"302 100 CURVE SMOOTH",
"289 100 OFFCURVE",
"277 89 OFFCURVE",
"277 67 CURVE SMOOTH",
"277 44 OFFCURVE",
"271 25 OFFCURVE",
"256 11 CURVE SMOOTH",
"242 -3 OFFCURVE",
"221 -11 OFFCURVE",
"190 -11 CURVE SMOOTH"
);
},
{
closed = 1;
nodes = (
"46 566 LINE",
"46 678 OFFCURVE",
"160 755 OFFCURVE",
"273 755 CURVE",
"273 617 LINE",
"225 617 OFFCURVE",
"183 602 OFFCURVE",
"183 530 CURVE"
);
}
);
width = 607;
}
);
unicode = 0DB9;
userData = {
com.fontlab.hintData = {
hhints = (
{
position = -11;
width = 146;
},
{
position = 100;
width = 104;
},
{
position = 348;
width = 125;
},
{
position = 616;
width = 138;
}
);
vhints = (
{
position = 30;
width = 136;
},
{
position = 223;
width = 157;
},
{
position = 311;
width = 92;
},
{
position = 437;
width = 140;
}
);
};
};
},
{
glyphname = si_Nda;
lastChange = "2017-01-29 15:47:48 +0000";
layers = (
{
layerId = "DC4431BF-9234-4C16-9154-22D387E42D10";
paths = (
{
closed = 1;
nodes = (
"329 0 OFFCURVE",
"222 59 OFFCURVE",
"222 198 CURVE SMOOTH",
"222 334 OFFCURVE",
"315 398 OFFCURVE",
"448 398 CURVE SMOOTH",
"505 398 LINE",
"505 446 OFFCURVE",
"451 454 OFFCURVE",
"433 454 CURVE SMOOTH",
"418 454 OFFCURVE",
"375 454 OFFCURVE",
"364 420 CURVE",
"241 468 LINE",
"277 551 OFFCURVE",
"355 575 OFFCURVE",
"433 575 CURVE SMOOTH",
"542 575 OFFCURVE",
"635 520 OFFCURVE",
"635 385 CURVE SMOOTH",
"634 263 LINE",
"448 263 LINE SMOOTH",
"409 263 OFFCURVE",
"365 257 OFFCURVE",
"365 198 CURVE SMOOTH",
"365 146 OFFCURVE",
"412 136 OFFCURVE",
"449 136 CURVE SMOOTH",
"486 136 LINE SMOOTH",
"519 136 OFFCURVE",
"548 140 OFFCURVE",
"561 172 CURVE",
"689 138 LINE",
"664 52 OFFCURVE",
"579 0 OFFCURVE",
"486 0 CURVE SMOOTH",
"449 0 LINE SMOOTH"
);
},
{
closed = 1;
nodes = (
"43 48 OFFCURVE",
"30 118 OFFCURVE",
"30 209 CURVE SMOOTH",
"30 294 LINE SMOOTH",
"30 474 OFFCURVE",
"142 567 OFFCURVE",
"268 567 CURVE SMOOTH",
"300 567 OFFCURVE",
"332 561 OFFCURVE",
"364 549 CURVE",
"364 420 LINE",
"343 428 OFFCURVE",
"318 434 OFFCURVE",
"292 434 CURVE SMOOTH",
"230 434 OFFCURVE",
"166 401 OFFCURVE",
"166 294 CURVE SMOOTH",
"166 209 LINE SMOOTH",
"166 128 OFFCURVE",
"169 88 OFFCURVE",
"233 11 CURVE",
"103 -29 LINE"
);
},
{
closed = 1;
nodes = (
"440 -204 OFFCURVE",
"373 -136 OFFCURVE",
"373 -45 CURVE",
"510 -45 LINE",
"510 -61 OFFCURVE",
"530 -78 OFFCURVE",
"559 -78 CURVE SMOOTH",
"580 -78 OFFCURVE",
"604 -67 OFFCURVE",
"609 -47 CURVE",
"742 -81 LINE",
"720 -148 OFFCURVE",
"665 -204 OFFCURVE",
"559 -204 CURVE SMOOTH"
);
}
);
width = 742;
}
);
unicode = 0DB3;
userData = {
com.fontlab.hintData = {
hhints = (
{
position = -204;
width = 126;
},
{
position = 0;
width = 136;
},
{
position = 263;
width = 135;
},
{
position = 454;
width = 121;
}
);
vhints = (
{
position = 30;
width = 136;
},
{
position = 222;
width = 143;
}
);
};
};
},
{
glyphname = si_Ndja;
lastChange = "2017-01-29 15:47:48 +0000";
layers = (
{
components = (
{
name = si_Ja;
transform = "{1, 0, 0, 1, 175, 0}";
}
);
layerId = "DC4431BF-9234-4C16-9154-22D387E42D10";
paths = (
{
closed = 1;
nodes = (
"46 36 OFFCURVE",
"30 101 OFFCURVE",
"30 192 CURVE SMOOTH",
"30 332 LINE SMOOTH",
"30 467 OFFCURVE",
"124 572 OFFCURVE",
"245 572 CURVE SMOOTH",
"271 572 OFFCURVE",
"354 569 OFFCURVE",
"321 553 CURVE",
"321 422 LINE",
"287 434 OFFCURVE",
"271 437 OFFCURVE",
"254 437 CURVE SMOOTH",
"211 437 OFFCURVE",
"161 414 OFFCURVE",
"161 307 CURVE SMOOTH",
"161 197 LINE SMOOTH",
"161 116 OFFCURVE",
"172 76 OFFCURVE",
"236 -1 CURVE",
"106 -41 LINE"
);
}
);
width = 828;
}
);
unicode = 0DA6;
},
{
glyphname = si_Nga;
lastChange = "2017-01-29 15:47:48 +0000";
layers = (
{
layerId = "DC4431BF-9234-4C16-9154-22D387E42D10";
paths = (
{
closed = 1;
nodes = (
"105 -8 OFFCURVE",
"30 58 OFFCURVE",
"30 160 CURVE SMOOTH",
"30 197 LINE SMOOTH",
"30 279 OFFCURVE",
"32 351 OFFCURVE",
"168 351 CURVE",
"214 351 LINE",
"214 251 LINE",
"201 251 LINE",
"182 251 OFFCURVE",
"168 242 OFFCURVE",
"168 217 CURVE SMOOTH",
"168 166 LINE SMOOTH",
"168 154 OFFCURVE",
"177 132 OFFCURVE",
"207 132 CURVE SMOOTH",
"237 132 OFFCURVE",
"245 153 OFFCURVE",
"245 166 CURVE SMOOTH",
"245 202 LINE",
"345 202 LINE",
"345 166 LINE SMOOTH",
"345 153 OFFCURVE",
"353 132 OFFCURVE",
"383 132 CURVE SMOOTH",
"413 132 OFFCURVE",
"422 154 OFFCURVE",
"422 166 CURVE SMOOTH",
"422 200 LINE",
"563 200 LINE",
"563 160 LINE SMOOTH",
"563 58 OFFCURVE",
"496 -8 OFFCURVE",
"404 -8 CURVE SMOOTH",
"370 -8 OFFCURVE",
"329 3 OFFCURVE",
"300 35 CURVE",
"276 3 OFFCURVE",
"240 -8 OFFCURVE",
"212 -8 CURVE SMOOTH"
);
},
{
closed = 1;
nodes = (
"53 436 OFFCURVE",
"93 497 OFFCURVE",
"173 497 CURVE",
"238 497 LINE",
"318 497 OFFCURVE",
"358 435 OFFCURVE",
"358 374 CURVE SMOOTH",
"358 312 OFFCURVE",
"318 251 OFFCURVE",
"238 251 CURVE",
"214 251 LINE",
"214 351 LINE",
"229 351 LINE SMOOTH",
"244 351 OFFCURVE",
"252 363 OFFCURVE",
"252 374 CURVE SMOOTH",
"252 386 OFFCURVE",
"245 397 OFFCURVE",
"229 397 CURVE SMOOTH",
"174 397 LINE",
"158 397 OFFCURVE",
"151 385 OFFCURVE",
"151 374 CURVE SMOOTH",
"53 374 LINE SMOOTH"
);
},
{
closed = 1;
nodes = (
"422 496 LINE SMOOTH",
"422 581 OFFCURVE",
"411 614 OFFCURVE",
"327 614 CURVE",
"327 753 LINE",
"468 753 OFFCURVE",
"563 704 OFFCURVE",
"563 518 CURVE SMOOTH",
"563 200 LINE",
"422 200 LINE"
);
},
{
closed = 1;
nodes = (
"36 676 OFFCURVE",
"158 753 OFFCURVE",
"271 753 CURVE",
"271 615 LINE",
"223 615 OFFCURVE",
"173 600 OFFCURVE",
"173 528 CURVE",
"36 564 LINE"
);
}
);
width = 593;
}
);
unicode = 0D9E;
userData = {
com.fontlab.hintData = {
vhints = (
{
position = 30;
width = 138;
},
{
position = 245;
width = 100;
},
{
position = 287;
width = 105;
},
{
position = 422;
width = 141;
}
);
};
};
},
{
glyphname = si_Nndda;
lastChange = "2017-01-29 15:47:48 +0000";
layers = (
{
layerId = "DC4431BF-9234-4C16-9154-22D387E42D10";
paths = (
{
closed = 1;
nodes = (
"303 -8 OFFCURVE",
"229 58 OFFCURVE",
"229 160 CURVE SMOOTH",
"229 199 LINE",
"229 206 OFFCURVE",
"229 226 OFFCURVE",
"237 231 CURVE",
"207 231 LINE",
"207 333 LINE",
"423 333 LINE",
"423 368 OFFCURVE",
"395 385 OFFCURVE",
"372 385 CURVE SMOOTH",
"357 385 OFFCURVE",
"331 384 OFFCURVE",
"316 361 CURVE",
"217 401 LINE",
"245 489 OFFCURVE",
"333 502 OFFCURVE",
"372 502 CURVE SMOOTH",
"497 502 OFFCURVE",
"541 413 OFFCURVE",
"541 329 CURVE SMOOTH",
"541 231 LINE",
"399 231 LINE",
"368 231 OFFCURVE",
"364 211 OFFCURVE",
"364 199 CURVE",
"364 166 LINE SMOOTH",
"364 154 OFFCURVE",
"373 132 OFFCURVE",
"403 132 CURVE SMOOTH",
"433 132 OFFCURVE",
"441 153 OFFCURVE",
"441 166 CURVE SMOOTH",
"441 202 LINE",
"541 202 LINE",
"541 166 LINE SMOOTH",
"541 153 OFFCURVE",
"549 132 OFFCURVE",
"579 132 CURVE SMOOTH",
"609 132 OFFCURVE",
"618 154 OFFCURVE",
"618 166 CURVE SMOOTH",
"618 202 LINE",
"759 202 LINE",
"759 160 LINE SMOOTH",
"759 58 OFFCURVE",
"692 -8 OFFCURVE",
"600 -8 CURVE SMOOTH",
"566 -8 OFFCURVE",
"525 3 OFFCURVE",
"496 35 CURVE",
"472 3 OFFCURVE",
"436 -8 OFFCURVE",
"408 -8 CURVE SMOOTH"
);
},
{
closed = 1;
nodes = (
"43 49 OFFCURVE",
"30 119 OFFCURVE",
"30 210 CURVE SMOOTH",
"30 277 LINE SMOOTH",
"30 415 OFFCURVE",
"129 505 OFFCURVE",
"241 505 CURVE SMOOTH",
"266 505 OFFCURVE",
"291 501 OFFCURVE",
"316 492 CURVE",
"316 361 LINE",
"282 375 OFFCURVE",
"265 379 OFFCURVE",
"248 379 CURVE SMOOTH",
"205 379 OFFCURVE",
"158 353 OFFCURVE",
"158 247 CURVE SMOOTH",
"158 210 LINE SMOOTH",
"158 129 OFFCURVE",
"169 89 OFFCURVE",
"233 12 CURVE",
"103 -28 LINE"
);
},
{
closed = 1;
nodes = (
"618 498 LINE SMOOTH",
"618 583 OFFCURVE",
"607 616 OFFCURVE",
"523 616 CURVE",
"523 755 LINE",
"664 755 OFFCURVE",
"759 706 OFFCURVE",
"759 520 CURVE SMOOTH",
"759 202 LINE",
"618 202 LINE"
);
},
{
closed = 1;
nodes = (
"232 678 OFFCURVE",
"354 755 OFFCURVE",
"467 755 CURVE",
"467 617 LINE",
"419 617 OFFCURVE",
"369 602 OFFCURVE",
"369 530 CURVE",
"232 566 LINE"
);
}
);
width = 789;
}
);
unicode = 0DAC;
},
